<svg clip-rule="evenodd" fill-rule="evenodd" stroke-linejoin="round" stroke-miterlimit="2" viewBox="0 0 671 676" xmlns="http://www.w3.org/2000/svg"><g fill-rule="nonzero"><path d="m169.19 648.411a3.63 3.63 0 0 1 -3.779-3.61c0-1.007.421-1.969 1.16-2.653l.248-.984a9.725 9.725 0 0 0 -9.033-6.152 9.723 9.723 0 0 0 -8.964 5.982c-4.282 10.023-9.825 20.4-7.068 31.44-18.206-38.585-12.015-86.582 14.891-119.58 7.437-4.096 13.465-11.375 15.034-19.827-3.68 1.247-8.27-1.747-5.502-5.624 1.2-1.481 2.411-2.952 3.61-4.433-13.982-14.891-30.641 8.512-15.251 28.609a115.863 115.863 0 0 0 -13.011 20.352 48.718 48.718 0 0 0 -2.908-22.625c-2.783-6.714-8.001-12.37-12.595-18.175-5.586-7.073-17.083-3.809-17.835 5.166 5.156 1.695 5.825 9.142-.072 10.161 1.545 16.698 12.454 32.043 27.479 39.366a116.306 116.306 0 0 0 -6.356 48.612c-2.652-19.25-23.315-23.922-37.758-31.573a5.63 5.63 0 0 0 -3.037-.89c-3.087 0-5.626 2.54-5.626 5.626 0 .323.027.645.083.963a32.496 32.496 0 0 1 5.695 3.004 4.916 4.916 0 0 1 2.171 4.076 4.93 4.93 0 0 1 -4.452 4.89c7.28 18.018 26.102 30.117 45.433 30.049a119.585 119.585 0 0 0 8.032 23.447h28.692c.103-.319.195-.648.288-.967a32.6 32.6 0 0 1 -7.939-.473c7.026-8.319 12.46-12.563 8.371-24.177zm255.792 0 .166.003a3.63 3.63 0 0 0 3.613-3.613 3.616 3.616 0 0 0 -1.16-2.653l-.248-.984a9.725 9.725 0 0 1 9.033-6.152 9.723 9.723 0 0 1 8.964 5.982c4.282 10.023 9.825 20.4 7.068 31.44 18.206-38.585 12.015-86.582-14.891-119.58-7.437-4.096-13.465-11.375-15.034-19.827 3.68 1.247 8.27-1.747 5.502-5.624-1.2-1.481-2.411-2.952-3.61-4.433 13.982-14.891 30.641 8.512 15.251 28.609a115.863 115.863 0 0 1 13.011 20.352 48.718 48.718 0 0 1 2.908-22.625c2.783-6.714 8.001-12.37 12.595-18.175 5.586-7.073 17.083-3.809 17.835 5.166-5.156 1.695-5.825 9.142.072 10.161-1.545 16.698-12.454 32.043-27.479 39.366a116.306 116.306 0 0 1 6.356 48.612c2.652-19.25 23.316-23.922 37.758-31.573a5.63 5.63 0 0 1 3.037-.89c3.087 0 5.626 2.54 5.626 5.626 0 .323-.027.645-.082.963a32.47 32.47 0 0 0 -5.696 3.004 4.916 4.916 0 0 0 -2.171 4.076 4.93 4.93 0 0 0 4.452 4.89c-7.28 18.018-26.102 30.117-45.433 30.049a119.585 119.585 0 0 1 -8.032 23.447h-28.692c-.103-.319-.195-.648-.288-.967a32.6 32.6 0 0 0 7.939-.473c-7.026-8.319-12.46-12.563-8.371-24.177z" fill="#f2f2f2"/><path d="m435.621 652.671-12.356 2.81-16.724-46.322 18.237-4.149z" fill="#ffb6b6"/><path d="m438.989 665.461-37.997 8.646-.109-.481c-1.846-8.113 3.311-16.308 11.424-18.154l.001-.001 5.742-6.845 14.148 2.32 3.317-.755z" fill="#2f2e41"/><path d="m634.947 426.88 6.792 10.697-38.028 31.294-10.026-15.789z" fill="#ffb6b6"/><path d="m645.866 419.416 20.89 32.895-.416.265c-7.023 4.46-16.473 2.351-20.935-4.672v-.001l-8.375-3.114-2.56-14.106-1.824-2.872z" fill="#2f2e41"/><path d="m241.075 312.512-3.052-17.689 46.397-20.951 10.02-17.74a8.62 8.62 0 0 1 -.181-1.755c0-4.732 3.894-8.626 8.626-8.626s8.625 3.894 8.625 8.626a8.634 8.634 0 0 1 -4.331 7.48l-16.483 25.484z" fill="#a0616a"/><path d="m226.971 298.052 20.894-10.673 5.531 20.768-14.513 10.758z" fill="#ff9e16"/><path d="m180.086 651.062 12.633-.001 6.01-48.729-18.646.001z" fill="#a0616a"/><path d="m196.923 652.199v-8.564l-3.322.203-13.519.8-3.129.193-2.392 28.684-.129 1.537h8.971l.288-1.527 1.303-6.941 3.364 6.941.737 1.527h23.782c2.926-.018 5.327-2.424 5.34-5.35 1.004-4.688-18.774-14.822-21.294-17.503z" fill="#2f2e41"/><path d="m30.123 457.676-2.945 12.286 45.985 17.206 4.346-18.132z" fill="#a0616a"/><path d="m26.091 473.785 8.328 1.997.577-3.277 2.374-13.334.543-3.088-27.336-9.014-1.466-.483-2.091 8.723 1.418.637 6.446 2.885-7.535 1.653-1.656.36-5.546 23.127c-.664 2.85 1.116 5.745 3.958 6.44 4.325 2.069 18.792-14.8 21.986-16.626z" fill="#2f2e41"/><path d="m199.619 335.69-16.261-7.601-32.428 39.243-19.753 4.996a8.628 8.628 0 0 0 -3.916-.941c-4.732 0-8.626 3.894-8.626 8.626s3.894 8.625 8.626 8.625c2.28 0 4.47-.904 6.086-2.513l28.923-9.192z" fill="#a0616a"/><path d="m430.158 190.415c-9.56 0-17.427-7.867-17.427-17.428s7.867-17.428 17.427-17.428c9.561 0 17.428 7.867 17.428 17.428-.011 9.557-7.871 17.417-17.428 17.428zm0-32.856c-8.463 0-15.427 6.965-15.427 15.428s6.964 15.428 15.427 15.428c8.464 0 15.428-6.965 15.428-15.428-.01-8.46-6.968-15.418-15.428-15.428z" fill="#e6e6e6"/><path d="m428.928 179.553a2.148 2.148 0 0 1 -1.697-.831l-2.746-3.529a2.153 2.153 0 0 1 .377-3.017l.099-.076a2.148 2.148 0 0 1 3.017.377 1.57 1.57 0 0 0 2.374.115l5.574-5.885a2.163 2.163 0 0 1 3.039-.082l.091.087a2.148 2.148 0 0 1 .082 3.039l-8.65 9.13c-.405.429-.97.672-1.56.672zm-85.77 221.862c-9.56 0-17.427-7.867-17.427-17.428s7.867-17.428 17.427-17.428c9.561 0 17.428 7.867 17.428 17.428-.011 9.557-7.871 17.417-17.428 17.428zm0-32.856c-8.463 0-15.427 6.965-15.427 15.428s6.964 15.428 15.427 15.428c8.464 0 15.428-6.965 15.428-15.428-.01-8.46-6.968-15.418-15.428-15.428z" fill="#e6e6e6"/><path d="m341.928 390.553a2.148 2.148 0 0 1 -1.697-.831l-2.746-3.529a2.153 2.153 0 0 1 .377-3.017l.099-.076a2.148 2.148 0 0 1 3.017.377 1.57 1.57 0 0 0 2.374.115l5.574-5.885a2.163 2.163 0 0 1 3.039-.082l.091.087a2.148 2.148 0 0 1 .082 3.039l-8.65 9.13c-.405.429-.97.672-1.56.672zm-189.77-224.138c-9.56 0-17.427-7.867-17.427-17.428s7.867-17.428 17.427-17.428c9.561 0 17.428 7.867 17.428 17.428-.011 9.557-7.871 17.417-17.428 17.428zm0-32.856c-8.463 0-15.427 6.965-15.427 15.428s6.964 15.428 15.427 15.428c8.464 0 15.428-6.965 15.428-15.428-.01-8.46-6.968-15.418-15.428-15.428z" fill="#e6e6e6"/><path d="m150.928 155.553a2.148 2.148 0 0 1 -1.697-.831l-2.746-3.529a2.153 2.153 0 0 1 .377-3.017l.099-.076a2.148 2.148 0 0 1 3.017.377 1.57 1.57 0 0 0 2.374.115l5.574-5.885a2.163 2.163 0 0 1 3.039-.082l.091.087a2.148 2.148 0 0 1 .082 3.039l-8.65 9.13c-.405.429-.97.672-1.56.672z" fill="#e6e6e6"/><path d="m291.685 466.213c-40.413 0-86.858-44.846-127.949-23.539-124.415 64.514-107.289-43.44-143.032-83.588l1.173-2.354c39.439 35.363 88.679 64.135 142.399 83.205 48.546 17.234 97.455 25.22 141.423 23.112l.077 2.829a291.18 291.18 0 0 1 -14.091.335z" fill="#f2f2f2"/></g><ellipse cx="236.249" cy="151.676" fill="#e6e6e6" rx="8.447" ry="11.327" transform="matrix(1.1838 0 0 .88281 -41.87 16.448)"/><path d="m333.815 339.714c-3.862 2.573-7.814-3.552-3.878-6.011 3.862-2.573 7.814 3.552 3.878 6.011z" fill="#e6e6e6" fill-rule="nonzero"/><circle cx="311.586" cy="122.53" fill="#e6e6e6" r="11"/><path d="m350.06 182.809 62.593-182.809-68.731 180.621a3.443 3.443 0 0 0 -.745 2.138 3.459 3.459 0 0 0 3.442 3.442 3.458 3.458 0 0 0 3.441-3.392z" fill="#f0f0f0" fill-opacity=".3" fill-rule="nonzero"/><circle cx="286.88" cy="394.821" fill="#f2f2f2" r="10.702"/><path d="m183.225 398.904s-26.681 17.373-19.626 28.918c.244.398-31.869 42.811-31.869 42.811l-60.622-3.849-2.136 20.291 53.97 15.631s13.203 9.7 23.403-.988c10.2-10.687 44.174-43.415 44.174-43.415l1.639 66.077-17.055 91.562 25.465-1.614 24.785-91.861 9.149-104.054z" fill="#2f2e41" fill-rule="nonzero"/><path d="m202.23 294.635-11.22 8.503-12.788 27.294 12.297 16.7s10.344 17.927-6.213 35.288-29.271 35.903-16.019 35.241 66.925 26.637 67.278 4.271c.354-22.365 1.068-39.512 1.068-39.512l14.072-35.691s8.384-21.292 2.498-27.665c-5.886-6.374-13.768-14.518-13.768-14.518l-14.332-14.332h-12.941z" fill="#ff9e16" fill-rule="nonzero"/><path d="m223.174 242.194c25.171 14.323 4.507 52.114-21.133 38.657-25.169-14.323-4.506-52.114 21.133-38.657z" fill="#a0616a" fill-rule="nonzero"/><path d="m236.633 250.135c-1.763 2.294-5.448 1.219-12.664 2.855a30.113 30.113 0 0 0 -.841-7.262 20.445 20.445 0 0 1 -3.447 8.173c-6.266.695 1.415 19.73-1.793 33.725-4.133-29.525-12.827-21.79-8.435-15.934 2.812 3.749.937 14.997-7.498 9.373-13.918 6.615-33.742-26.243-11.771-41.653-.393-8.33 8.875-9.646 14.582-7.085 13.851-10.317 29.675 2.903 31.867 17.808z" fill="#2f2e41" fill-rule="nonzero"/><path d="m172.052 228.591c-5.604 34.455-35.641-6.336-49.764 27.571-4.44 12.279 3.179 21.063 7.998 31.255 1.1 8.376-9.797 12.625-10.938 20.336-.318 17.676 28.2 16.594 36.172 5.442 8.192-11.674-1.59-27.338 3.333-39.868 6.921-17.398 35.064-17.527 37.516-37.768-4.749-6.761-17.517-14.506-24.317-6.968z" fill="#2f2e41" fill-rule="nonzero"/><path d="m194.753 231.958a6.886 6.886 0 0 0 -.531.241h-.01c-.154.078-.308.155-.463.242-.019.009-.029.019-.048.029-.203-.193-.405-.386-.617-.579-.055.314-.042.636.038.945l.029.116c.193.203.396.396.608.598.193-.144.376-.299.569-.444.116-.096.232-.193.357-.289.02-.251.049-.54.077-.859zm5.808-10.729c-4.303-.984-5.692 4.641-6.107 7.352-1.563-9.842-8.067-6.744-5.819-.029a15.047 15.047 0 0 0 3.31 5.326c.203.232.425.463.656.695-.26 1.351 1.052 1.003 2.827-.241a23.661 23.661 0 0 0 3.619-3.175c3.541-3.714 6.3-8.684 1.514-9.928zm.135 5.538a33.656 33.656 0 0 1 -4.448 4.718c-.511.464-1.032.907-1.563 1.332-.009.087-.009.164-.019.232a1.745 1.745 0 0 1 -.135.27c-.54.974-1.148.444-1.38-.367-.019-.029-.048-.058-.067-.087a13.55 13.55 0 0 1 -1.998-2.644c-3.985-6.908 2.432-11.607 2.113 1.293a1.248 1.248 0 0 0 -.115.377c-.055.314-.042.636.038.945l.029.116c.193.203.396.396.608.598.193-.144.376-.299.569-.444.116-.096.232-.193.357-.289.02-.251.049-.54.077-.859v-.009c.251-2.586.936-7.237 2.2-8.501 2.779-2.132 6.378.174 3.734 3.319zm-5.943 5.191a6.886 6.886 0 0 0 -.531.241h-.01c-.154.078-.308.155-.463.242-.019.009-.029.019-.048.029-.203-.193-.405-.386-.617-.579-.055.314-.042.636.038.945l.029.116c.193.203.396.396.608.598.193-.144.376-.299.569-.444.116-.096.232-.193.357-.289.02-.251.049-.54.077-.859zm232.643 189.96-9.296 24.243-43.608 86.02 38.318 100.068 19.776-5.221-16.3-94.847 46.764-56.82 55.536 37.667s24.63 19.228 34 1 70-57 70-57l-15-16-69.819 32.674-48.189-67.828z" fill="#2f2e41" fill-rule="nonzero"/><path d="m474.303 307.564-15.303-16.441-26.25-3.612-32.164 22.517.324 24.923 15.9 58.729s-6.056 42.194 10.86 41.771 26.136-8.857 33.026-7.14 36.178 9.023 38.034 1.37 11.722-2.173 11.289-9.413-26.709-59.427-26.709-59.427l6.533-52.192z" fill="#5fd48e" fill-rule="nonzero"/><path d="m571.194 231.883c.031.311.047.624.047.937 0 5.142-4.232 9.373-9.374 9.373-.239 0-.477-.009-.716-.027l-35.19 66.926-9.448-14.503 35.969-63.165c.664-4.619 4.663-8.084 9.329-8.084 4.838 0 8.93 3.726 9.383 8.543z" fill="#ffb6b6" fill-rule="nonzero"/><path d="m460.41 320.008s-1.396 11.904 12.006 14.852c13.402 2.947 50.532-18.269 56.62-21.51 1.906-1.015 4.492-5.988 7.146-12.342a224.844 224.844 0 0 0 3.559-9.159c.673-1.837 3.896-2.339 4.531-4.161.63-1.813-1.327-4.946-.756-6.654a523.984 523.984 0 0 0 4.632-14.54l-8.882-16.686c-12.424 6.568-18.795 21.034-23.482 37.701z" fill="#5fd48e" fill-rule="nonzero"/><path d="m303.889 247.252c.702 4.552 4.659 7.946 9.265 7.946a9.36 9.36 0 0 0 3.031-.504l50.82 55.991 5.518-16.407-50.632-52.153a9.44 9.44 0 0 0 -8.697-5.792c-5.17 0-9.424 4.254-9.424 9.424 0 .501.04 1.001.119 1.495z" fill="#ffb6b6" fill-rule="nonzero"/><path d="m433.202 304.848s4.331 11.177-7.907 17.384-53.497-5.042-60.201-6.656c-2.099-.505-5.848-4.673-10.008-10.161-1.867-2.463-3.817-5.193-5.738-7.976-1.111-1.611-4.357-1.29-5.428-2.895-1.064-1.597.047-5.121-.933-6.632-4.654-7.171-8.124-12.918-8.124-12.918l4.425-18.378c13.671 3.25 23.46 15.662 32.169 30.626z" fill="#5fd48e" fill-rule="nonzero"/><circle cx="446.399" cy="258.353" fill="#ffb6b6" r="24.976"/><path d="m474.909 244.052c-2.627-4.064-7.557-6.773-12.337-6.012-1.202-8.241-8.343-14.416-16.671-14.416a16.854 16.854 0 0 0 -11.557 4.589 5.246 5.246 0 0 0 -5.123-.512 10.804 10.804 0 0 0 -4.162 3.341 24.272 24.272 0 0 0 -3.392 24.663c-.585-2.124 1.544-4.121 3.694-4.598 2.15-.476 4.405-.026 6.586-.336 2.794-.398 5.306-2.019 8.105-2.384a18.467 18.467 0 0 1 7.012.901 19.005 19.005 0 0 0 7.009.942c2.356-.28 5.39 8.648 5.349 14.936-.007 1.191.238 2.721 1.403 2.974 1.434.311 2.265-1.668 3.63-2.207 1.3-.373 2.68.361 3.097 1.647a4.118 4.118 0 0 1 -.786 3.687 12.188 12.188 0 0 1 -2.949 2.559l.562.467a3.355 3.355 0 0 0 4.223.525 9.123 9.123 0 0 0 3.031-3.452 40.628 40.628 0 0 0 5.562-13.326c.88-4.759.341-9.923-2.286-13.988z" fill="#2f2e41" fill-rule="nonzero"/><path d="m659.682 342.559c-32.216 24.4-96.316 16.692-116.208 58.487-60.228 126.545-111.754 30.148-164.488 19.724l-.486-2.585c52.79 4.378 109.415-2.415 163.751-19.648 49.105-15.571 92.915-38.735 126.692-66.961l1.769 2.209a290.988 290.988 0 0 1 -11.03 8.774z" fill="#f2f2f2" fill-rule="nonzero"/><path d="m523.476 673.997c-.768 2.272-438.842 2.272-439.669.005.766-2.278 438.84-2.278 439.669-.005z" fill="#ccc" fill-rule="nonzero"/></svg>