<svg xmlns="http://www.w3.org/2000/svg" width="280" height="280" viewBox="0 0 280 280">
  <g id="Gruppe_15" data-name="Gruppe 15" transform="translate(-1850 -5)">
    <g id="illustration_empty_state_orders" transform="translate(1852.22 2.84)">
      <path id="Pfad_8" data-name="Pfad 8" d="M41.5,212.4c7.616,18.585,20.034,22.453,28.765,18.585,16.885-7.482,60.747-15.84,105.794,3.808,59.663,26.023,72.357-13.239,53.316-52.954s-25.495-79.877-3.544-102-6.774-56.742-57.787-20.71c-32.966,23.285-57.16,18.1-70.152,11.517-12.244-6.2-25.862-12.69-38.62-7.625-15.48,6.145-21.58,19.468,1.973,49.231C94.621,154.422,24.428,170.74,41.5,212.4Z" fill="#ededed"/>
      <path id="Pfad_9" data-name="Pfad 9" d="M72.51,121.864H191.038V213.02a.7.7,0,0,1-.7.7H73.21a.7.7,0,0,1-.7-.7Z" fill="#d1d1d1"/>
      <path id="Pfad_10" data-name="Pfad 10" d="M161.3,86.143H106.19L72.51,121.864H191.038Z" fill="#606060"/>
      <path id="Pfad_11" data-name="Pfad 11" d="M83.737,71.854,106.19,86.143,72.51,121.864,46.995,102.473Z" fill="#959595"/>
      <path id="Pfad_12" data-name="Pfad 12" d="M183.757,71.854,161.3,86.143l29.735,35.721L220.5,102.473Z" fill="#959595"/>
      <path id="Pfad_13" data-name="Pfad 13" d="M120.67,72.585a2.718,2.718,0,0,0,1.338-3.517l-10.1-23.818a2.718,2.718,0,0,0-3.667-1.395l-1.946.923a2.72,2.72,0,0,0-1.241,3.721l12.047,22.9a2.719,2.719,0,0,0,3.57,1.19Z" fill="#606060"/>
      <path id="Pfad_14" data-name="Pfad 14" d="M133.334,70.276a1.783,1.783,0,0,0,1.655-1.83l-.5-16.956a1.783,1.783,0,0,0-1.908-1.725l-1.409.1a1.78,1.78,0,0,0-1.644,1.977L131.436,68.7a1.783,1.783,0,0,0,1.9,1.578Z" fill="#606060"/>
      <path id="Pfad_15" data-name="Pfad 15" d="M143.11,76.544c1.262.729,3.032.06,4.014-1.517l17.439-28.007c1.042-1.673.795-3.712-.542-4.486l-1.865-1.078c-1.338-.774-3.229.03-4.159,1.767L142.423,72.308C141.546,73.946,141.849,75.814,143.11,76.544Z" fill="#606060"/>
    </g>
    <rect id="Rechteck_13" data-name="Rechteck 13" width="280" height="280" transform="translate(1850 5)" fill="none"/>
  </g>
</svg>
