<svg clip-rule="evenodd" fill-rule="evenodd" stroke-linejoin="round" stroke-miterlimit="2" viewBox="0 0 255 251" xmlns="http://www.w3.org/2000/svg" xmlns:xlink="http://www.w3.org/1999/xlink"><clipPath id="a"><path clip-rule="evenodd" d="m101 90h309v282h-309z"/></clipPath><g transform="matrix(.80906 0 -.01547 .88639 -75.714 -79.409)"><path d="m101 90h309v282h-309z" fill="none"/><g clip-path="url(#a)"><g fill-rule="nonzero" transform="matrix(1.236 0 .02157 1.12817 -120.604 -18.718)"><path d="m352.349 415.503h-131a2.633 2.633 0 0 1 -2.62-2.62v-16.04l15.91-58.15-20.51-127.13-6.85-2.38a2.625 2.625 0 0 1 -1.624-2.423 2.633 2.633 0 0 1 3.094-2.577l8.45 2.85a2.614 2.614 0 0 1 1.85 2.12l20.84 129.2c.055.29.055.589 0 .88l-15.38 55.72 122 8.67c.677.047 1.31.35 1.77.85l6 6.66c.431.48.67 1.104.67 1.75a2.631 2.631 0 0 1 -2.61 2.62zm-128.35-5.23h122.45l-1.35-1.5-121.1-8.61z" fill="#c7c7c7"/><path d="m400.299 252.873h-176.54a2.633 2.633 0 0 1 -2.782-2.615 2.633 2.633 0 0 1 2.782-2.615h176.54a2.633 2.633 0 0 1 2.782 2.615 2.633 2.633 0 0 1 -2.782 2.615z" fill="#c7c7c7"/><path d="m237.299 339.623a.883.883 0 0 1 -.786-.875c0-.448.341-.827.786-.875l132.62-7.09 26.11-80.79a.871.871 0 0 1 1.1-.56.862.862 0 0 1 .51 1.13l-26.3 81.36a.871.871 0 0 1 -.78.61l-133.21 7.08z" fill="#c7c7c7"/><path d="m372.799 325.203h-137.92a.875.875 0 0 1 -.87-.87c0-.477.393-.87.87-.87h137.92c.477 0 .87.393.87.87s-.393.87-.87.87zm3.51-10.64h-143.06a.875.875 0 0 1 -.87-.87c0-.477.393-.87.87-.87h143.06c.477 0 .87.393.87.87s-.393.87-.87.87zm3.24-10.57h-147.91a.883.883 0 0 1 -.786-.875c0-.448.341-.827.786-.875h147.91a.885.885 0 0 1 .974.875.885.885 0 0 1 -.974.875zm3.52-10.61h-153.06a.885.885 0 0 1 -.974-.875.885.885 0 0 1 .974-.875h153.06a.883.883 0 0 1 .786.875.883.883 0 0 1 -.786.875zm3.35-10.61h-158a.875.875 0 0 1 -.87-.87c0-.477.393-.87.87-.87h158c.477 0 .87.393.87.87s-.393.87-.87.87zm3.6-10.61h-163.26a.875.875 0 0 1 -.87-.87c0-.477.393-.87.87-.87h163.26c.477 0 .87.393.87.87s-.393.87-.87.87zm3.43-10.6h-168.31a.875.875 0 0 1 -.87-.87c0-.477.393-.87.87-.87h168.31c.477 0 .87.393.87.87s-.393.87-.87.87z" fill="#c7c7c7"/><path d="m249.209 338.563a.874.874 0 0 1 -.87-.81l-6.7-87.43a.864.864 0 0 1 .8-.93.894.894 0 0 1 .94.8l6.7 87.37a.874.874 0 0 1 -.8.93zm108.13-5.75a.81.81 0 0 1 -.22 0 .884.884 0 0 1 -.62-1.07l22.21-81.68a.884.884 0 0 1 1.07-.62.872.872 0 0 1 .61 1.07l-22.2 81.68a.891.891 0 0 1 -.85.62zm-94.2 5.05a.884.884 0 0 1 -.87-.86l-2.16-86.72a.894.894 0 0 1 .85-.9c.472 0 .864.379.88.85l2.15 86.73a.884.884 0 0 1 -.85.9zm14.3-.78a.874.874 0 0 1 -.85-.87v-.02l1.6-85.95a.884.884 0 0 1 .87-.86c.47.01.85.4.85.87v.02l-1.6 86a.874.874 0 0 1 -.87.81zm64.68-3.59h-.17a.864.864 0 0 1 -.68-1l16.87-82.36a.893.893 0 0 1 1-.68.875.875 0 0 1 .68 1l-16.87 82.36a.882.882 0 0 1 -.83.68zm-17.34 1.07h-.14a.884.884 0 0 1 -.72-1l13.66-83.4a.874.874 0 0 1 1-.71.863.863 0 0 1 .71 1l-13.65 83.35a.883.883 0 0 1 -.86.76zm-32.7 1.69h-.07a.864.864 0 0 1 -.8-.93l6.37-85.13a.876.876 0 0 1 .87-.807c.479 0 .872.393.872.872 0 .022 0 .043-.002.065l-6.37 85.13a.884.884 0 0 1 -.87.8zm17.15-1.11h-.1a.883.883 0 0 1 -.77-1l9.34-84a.873.873 0 0 1 .865-.775.875.875 0 0 1 .865.965l-9.34 84a.873.873 0 0 1 -.86.81z" fill="#c7c7c7"/><path d="m214.529 212.093a2.997 2.997 0 0 1 -1.06-.19l-13.76-5.22a3.006 3.006 0 0 1 -1.935-2.805c0-1.646 1.354-3 3-3 .364 0 .725.066 1.065.195l13.8 5.22a3.005 3.005 0 0 1 1.923 2.8 3.015 3.015 0 0 1 -2.993 3z" fill="#ffa21f"/><path d="m356.8 162.79c7.88 5.67 33.07 28.48 34.66 32.28 1.91 4.52-7.86 20.59-11.9 20.24-10.44-.91-28.72-33.79-34.58-48.84-2.87-7.36-1.36-13.17 11.82-3.68z" fill="#d3766a"/><path d="m378.15 160.76c2.26-2.48 20.15 10.84 19.79 15.76-1.31 18.1-6.86 33.47-10.16 36.65a9.065 9.065 0 0 1 -6.128 2.387 9.073 9.073 0 0 1 -8.232-5.277c-3.96-8.28-4.03-39.93 4.73-49.52z" fill="#d3766a"/><path d="m371.49 200.05c-2-10 .59-24.14.58-24.16 0-.2.26-.27.27-.16.07 2-1.29 16.82-.58 24.24 0 .03-.26.15-.27.08z" fill="#263238"/><path d="m401.75 163.27c-.3 5.25-5.11 15.73-7.25 17.82s-20.23-5.51-21-8.47 1.6-20.54 5.18-24.52 23.38 9.73 23.07 15.17z" fill="#d3766a"/><path d="m373.35 169.56a43.69 43.69 0 0 0 -5.73-11.3c-3.07-4-8.08-9.66-6-11.4 4.32-3.55 16.81 10.51 16.81 10.51s4.52 7.08.55 11a5.536 5.536 0 0 1 -5.63 1.19z" fill="#d3766a"/><path d="m374.37 155.33c1.3 2.47 3.46-.48 3.46-.48s-2.09 5 .24 7 4.72-1.71 4.9-2c-.11.26-1.9 4.89.64 6.68s4.51-2.23 4.63-2.5c0 .29-.27 4 2 4.94 3.85 1.57 4.74-7.95 7.43-10 0 0 4 4.15 4.11 4.25s1-9-1.92-12.51a2.907 2.907 0 0 0 -3.56-.74c-1.209.618.65-2.87-1.31-4.35-1-.75-3.1.19-3.1.19a3.634 3.634 0 0 0 -1.4-3.52c-1.45-1-3.33.13-3.33.13s-.62-2.43-2.43-2.93c-3.66-.97-13.14 10.57-10.36 15.84z" fill="#d3766a"/><path d="m386.81 142.6s0-.09-.05-.06a25.885 25.885 0 0 0 -9.07 12.46c-.05.16.19.31.28.14a52.848 52.848 0 0 1 8.84-12.54zm5.07 3.19s0-.11-.08-.07a24.242 24.242 0 0 0 -9 14.21c0 .2.13.41.19.19 1.01-3.81 5.52-10.88 8.89-14.33zm-3.58 18.72c1.25-5.53 4.14-10.1 7.79-14.37 0 0 0-.11-.09-.08-2.35 1.6-4.39 4.57-5.79 7a14.937 14.937 0 0 0 -2.1 7.4c0 .11.16.16.19.05z" fill="#263238"/><path d="m377.74 154.88c-.06.19.28.07.23.26-.22.82-1.15 5.82.46 6.66 1.29.68 3.09-.59 3.59-1.35l1.26-1.9-.52 2.23a9.263 9.263 0 0 0 -.23 3 3.37 3.37 0 0 0 1.19 2.46 1.936 1.936 0 0 0 2.41 0 5.78 5.78 0 0 0 1.68-2.35l1.07-2.48-.19 2.68a8.852 8.852 0 0 0 .12 2.24c.105.704.415 1.361.89 1.89.457.465 1.14.632 1.76.43a3.75 3.75 0 0 0 1.56-1.44 29.765 29.765 0 0 0 2.16-4.16c.34-.72.67-1.44 1-2.14a5.591 5.591 0 0 1 1.42-1.91 6 6 0 0 0 -1.22 2c-.31.73-.59 1.47-.87 2.21a25.118 25.118 0 0 1 -2 4.36 4.373 4.373 0 0 1 -1.82 1.79 2.444 2.444 0 0 1 -2.62-.54 4.457 4.457 0 0 1 -1.16-2.32 9.337 9.337 0 0 1 -.17-2.48l.87.19a6.562 6.562 0 0 1 -2 2.8 2.81 2.81 0 0 1 -1.77.6 3.212 3.212 0 0 1 -1.74-.64 4.23 4.23 0 0 1 -1.51-3.11c-.081-1.116.02-2.237.3-3.32l.74.33c-.67.94-2.53 2.57-4.66 1.78-2.54-1.43-.65-6.81-.23-7.77z" fill="#263238"/><path d="m377.83 154.85a5.85 5.85 0 0 1 -1.42 1c-.422.2-.919.166-1.31-.09a2.652 2.652 0 0 1 -.77-1.28c-.17-.54-.32-1.11-.45-1.7a4.34 4.34 0 0 0 -.15 1.83c.056.69.384 1.33.91 1.78a1.783 1.783 0 0 0 2.05 0 3 3 0 0 0 1.14-1.54z" fill="#263238"/><path d="m353.11 323.7c-2.24 11-42.71 49.05-42.71 49.05l31.89 36.82s59.69-58.86 56.3-83.22c-2.95-21.2-34.68-106.42-34.68-106.42h-36.61s28 92.93 25.81 103.77z" fill="#37474f"/><path d="m353.11 323.7c-2.24 11-42.71 49.05-42.71 49.05l31.89 36.82s59.69-58.86 56.3-83.22c-2.95-21.2-34.68-106.42-34.68-106.42h-36.61s28 92.93 25.81 103.77z" fill="#37474f"/><path d="m357.65 318.33c-.52-2.75-1.12-5.5-1.7-8.24a712.343 712.343 0 0 0 -3.78-16.75 780.967 780.967 0 0 0 -8.6-32.94c-3.12-10.95-6.42-21.89-10.22-32.63-.46-1.33-1-2.65-1.43-4 0-.1-.2-.06-.16 0 3.29 10.76 6.68 21.49 9.76 32.31s5.92 21.61 8.6 32.49c1.34 5.47 2.59 11 3.82 16.44.6 2.7 1.187 5.403 1.76 8.11a57.846 57.846 0 0 1 1.53 8.35 12.672 12.672 0 0 1 -2.15 7.52c-1.37 2.25-3 4.36-4.54 6.48-3.13 4.24-27.65 31.45-28.61 32.36-.08.07 0 .17.11.11 4-3.59 24-25 27.22-29.21 1.59-2.09 3.13-4.22 4.65-6.36a25.132 25.132 0 0 0 3.64-6.41 15.15 15.15 0 0 0 .1-7.63z" fill="#263238"/><path d="m357.58 219.92-6.65 87.22c-6.34-29.85-23.62-87.22-23.62-87.22z" fill="#263238"/><path d="m360.38 219.93a149.727 149.727 0 0 0 -3.15 18.26c-.76 7.66-1.72 14.44-2.74 15.28s-6.94 4.67-8.89 5.86c0 0 18 54.68 22.69 72.9 6.75 26.42 22.88 96.51 22.88 96.51h-44.17s-11.93-66.28-17.65-91.43c-4.93-21.58-23.73-86.31-23.73-86.31-6.84-16.82 4.69-31.11 4.69-31.11s50.07.01 50.07.04z" fill="#37474f"/><path d="m357.54 251.31a82.97 82.97 0 0 0 -11.88 8 .145.145 0 1 0 .16.24c4-2.52 8.15-5 12-7.72a.294.294 0 0 0 -.14-.555.297.297 0 0 0 -.14.035zm-3.29-29.74c0-.15-.3-.14-.27 0a144.901 144.901 0 0 1 1.51 14.52c.15 2.26.27 14.81-3.73 14.52-.66 0-1.09-.64-1.34-1.59a15.455 15.455 0 0 1 -.08-3.85c0-2.64 0-5.27-.21-7.9a71.226 71.226 0 0 0 -2.41-14.5.131.131 0 0 0 -.12-.08.131.131 0 0 0 -.13.13 133.374 133.374 0 0 1 1.94 20.24c0 3.26-.84 8.32 2.57 8.3s4.43-8.43 4.51-10.7a74.216 74.216 0 0 0 -2.24-19.09z" fill="#263238"/><path d="m351.92 250.94a20.445 20.445 0 0 0 -.47 2.68 6.02 6.02 0 0 0 0 2.15.15.15 0 0 0 .28 0c.3-.69.496-1.422.58-2.17.17-.83.36-1.66.5-2.5a.454.454 0 0 0 -.445-.532.453.453 0 0 0 -.445.372zm20.91 97.67c-1.44-7.15-3.37-14.2-5.31-21.22-3.92-14.13-8.52-28.05-13.12-42l-4-12c-.67-2-3.91-12.81-4.31-13.84-.05-.1-.2-.06-.17 0 .93 3.68 2.2 9.05 3.28 12.7s2.22 7.18 3.34 10.77c2.2 7.05 4.44 14.09 6.57 21.16 4.22 14 8.42 27.93 11.84 42.13 1 4 1.92 7.94 2.79 11.94s1.63 8 2.46 12a.1.1 0 0 0 .1.1.1.1 0 0 0 .1-.1c-.69-7.25-2.14-14.48-3.57-21.64zm-26.77 37.39c-2.37-13.63-5.21-27.18-8.36-40.66s-6.68-27-10.56-40.34-8.14-26.6-12.79-39.71c-2.18-6.21-4.85-12.36-5.84-18.88a38.693 38.693 0 0 1 4-24.46.09.09 0 0 0 .012-.045.092.092 0 1 0 -.172-.045c-3.89 5.81-8.22 17.85-1 37.16 2.4 6.44 4.47 13 6.6 19.51a819.234 819.234 0 0 1 6.29 20.19c4 13.39 7.66 26.87 11 40.44s6.25 27.23 8.84 40.95 3.63 18.42 5.84 32.25c.29 1.8.52 3.61.76 5.42 0 .1.17.1.16 0-1.77-13.71-2.42-18.19-4.78-31.78z" fill="#263238"/><path d="m365.63 221.23-2.85-18.9s5.61-6.57 2.05-14.36c-1.83-3.97-13.16-25.37-19.83-30.27-6.27-4.6-14.14-.26-17.09 3.69-8.49 11.37-14.66 22.28-19.57 59.53z" fill="#ffa21f"/><path d="m353.11 199.32c-2.882.261-5.74.739-8.55 1.43-1.39.36-2.76.79-4.12 1.24-.68.23-1.37.43-2.05.63a9.292 9.292 0 0 1 -2.21.42c-.06 0-.06.1 0 .11.707.028 1.415.012 2.12-.05a15.426 15.426 0 0 0 2-.39c1.42-.35 2.81-.77 4.23-1.14 2.84-.74 5.69-1.48 8.58-2 .17-.04.13-.27 0-.25zm7.13 2.53a61.187 61.187 0 0 0 -7.15-.32c-1.19 0-2.38.1-3.57.22-.56.06-1.13.12-1.7.2s-1.23.24-1.85.32a.05.05 0 0 0 -.05.05c0 .027.023.05.05.05.59-.05 1.19 0 1.78 0h1.78l3.57-.1c2.38-.09 4.76-.15 7.14-.16.071 0 .13-.059.13-.13a.131.131 0 0 0 -.13-.13z" fill="#263238"/><path d="m327.52 161c-17.89 16.87-34.46 44.73-33.28 59.36 1.17 14.45 6.07 12.59 7.49 12.37 8.67-1.36 25.57-43.39 30.34-60.33s-.13-15.57-4.55-11.4z" fill="#d3766a"/><g fill="#263238"><path d="m332.65 144.62c-3.11-.09-10.37 3.48-12.18 7.94s-.38 10.85 1.06 11.23 7-1.18 10.51-4.06 2.14-15.06.61-15.11z"/><path d="m332.66 144.64c.09 0 .07-.21 0-.19-2.62.42-5.25 1.83-7.6 3a15.41 15.41 0 0 0 -5.18 3.7 7.116 7.116 0 0 0 -1.55 5.76 14.648 14.648 0 0 0 2.72 6.86c.05.05.16 0 .12-.06-2-4.12-4.08-9.23-.32-13 3.15-3.19 7.78-4.37 11.81-6.07z"/><path d="m321.75 162.58c-2.54.83-8.38 7.07-8.57 12.24s5.2 11.73 6.58 12 6.24-5.55 7.45-9.4c.82-2.56-.69-5.09-1.77-7.69-1.59-3.81-3.3-7.28-3.69-7.15z"/><path d="m328.66 176.53c-.18-5.2-4-9.66-6.57-13.89 1.7 4.19 5.07 7.63 6.01 12.19a8.507 8.507 0 0 1 -1.81 7.64c-1.66 1.81-4 2.93-6.07 4.15-.14.08 0 .28.14.2 4.2-2.27 8.48-4.93 8.3-10.29zm-7.39-13.38c.12-.09 0-.28-.12-.19-3.38 2.45-7.35 5.86-8.63 10-1.38 4.47 1.58 8.32 4.19 11.62h.07c-2.59-3.37-5.46-7.62-3.77-12 1.46-3.89 5.09-7.05 8.26-9.43z"/><path d="m320.58 185.68c-2.45 3.57-5.28 8.68-3.29 12.12s8.13 7.47 8.54 7.33 5.66-6.41 5.55-11.26-10.48-8.66-10.8-8.19z"/><path d="m326.24 205.32c-3.58-1.46-7.92-3.65-9.4-7.51s1.35-8.56 3.38-11.55c-2.39 2.89-5.05 7.65-3.76 11.48s6 6.83 9.74 7.77c.08-.03.11-.16.04-.19z"/><path d="m325.66 204.78a11.323 11.323 0 0 0 -.43 9c2.24 5.75-.35 5.89-5.23 10.67-4.14 4-2 10.06 2.2 11.2 0 0-3.47-2.45-1.18-6 2.73-4.26 14.05-5.45 15.22-13.58 1.53-10.55-10.58-11.29-10.58-11.29z"/><path d="m325 208.42c0-.11-.17-.15-.19 0a8.903 8.903 0 0 0 -.23 3.21c.17 1.39.86 2.61 1.12 4 .66 3.48-2.86 5.44-5.27 7.11-3.22 2.23-4.71 5.9-2.81 9.57 0 .05.11 0 .08 0a7.009 7.009 0 0 1 .55-7.21c1.48-2 4-2.88 5.71-4.58 1.2-1.17 2.24-2.59 2.08-4.34a13.398 13.398 0 0 0 -.8-2.76 9.808 9.808 0 0 1 -.24-5z"/><path d="m326.92 204.89c-.05 0-.06.07 0 .08 3 .75 6.17 1.44 8.35 3.87 2.35 2.61 2.58 6.49 1.32 9.66-1.42 3.55-4.79 4.25-8 5.41-2.4.69-4.572 2.009-6.29 3.82-.05.06.05.14.11.09 2.87-2.75 6.51-3.57 10.09-5a7.662 7.662 0 0 0 5-6.43c.99-6.81-4.44-10.66-10.58-11.5z"/></g><path d="m328.52 140.3a1.065 1.065 0 0 0 -1.512.959c0 .341.165.662.442.861a1.065 1.065 0 0 0 1.512-.959c0-.341-.165-.662-.442-.861z" fill="#ffa21f"/><path d="m329.92 141.69a1.054 1.054 0 0 0 -.486-.118 1.06 1.06 0 1 0 -.594 1.938c.15.078.317.118.486.118a1.06 1.06 0 1 0 .594-1.938z" fill="#ffa21f"/><path d="m331.54 142.83a1.065 1.065 0 0 0 -1.512.959c0 .341.165.662.442.861a1.065 1.065 0 0 0 1.512-.959c0-.341-.165-.662-.442-.861z" fill="#ffa21f"/><path d="m333.26 143.72a1.054 1.054 0 0 0 -.486-.118 1.06 1.06 0 1 0 -.594 1.938c.15.078.317.118.486.118a1.06 1.06 0 1 0 .594-1.938z" fill="#ffa21f"/><path d="m335.14 144.32a1.065 1.065 0 0 0 -1.512.959c0 .341.165.662.442.861a1.065 1.065 0 0 0 1.512-.959c0-.341-.165-.662-.442-.861z" fill="#ffa21f"/><path d="m337 144.56a1.054 1.054 0 0 0 -.486-.118 1.06 1.06 0 1 0 -.594 1.938c.15.078.317.118.486.118a1.06 1.06 0 1 0 .594-1.938z" fill="#ffa21f"/><path d="m333.84 159c.29 1.06 6.13 8 10.74 6 1.71-.73 1.07-6.33 1.07-6.33l1.83-9.78-12.48-7.35s-1.28 16.98-1.16 17.46z" fill="#d3766a"/><path d="m334.57 147.88a19.01 19.01 0 0 0 11.18 10.21l1.73-9.24-12.48-7.31s-.18 2.87-.43 6.34z" fill="#263238"/><path d="m356.5 133.23c2.94 16-6.33 19.61-9.79 20.24-3.14.57-13.91 2.12-18.49-13.52s1.95-22.09 9.06-23.78 16.28 1.02 19.22 17.06z" fill="#d3766a"/><path d="m351.86 131.93c-.38 0-.73-.08-1.11-.12-.4.012-.794-.107-1.12-.34a.572.572 0 0 1 -.07-.71 1.422 1.422 0 0 1 1.37-.47 2.086 2.086 0 0 1 1.4.61.619.619 0 0 1 -.465 1.03zm-10.98 1.25c.363-.094.72-.207 1.07-.34a1.84 1.84 0 0 0 1-.56.572.572 0 0 0 -.07-.7 1.452 1.452 0 0 0 -1.45-.2 2.144 2.144 0 0 0 -1.24.88.622.622 0 0 0 .69.92zm2.73 3.87s-.08.06-.08.1c.18 1.1.19 2.39-.76 2.88v.06c1.23-.32 1.23-2.03.84-3.04z" fill="#263238"/><path d="m342.48 136c-1.79.08-1.49 3.65.17 3.58s1.35-3.58-.17-3.58z" fill="#263238"/><path d="m341.8 136.27c-.3.22-.57.61-.95.68s-.79-.27-1.1-.61h-.06c.05.69.37 1.36 1.11 1.41s1.11-.61 1.22-1.32c-.02-.08-.11-.26-.22-.16zm8.33-.08s.09 0 .09.09c0 1.11.3 2.37 1.33 2.66v.07c-1.24-.08-1.55-1.76-1.42-2.82z" fill="#263238"/><path d="m351 135c1.77-.27 2.18 3.29.54 3.54s-1.99-3.36-.54-3.54z" fill="#263238"/><path d="m351.8 135.1c.3.16.62.47 1 .45s.64-.43.84-.83h.06c.1.68 0 1.41-.68 1.62s-1.09-.34-1.33-1c-.09-.09-.01-.34.11-.24zm-7.16 11.16c.26.26.53.62.93.66.412 0 .818-.092 1.19-.27s.07 0 .05.06a1.513 1.513 0 0 1 -1.41.59 1.192 1.192 0 0 1 -.87-1v-.008a.06.06 0 0 1 .06-.06.06.06 0 0 1 .05.028zm4.44-4.46c.159.803.276 1.614.35 2.43 0 .07-.18.12-.44.14a3.746 3.746 0 0 1 -3.68-1.21c-.06-.07 0-.16.11-.11a5.653 5.653 0 0 0 3.44.8c.05-.22-.63-2.8-.5-2.82.608.027 1.21.134 1.79.32-.55-3.45-1.64-6.78-2.14-10.22 0-.12.16-.17.2-.06a56.375 56.375 0 0 1 2.79 10.93c0 .43-1.6-.08-1.92-.2z" fill="#263238"/><path d="m348.76 144a4.38 4.38 0 0 1 -1.54 1.59c-.36.196-.772.276-1.18.23-.89-.1-1-.88-1-1.57.037-.368.117-.731.24-1.08a5.685 5.685 0 0 0 3.48.83z" fill="#263238"/><path d="m347.22 145.58c-.36.196-.772.276-1.18.23-.89-.1-1-.88-1-1.57a2.006 2.006 0 0 1 2.18 1.34z" fill="#ff9abb"/><path d="m344.64 120.31a7.257 7.257 0 0 1 -.17 4.26c-1.71 3.69-6.13 2.75-7.62 4.22s-.88 4.19-2.15 5.56c-1.75 1.9-4.17 1.18-4.45 2.46s-.06 4-1.66 4.49-9.89-25.19 11.68-25.61a18.051 18.051 0 0 1 6.64.72c6.15 1.74 8.44 12.11 8.44 12.11a3.84 3.84 0 0 1 -2.22-.57c-1-.9-1.42-1.73-2.17-2.3-1.18-.91-1.82-.56-3-1.44a13.862 13.862 0 0 1 -3.32-3.9z" fill="#263238"/><path d="m344.31 119.14c.337 1.048.551 2.132.64 3.23a5.992 5.992 0 0 1 -.42 3.15 4.412 4.412 0 0 1 -2.4 1.91c-1 .37-2.1.49-3.18.93a3.386 3.386 0 0 0 -1.4 1.07 4.3 4.3 0 0 0 -.6 1.63 5.941 5.941 0 0 1 -1.15 2.94 3.615 3.615 0 0 1 -2.81 1.21c-1.06 0-2.23-.28-3.27.2 1.07-.39 2.16 0 3.26.06a3.922 3.922 0 0 0 3.11-1.19 5.896 5.896 0 0 0 1.32-3.11 3.924 3.924 0 0 1 .55-1.45 2.767 2.767 0 0 1 1.2-.88c1-.42 2.08-.56 3.13-1a5.534 5.534 0 0 0 1.5-.84c.472-.344.85-.802 1.1-1.33.41-1.07.517-2.233.31-3.36a14.776 14.776 0 0 0 -.89-3.17z" fill="#263238"/><path d="m344.72 120.1a11.75 11.75 0 0 0 1 2.91 5.48 5.48 0 0 0 2.13 2.32c.468.23.957.415 1.46.55.447.141.845.404 1.15.76.263.444.571.859.92 1.24.384.358.846.621 1.35.77a3.692 3.692 0 0 1 -1.16-.94 8.11 8.11 0 0 1 -.78-1.3 2.708 2.708 0 0 0 -1.31-1 8.235 8.235 0 0 1 -1.37-.55 5.656 5.656 0 0 1 -2-2.07 23.031 23.031 0 0 1 -1.39-2.69z" fill="#263238"/><path d="m331.47 140s-4.26-4.52-6.36-2.92 1.63 8.5 4.46 9.1a2.767 2.767 0 0 0 3.44-2z" fill="#d3766a"/><path d="m326.23 139.06c-.05 0 0 .06 0 .07 2 .49 3.25 2.08 4.21 3.79a1.532 1.532 0 0 0 -2.32-.08c-.29.315 0 .11.07.09a1.693 1.693 0 0 1 1.93.32c.421.409.793.866 1.11 1.36.11.15.4 0 .31-.17-.34-2.44-2.7-5.52-5.31-5.38z" fill="#263238"/><path d="m352.12 164.3-10.43 27.83c-.4.81-.06 1.54.77 1.63l14.77 1.66a2.433 2.433 0 0 0 2.23-1.29l10.43-27.83a.997.997 0 0 0 .223-.63c0-.546-.447-.996-.993-1l-14.78-1.67a2.413 2.413 0 0 0 -2.22 1.3z" fill="#37474f"/><path d="m353.87 164.49-10.43 27.82a.997.997 0 0 0 -.223.63c0 .546.447.996.993 1l14.79 1.66c.925.033 1.79-.47 2.22-1.29l10.43-27.83c.4-.81.06-1.54-.77-1.63l-14.78-1.66c-.93-.032-1.8.475-2.23 1.3z" fill="#455a64"/><path d="m357.78 166.25a1.275 1.275 0 0 1 -1.26 1.109c-.696 0-1.27-.574-1.27-1.27a1.276 1.276 0 0 1 1.44-1.259 1.264 1.264 0 0 1 1.09 1.42z" fill="#263238"/><path d="m377.822 310.594-90.896 22.954-10.129-95.94 64.389-16.26z" fill="#c7a77a"/><path d="m341.186 221.348 13.28 95.144 23.356-5.898z" fill="#b8915a"/><path d="m341.186 221.348 13.28 95.144 23.356-5.898z" fill-opacity=".1"/><path d="m296.551 239.416-3.002.119c-.02-.078-.318-8.285-.534-16.574-.206-8.983 7.119-14.979 14.374-15.615 5.44-.476 12.256 2.135 13.57 11.013 1.383 9.562 1.813 14.126 1.83 14.318l-3.025.269c-.013-.049-.419-4.68-1.814-14.126-1.02-6.86-6.022-8.897-10.401-8.513-5.863.512-11.83 5.35-11.64 12.553.32 8.294.632 16.476.642 16.556z" fill="#263238"/><path d="m355.518 315.473c1.536-1.8 3.157-3.51 4.79-5.211a140.985 140.985 0 0 1 5.011-4.989l.233-.224.288.123c1.833.765 3.657 1.532 5.456 2.367s3.605 1.657 5.366 2.585c-1.893-.554-3.777-1.233-5.641-1.918a211.235 211.235 0 0 1 -5.55-2.126l.524-.132c-1.648 1.644-3.393 3.27-5.135 4.866-1.742 1.595-3.497 3.183-5.342 4.66z" fill="#fff"/><path d="m365.655 305.622c-1.889-5.805-3.68-11.633-5.443-17.47-1.763-5.836-3.46-11.698-5.196-17.552-1.736-5.853-3.353-11.725-4.972-17.608l-2.406-8.83c-.746-2.957-1.57-5.895-2.308-8.854.948 2.855 1.85 5.814 2.779 8.715l2.674 8.751c1.774 5.844 3.46 11.7 5.195 17.553 1.736 5.853 3.353 11.725 4.963 17.61s3.22 11.77 4.714 17.685z" fill="#fff"/><path d="m298.91 238.5c.536 2.128-.773 4.321-2.9 4.859-2.127.537-4.32-.772-4.857-2.9-.538-2.127.771-4.32 2.898-4.857 2.128-.537 4.32.772 4.858 2.899zm25.964-6.556c.537 2.127-.772 4.32-2.899 4.858-2.127.537-4.32-.772-4.858-2.9-.537-2.126.772-4.32 2.9-4.857 2.127-.537 4.32.772 4.857 2.899z" fill="#263238"/><path d="m299.72 232.88c6.53.31 14.12-5.44 33.61-22.55 2.69-2.36-8.9-25.88-11.91-23.5-3.79 3-17.85 15.45-18.76 16.49-7.66 8.78-7.37 29.35-2.94 29.56z" fill="#d3766a"/><path d="m314.64 194.87s5.19-8.87 9.35-12.69a36.414 36.414 0 0 1 15.46-7.94c6.17-1.48 22.11-.81 22.72 3.82.55 4.18-15.71 2.67-15.71 2.67s16.83-1.19 16.56 4-19.02 2.27-19.02 2.27 17.32-.84 16.2 4.44c-.84 4-18 2.39-18 2.39s14.89-.62 14.2 3.52c-.76 4.58-16.68 4.09-16.68 4.09-3.53 10.23-9.39 13.66-13.86 15.6-1.08.5-11.22-22.17-11.22-22.17z" fill="#d3766a"/><path d="m340.61 180.77c2-.21 4-.44 5.95-.48s4 0 5.95.15c2.587.151 5.15.59 7.64 1.31-4.51-1-11.61-.95-13.6-.91s-4 0-5.94 0zm0 7.17c2.53-.16 5-.42 7.57-.47s4.93.13 7.45.25c.19 0 .13.11-.07.11-2.52 0-4.86.15-7.39.16s-5.05-.09-7.56 0zm-1.11 6.15a56.61 56.61 0 0 1 11.64.17c.19 0 .09.14-.11.14-3.87-.14-6.9-.27-11.51-.18-.07 0-.1-.12-.02-.13zm-42.65 24.72a29.664 29.664 0 0 1 3.91-13.31c4.43-5.78 11.47-11.06 16.88-15.95a29.881 29.881 0 0 1 6.24-7.7 24.806 24.806 0 0 1 8.59-5.07 26.853 26.853 0 0 0 -8.28 5.4 33.399 33.399 0 0 0 -6.12 7.88c-5.32 4.92-12.31 10.17-16.85 15.77a32.104 32.104 0 0 0 -4.37 13z" fill="#263238"/></g></g></g></svg>