<svg height="280" viewBox="0 0 280 280" width="280" xmlns="http://www.w3.org/2000/svg"><g transform="translate(2.22 -2.16)"><path d="m41.5 212.4c7.616 18.585 20.034 22.453 28.765 18.585 16.885-7.482 60.747-15.84 105.794 3.808 59.663 26.023 72.357-13.239 53.316-52.954s-25.495-79.877-3.544-102-6.774-56.742-57.787-20.71c-32.966 23.285-57.16 18.1-70.152 11.517-12.244-6.2-25.862-12.69-38.62-7.625-15.48 6.145-21.58 19.468 1.973 49.231 33.376 42.17-36.817 58.488-19.745 100.148z" fill="#ededed"/><path d="m72.51 121.864h118.528v91.156a.7.7 0 0 1 -.7.7h-117.128a.7.7 0 0 1 -.7-.7z" fill="#d1d1d1"/><path d="m161.3 86.143h-55.11l-33.68 35.721h118.528z" fill="#606060"/><path d="m83.737 71.854 22.453 14.289-33.68 35.721-25.515-19.391z" fill="#959595"/><path d="m183.757 71.854-22.457 14.289 29.735 35.721 29.465-19.391z" fill="#959595"/><g fill="#606060"><path d="m120.67 72.585a2.718 2.718 0 0 0 1.338-3.517l-10.1-23.818a2.718 2.718 0 0 0 -3.667-1.395l-1.946.923a2.72 2.72 0 0 0 -1.241 3.721l12.047 22.9a2.719 2.719 0 0 0 3.57 1.19z"/><path d="m133.334 70.276a1.783 1.783 0 0 0 1.655-1.83l-.5-16.956a1.783 1.783 0 0 0 -1.908-1.725l-1.409.1a1.78 1.78 0 0 0 -1.644 1.977l1.908 16.858a1.783 1.783 0 0 0 1.9 1.578z"/><path d="m143.11 76.544c1.262.729 3.032.06 4.014-1.517l17.439-28.007c1.042-1.673.795-3.712-.542-4.486l-1.865-1.078c-1.338-.774-3.229.03-4.159 1.767l-15.574 29.085c-.877 1.638-.574 3.506.687 4.236z"/></g></g><path d="m0 0h280v280h-280z" fill="none"/></svg>