<svg clip-rule="evenodd" fill-rule="evenodd" stroke-linejoin="round" stroke-miterlimit="2" viewBox="0 0 301 300" xmlns="http://www.w3.org/2000/svg" xmlns:xlink="http://www.w3.org/1999/xlink"><clipPath id="a"><path clip-rule="evenodd" d="m124 65h338v248.225h-338z"/></clipPath><g transform="matrix(.88757 0 0 1.20858 -109.72 -78.558)"><path d="m124 65h338v248.225h-338z" fill="none"/><g clip-path="url(#a)"><g fill-rule="nonzero" transform="matrix(1.12667 0 0 .82742 -36.37 65)"><path d="m340.31 129.43-.4.1a.237.237 0 0 1 .07-.12z" fill="#263238"/><path d="m353.25 429.79h47.56s-9.58-111.09-9.2-113c.47-2.49 18.22-72 21.63-85.13 5.11-19.69 9.1-35 9.1-35h-40.34s-4.7 14.9-10.62 34.27c-9.65 31.5-22.54 74.84-23.81 85.38-2.03 16.99 5.68 113.48 5.68 113.48z" fill="#455a64"/><path d="m382.66 310c1.56-6.88 3.89-13.61 5.92-20.36 4.12-13.76 8.26-27.477 12.42-41.15 2.08-6.853 4.17-13.7 6.27-20.54 1.07-3.46 2.13-6.92 3.21-10.36s2.26-6.73 3.22-10.13c.39-1.39.6-.63.1 1.13-1 3.55-2 7.1-3 10.64-2.04 7.013-4.1 14.013-6.18 21-4.12 13.94-8.28 27.867-12.48 41.78-2.093 6.987-4.193 13.983-6.3 20.99a84.39 84.39 0 0 0 -2.58 10.12 47.44 47.44 0 0 0 -.42 10.84c.46 7.27 1.3 14.54 2 21.8s1.34 14.55 2 21.83l4 43.44c.17 1.83.33 3.67.47 5.51 0 .61-.89.57-1 0-1.57-14.31-2.77-28.68-4.11-43s-2.68-28.53-4-42.8c-.34-3.59-.72-7.17-.72-10.78a44.539 44.539 0 0 1 1.18-9.96z" fill="#263238"/><path d="m386.61 196.65c2.46 19.11 5.89 83.33 6.65 113.39 4.55-18.21 17.16-67.55 20-78.41 4.73-18.15 8.48-32.57 9-34.7.012-.065.028-.128.05-.19a.3.3 0 0 0 0-.06zm-12.17 26.4c1.14 0 5.28-1.39 6-3.26a34.562 34.562 0 0 0 1.67-6.43c.38-2.4.65-4.84.88-7.33 0-.12.09-.08.09 0 .034 2.781-.12 5.56-.46 8.32a21.631 21.631 0 0 1 -1.45 6.47c-.84 1.69-5.53 2.86-6.75 2.48-.06.01-.06-.25.02-.25z" fill="#263238"/><path d="m383.33 196.64s.93 19.29 5.35 34.57c.35 1.26.74 2.5 1.15 3.69 0 0-.61-.49 6.41 3.82 0 0-2.71 76.69-2.83 81.27-.4 17.12 12 110.5 12 110.5l47.55.19s-16.96-105.88-16.87-112.15c.09-10.08 6.08-53.92 4.24-86.42a91.933 91.933 0 0 0 -9.66-35.47z" fill="#455a64"/><path d="m427.83 199.52c6 11.56 8.25 24.72 8.74 37.62.53 14-1.14 28-2.62 41.89-1.55 14.63-2.9 29.28-1.78 44 1.14 14.86 3.77 29.6 5.9 44.34s4.36 29.47 6.2 44.24c.233 1.873.46 3.743.68 5.61 0 .1-.13.14-.15 0-2.61-14.56-4.75-29.21-7-43.83s-4.72-29.13-6.23-43.79-.87-29.18.6-43.8c1.41-14.07 3.28-28.13 3.32-42.3.05-13.17-1.28-26.65-5.94-39.06-.62-1.66-1.3-3.3-2-4.93-.06-.22.15-.23.28.01z" fill="#263238"/><path d="m428.07 223.05c-2.61 0-12.05-1.43-14.33-3.66a15.546 15.546 0 0 1 -3.35-6 58.09 58.09 0 0 1 -2-7.33c0-.12-.21-.08-.21 0a28.515 28.515 0 0 0 1.05 8.32c.63 2.3 1.48 4.86 3.34 6.47s4.6 2.29 7.1 2.6c2.807.32 5.643.28 8.44-.12a.142.142 0 0 0 .121-.14.14.14 0 0 0 -.141-.141zm-31.52 3.64v-3.14c0-1.92-.09-3.84-.13-5.76-.09-4.35-.21-8.72-.5-13.07 0-.11-.19-.11-.19 0-.1 1.72-.16 3.45-.19 5.17s-.11 3.45-.14 5.18c0 3.42-.09 6.84 0 10.26 0 1.32.47 3.75-1.44 3.86-1.52.09-2.37-1.52-2.61-2.79-.22-1.58-.31-3.175-.27-4.77v-5.21c.05-3.79.05-7.56 0-11.35 0-.11-.18-.1-.19 0-.47 3.82-.85 7.62-.94 11.47 0 1.84-.05 3.68 0 5.52a19.376 19.376 0 0 0 .46 5.21 4.163 4.163 0 0 0 2.59 2.93h.09a.11.11 0 0 0 -.07.1c-.07.61-.18 1.21-.21 1.82s0 1.21 0 1.81c.013.614.076 1.226.19 1.83.047.291.113.578.2.86.104.28.224.554.36.82.05.12.18.07.21 0v-.29c.032-.175.049-.352.05-.53v-.88c0-.59-.1-1.18-.17-1.77s-.1-1.18-.15-1.77-.17-1.2-.21-1.81v-.06a2.714 2.714 0 0 0 2.83-1.22c.351-.756.499-1.59.43-2.42z" fill="#263238"/><path d="m403 242.87a32.92 32.92 0 0 0 -3.68-2.86 37.977 37.977 0 0 0 -4.24-2.64c-2.88-1.53-5.88-2.66-8.88-3.92-.09 0-.17.11-.08.16 2.89 1.42 5.62 3.22 8.39 4.85 1.36.81 2.75 1.58 4.14 2.33s2.78 1.62 4.22 2.28c.07.05.13-.07.13-.2z" fill="#263238"/><path d="m392.13 147.7c-10.25 18.3-32 41.46-40.24 41-3.93-.23-11 .21-15.85-4.68-10.55-10.66-16.82-26.3-20.7-34-1.76-3.48 19.81-18 22.34-14.65 5.93 7.78 12.41 22.67 13.56 22.67 4.25 0 21.56-12.89 34-21.47 13.94-9.63 10.98 3.84 6.89 11.13z" fill="#f7a9a0"/><path d="m318.38 153.87c-2.21-2.42-11.37-14.43-13.17-18.35s-6.16-15.55-3.3-17.23 4.41 1.62 4.41 1.62-1.07-5.2 2-6.63 5.27 3.79 5.27 3.79-.7-5.43 2.42-6.64 4.5 4.41 4.5 4.41-.87-4.93 2.12-4.84c3.6.1 4.19 9.37 6.5 13.54.52.95 12 18.44 12 18.44z" fill="#f7a9a0"/><path d="m320.35 114.36c.44 6.82 1.82 9.73 5.77 15.17a.11.11 0 0 1 -.099.159.112.112 0 0 1 -.061-.019c-4.35-5-6.6-8.37-5.95-15.3.04-.37.31-.37.34-.01zm-6.82 2.16c1.08 7 2.54 10.21 6.26 16.21.06.09-.08.18-.14.1-4.15-5.58-6.31-9-6.47-16.2-.01-.32.3-.43.35-.11zm-7.02 3.69c1.54 6.74 3 10.28 7.36 15.65.012.02.018.043.018.066 0 .071-.059.13-.13.13a.128.128 0 0 1 -.078-.026c-5-5-6.82-9.44-7.37-15.75-.03-.43.11-.49.2-.07z" fill="#263238"/><path d="m317.61 107.22 19.59 29.12c.19.21.296.483.296.766 0 .534-.375 1-.896 1.114l-15.6 4.16a2.554 2.554 0 0 1 -2.55-1l-19.6-29.13a1.13 1.13 0 0 1 .6-1.87l15.58-4.16c.98-.202 1.992.19 2.58 1z" fill="#37474f"/><path d="m316 105.93-15.58 4.15c-.521.11-.897.573-.897 1.106 0 .287.11.564.307.774l19.59 29.12a2.543 2.543 0 0 0 2.56 1l15.58-4.08c.521-.114.896-.58.896-1.114 0-.283-.106-.556-.296-.766l-19.59-29.12a2.543 2.543 0 0 0 -2.57-1.07zm20.56 29.52c.52.77.3 1.56-.48 1.76l-13.94 3.72a2.343 2.343 0 0 1 -2.34-1l-18.24-27.13c-1.05-1.56-.47-1.81.31-2l2.8-.74a.591.591 0 0 1 .54.3l.06.09c.33.48.62.4 1 .31l6.46-1.72c.36-.1.65-.18.33-.66l-.06-.09c-.14-.21-.13-.41 0-.46l2.79-.74c.78-.21 1.55-.17 2.51 1.26z" fill="#263238"/><path d="m318.65 138.2-.05.01" fill="none"/><path d="m318.32 108.33 18.25 27.12c.52.77.3 1.56-.48 1.76l-13.94 3.72a2.343 2.343 0 0 1 -2.34-1l-18.25-27.13c-1.05-1.56-.47-1.81.31-2l2.8-.74a.591.591 0 0 1 .54.3l.06.09c.33.48.62.4 1 .31l6.46-1.72c.36-.1.65-.18.33-.66l-.06-.09c-.14-.21-.13-.41 0-.46l2.79-.74c.8-.23 1.57-.19 2.53 1.24z" fill="#fff"/><path d="m318.32 108.33 1.63 2.41-16.76 4.47-1.63-2.41c-1.05-1.56-.47-1.81.31-2l2.8-.74a.591.591 0 0 1 .54.3l.06.09c.33.48.62.4 1 .31l6.46-1.72c.36-.1.65-.18.33-.66l-.06-.09c-.14-.21-.13-.41 0-.46l2.79-.74c.8-.23 1.57-.19 2.53 1.24z" fill="#5fd48e"/><g fill="#fff"><path d="m304.59 110.78a.48.48 0 0 0 -.33 0 .24.24 0 0 0 -.19.17c-.025.088 0 0 0 0a.165.165 0 0 1 0-.07l.09-.06h.37z"/><path d="m304.19 111h-.06a.18.18 0 0 1 .12-.12.373.373 0 0 1 .31 0v.05a.345.345 0 0 0 -.22 0 .183.183 0 0 0 -.15.07z"/><path d="m304.53 111a.14.14 0 0 0 -.11 0 .105.105 0 0 0 -.07 0h-.07c.01 0 .13-.07.25 0zm-.05.07v.05c0 .05-.05 0-.06 0s0 0 0 0 .05-.06.06-.05zm-2.48.48a.09.09 0 0 1 .05-.13.211.211 0 0 1 .18.07c0 .06 0 .12-.05.13a.171.171 0 0 1 -.18-.07zm.36-.09c0-.06 0-.12.05-.13a.171.171 0 0 1 .18.07.08.08 0 0 1 .033.065.08.08 0 0 1 -.033.065.19.19 0 0 1 -.23-.07zm.35-.09c0-.06 0-.12.05-.13a.171.171 0 0 1 .18.07.09.09 0 0 1 -.05.13.211.211 0 0 1 -.18-.07zm.35-.1a.08.08 0 0 1 .05-.13.211.211 0 0 1 .18.07c0 .06 0 .12-.05.13a.171.171 0 0 1 -.18-.07zm.35-.09v-.13a.171.171 0 0 1 .18.07.08.08 0 0 1 -.05.13.19.19 0 0 1 -.13-.07zm13.16-3.25-.9.24-.26-.38.91-.24zm-.88.19.81-.22-.2-.3-.81.22z"/><path d="m316.12 107.68-.59.15.17.26.58-.16zm.48.14-.09.02-.13-.2.08-.02zm-12.43 6.08-.78-.29.22-.56.12.06-.17.45.64.24zm13.41-3.81-.84.23-.72-.71h-.09v-.07h.14l.14.14 1.16-.31zm-.83.15.73-.2-.2-.59-1 .28z"/><path d="m317.52 110.25-.14-.11-.47.13.04.14-.08-.01-.05-.18.57-.15.18.14zm-.15-.65-1.04.28-.04-.07 1.04-.27zm.07.18-.95.24-.04-.06.94-.25zm.06.17-.86.23-.04-.07.85-.22z"/><path d="m317.17 110.17-.07.02-.41-.62.07-.02zm.13-.04-.07.02-.36-.63.07-.01zm.14-.03-.08.01-.29-.65h.08zm-.47.12-.46-.6.06-.02.47.6zm-.13.04-.53-.58.06-.03.53.58zm.78.08a.181.181 0 0 1 -.18-.08.08.08 0 0 1 -.033-.065.08.08 0 0 1 .033-.065.18.18 0 0 1 .18.07.09.09 0 0 1 0 .14zm-.1-.15a.05.05 0 0 0 .07 0c.019-.019 0 0 0 0a.078.078 0 0 0 -.07 0zm-.52.32a.2.2 0 0 1 -.19-.08.088.088 0 0 1 -.028-.065c0-.025.01-.048.028-.065a.192.192 0 0 1 .18.07.09.09 0 0 1 .039.074.092.092 0 0 1 -.029.066zm-.1-.14h.06a.06.06 0 0 0 -.08 0z"/></g><path d="m317.47 109.12c.1.16 0 .32-.12.36a.471.471 0 0 1 -.49-.19c-.1-.16-.05-.32.12-.36a.471.471 0 0 1 .49.19z" fill="#455a64"/><path d="m317.1 109 .21.31h-.06l-.17-.26h-.08v-.05zm-7.35 2.9a.2.2 0 0 1 .11-.32.45.45 0 0 1 .2 0c.066.015.05 0 .05 0a.059.059 0 0 1 -.06 0 .223.223 0 0 0 -.14 0 .163.163 0 0 0 -.1.08.18.18 0 0 0 0 .14.368.368 0 0 0 .14.1.29.29 0 0 0 .16 0 .15.15 0 0 0 .1-.07.059.059 0 0 1 .06 0c.019.011 0 0 0 .06a.258.258 0 0 1 -.14.1.439.439 0 0 1 -.38-.09zm.93-.1h-.18v.1a.07.07 0 0 1 -.06 0l-.1-.44a.07.07 0 0 1 .06 0l.42.35v.06zm-.08-.06-.15-.13v.16zm.67-.03v.05l-.07-.07h-.29l.1.14a.105.105 0 0 1 -.07 0l-.26-.39v-.05h.13a.23.23 0 0 1 .25.1.14.14 0 0 1 0 .12.234.234 0 0 1 .07.07zm-.28-.24a.122.122 0 0 0 -.12 0h-.09l.09.14h.09s.04-.1.04-.14zm.48-.21h-.12l.24.36a.07.07 0 0 1 -.06 0l-.24-.36h-.18l.32-.08c.12 0 .06.07.04.08zm-1.47-2.26-1.76.47a.191.191 0 0 1 -.17-.07v-.13l1.76-.47a.171.171 0 0 1 .18.07.09.09 0 0 1 -.01.13z" fill="#fff"/><path d="m321.36 112.84-16.76 4.47-1.41-2.1 16.76-4.47zm6.2 9.22-16.76 4.47-1.41-2.1 16.76-4.46zm2.66 3.95-16.77 4.47-.36-.55 16.76-4.47zm-15.47-4.96-4.85 1.29-2.96-4.4 4.85-1.29z" fill="#ebebeb"/><path d="m310.58 118.28-.2.06-.18-.27a1.14 1.14 0 0 0 -.34 0 .618.618 0 0 0 -.18.18l.18.27h-.21l-.2-.31c-.09-.13.22-.36.28-.38s.56 0 .65.13z" fill="#37474f"/><path d="m313.36 120.94-2.62.69s-.62-.91-.95-1.48-.76-1.6.24-1.87 1.87.64 2.3 1.19a26.9 26.9 0 0 1 1.03 1.47z" fill="#5fd48e"/><path d="m312.89 120.82-1.96.52-.7-1.04 1.97-.52z" fill-opacity=".1"/><path d="m312.4 120.08-1.97.52-.02-.04 1.96-.52z" fill="#5fd48e"/><path d="m310.88 119.02-.12.35-.47-.19.11-.35z" fill="#a6a6a6"/><path d="m305.42 115.54.29.43zm.43.05h-.05l.16.24a.11.11 0 0 1 -.1 0l-.24-.36.08.12s.15-.01.15 0zm.22.11a.119.119 0 0 1 -.042-.091c0-.059.044-.11.102-.119a.32.32 0 0 1 .28.11c.069.081 0 0 0 0l-.29.08a.22.22 0 0 0 .22.09.09.09 0 0 0 .08-.09c0-.046 0 0 0 0a.13.13 0 0 1 -.1.11.27.27 0 0 1 -.25-.09zm0 0 .27-.07a.212.212 0 0 0 -.21-.07c-.05-.02-.07.04-.04.11zm.93-.29a.171.171 0 0 0 -.18-.07c-.06 0-.08.07-.05.13l.12.18-.12-.18a.171.171 0 0 0 -.18-.07c-.06 0-.08.07-.05.13l.12.18-.12-.18-.08-.11s0-.06.08-.07a.21.21 0 0 1 .17 0 .1.1 0 0 1 .09-.1.211.211 0 0 1 .23.09l.12.18zm.28.08a.33.33 0 0 0 .14 0 .07.07 0 0 0 .06 0 .122.122 0 0 0 -.06 0h-.19l-.08-.05a.06.06 0 0 1 0-.08c.02-.023 0 0 .07 0h.13a.205.205 0 0 0 -.11 0h-.06.09a.405.405 0 0 1 .11 0c.032.011.06.032.08.06a.07.07 0 0 1 -.07.07.211.211 0 0 1 -.16 0zm.45-.38.2.29zm.54-.03a.171.171 0 0 0 -.18-.07.08.08 0 0 0 -.033.065c0 .026.012.05.033.065l.12.18-.12-.18-.08-.11a.1.1 0 0 1 .08-.07.25.25 0 0 1 .24.09l.12.18zm.41-.08a.141.141 0 0 1 -.028-.084.14.14 0 0 1 .108-.136.206.206 0 0 1 .13 0c.042.014 0 0 0 0h-.11a.12.12 0 0 0 -.089.116.12.12 0 0 0 .019.064.25.25 0 0 0 .24.09.155.155 0 0 0 .08 0c.026-.007 0 0 0 0a.151.151 0 0 1 -.09.06.29.29 0 0 1 -.26-.11zm.65-.34.2.29s0 .08-.09.1a.29.29 0 0 1 -.28-.12c-.06-.09 0-.19.06-.21a.243.243 0 0 1 .18 0c.058.023 0 0 0 0zm.06.16a.211.211 0 0 0 -.22-.1c-.07 0-.1.09-.05.17a.231.231 0 0 0 .23.09c.07.02.09-.09.04-.16zm.09-.2.05.07a.12.12 0 0 1 .09-.12c-.05 0-.06 0-.07.08a.18.18 0 0 0 0 .08l.1.14zm.45-.12h-.05l.16.24a.119.119 0 0 1 -.11 0l-.24-.36.08.12zm3.19 13.23.26-.07-.24.07.12.18h.22l-.22.06.13.18.24-.07-.27.07zm.88.08a.19.19 0 0 0 -.18-.08.08.08 0 0 0 -.033.065c0 .026.012.05.033.065l.12.18-.12-.18-.08-.11s0-.07.08-.08c.09-.021.184.02.23.1l.12.17zm.22-.21.16.23a.09.09 0 0 1 -.1 0l-.16-.23h-.07.05l-.08-.12.08.12zm.21.12a.127.127 0 0 1 -.03-.083.13.13 0 0 1 .1-.127.25.25 0 0 1 .27.11c.057.091 0 0 0 0l-.3.08a.25.25 0 0 0 .23.09.11.11 0 0 0 .07-.1c.001-.044 0 0 0 0a.12.12 0 0 1 -.09.12.3.3 0 0 1 -.25-.09zm0 0 .28-.07a.221.221 0 0 0 -.21-.07.102.102 0 0 0 -.05.1zm.36-.27.05.07a.12.12 0 0 1 .09-.12c-.05 0-.06 0-.07.08a.272.272 0 0 0 0 .09l.1.15zm.65.01-.09-.14a.11.11 0 0 1 .09-.1.29.29 0 0 1 .28.12c.06.09 0 .18-.06.21a.291.291 0 0 1 -.18 0l.12.19zm0 0a.24.24 0 0 0 .23.1.11.11 0 0 0 .05-.17.24.24 0 0 0 -.23-.1.111.111 0 0 0 -.04.085c0 .033.015.064.04.085zm.38-.28.05.07a.11.11 0 0 1 .09-.12c.057-.01 0 0 0 0s-.06 0-.07.08a.676.676 0 0 0 0 .09l.1.14zm.45-.18a.28.28 0 0 1 .28.11c.06.09 0 .19-.06.21a.29.29 0 0 1 -.28-.11c-.06-.05-.03-.15.06-.21zm.2.29c.07 0 .1-.09 0-.17a.231.231 0 0 0 -.23-.09c-.07 0-.09.09 0 .17a.22.22 0 0 0 .23.13zm.72-.29a.19.19 0 0 0 -.19-.07c-.06 0-.08.07 0 .13l.12.18-.12-.18a.171.171 0 0 0 -.18-.07c-.07 0-.08.07-.05.13l.12.18-.12-.18-.08-.11s0-.06.08-.07a.21.21 0 0 1 .17 0 .1.1 0 0 1 .08-.1.25.25 0 0 1 .24.09l.12.18zm.24-.27a.3.3 0 0 1 .29.11c0 .09 0 .19-.07.21a.29.29 0 0 1 -.28-.11c-.06-.09-.03-.19.06-.21zm.2.29c.08 0 .1-.09.05-.17a.22.22 0 0 0 -.22-.09c-.08 0-.1.09 0 .17a.22.22 0 0 0 .17.07zm.42-.26a.13.13 0 0 1 .07-.22.223.223 0 0 1 .14 0c.046.015 0 0 0 0h-.12a.11.11 0 0 0 -.06.18.25.25 0 0 0 .24.09.105.105 0 0 0 .07 0c.023-.008 0 0 0 0l-.09.06a.282.282 0 0 1 -.25-.11zm.48-.32a.27.27 0 0 1 .28.11c.06.09 0 .19-.06.21a.26.26 0 0 1 -.28-.12c-.06-.08-.04-.18.06-.2zm.19.29c.08 0 .1-.09 0-.17a.22.22 0 0 0 -.22-.09c-.08 0-.1.09-.05.17a.22.22 0 0 0 .27.09zm.58-.19a.121.121 0 0 1 -.1.1.278.278 0 0 1 -.28-.12.13.13 0 0 1 .06-.21.278.278 0 0 1 .18 0l-.12-.19.19.28.1.15zm-.06-.09a.231.231 0 0 0 -.23-.09c-.07 0-.09.09 0 .16a.211.211 0 0 0 .22.1.1.1 0 0 0 .01-.17zm.15-.05a.127.127 0 0 1 -.03-.083.13.13 0 0 1 .1-.127.26.26 0 0 1 .27.1l-.3.07a.231.231 0 0 0 .23.09.09.09 0 0 0 .07-.09c-.001-.043 0 0 0 0a.11.11 0 0 1 -.09.11.28.28 0 0 1 -.25-.07zm0 0 .28-.07a.221.221 0 0 0 -.21-.07.102.102 0 0 0 -.05.1z"/><path d="m319 136.49-.21-.46h.12a.102.102 0 0 1 .09 0 .184.184 0 0 1 .07.05.109.109 0 0 1 0 .12h.08a.181.181 0 0 1 .08.07.12.12 0 0 1 -.08.17h-.15zm.06-.28h-.15l.1.23h.14a.11.11 0 0 0 .07-.15.151.151 0 0 0 -.16-.08zm-.16 0h.1a.09.09 0 0 0 .07-.088.087.087 0 0 0 -.01-.042.1.1 0 0 0 -.13-.05h-.11zm.61-.21.09.19v.12c.01.02.016.042.016.064 0 .064-.044.12-.106.136a.13.13 0 0 0 .09-.18v-.05a.12.12 0 0 1 -.09.1.14.14 0 0 1 -.11 0 .164.164 0 0 1 -.08-.06l-.08-.19.08.19a.16.16 0 0 0 .17.06.11.11 0 0 0 .07-.15l-.05-.1zm.49-.12h-.06l.12.27h.05a.07.07 0 0 1 -.08 0l-.12-.26h-.06.06l-.07-.13.06.14h.06zm.29.23a.387.387 0 0 1 -.1-.08.14.14 0 0 1 .08-.21.206.206 0 0 1 .13 0h.06v-.08l.07.15.08.16v-.08a.14.14 0 0 1 -.1.13.2.2 0 0 1 -.22.01zm-.08-.09a.18.18 0 0 0 .2.08c.08 0 .11-.1.07-.19s0 0 0 0a.192.192 0 0 0 -.2-.08.12.12 0 0 0 -.089.116.12.12 0 0 0 .019.064zm.37-.3v.07a.15.15 0 0 1 .11-.12.206.206 0 0 1 .13 0 .189.189 0 0 1 .1.08c.023.037 0 0 0 0a.144.144 0 0 1 .021.073.141.141 0 0 1 -.111.137.244.244 0 0 1 -.12 0 .184.184 0 0 1 -.07-.05l.11.24-.14-.31-.07-.15zm.07.15a.2.2 0 0 0 .2.08.13.13 0 0 0 .08-.19.2.2 0 0 0 -.2-.08.13.13 0 0 0 -.08.19zm.35-.26v.07a.12.12 0 0 1 .11-.12.127.127 0 0 1 .12 0 .211.211 0 0 1 .11.08c.027.038 0 0 0 0a.15.15 0 0 1 -.09.21.206.206 0 0 1 -.13 0h-.06l.1.24-.13-.31-.08-.15s.05-.03.05-.02zm.08.15a.2.2 0 0 0 .2.08.13.13 0 0 0 .08-.19c-.011-.02 0 0 0 0a.2.2 0 0 0 -.2-.08.13.13 0 0 0 -.09.19zm.48.04-.14-.31zm.38-.31a.152.152 0 0 0 -.16-.06.1.1 0 0 0 -.07.15l.08.19-.08-.19-.06-.13v.06a.121.121 0 0 1 .1-.1.17.17 0 0 1 .1 0c.038.011.07.036.09.07l.09.19zm.44.26a.14.14 0 0 0 .09-.18v-.07a.12.12 0 0 1 -.1.12.128.128 0 0 1 -.12 0 .163.163 0 0 1 -.1-.08.15.15 0 0 1 .09-.21.244.244 0 0 1 .12 0h.07v-.08l.07.16.07.14a.138.138 0 0 1 .028.083.141.141 0 0 1 -.218.117zm0-.34a.17.17 0 0 0 -.19-.08.13.13 0 0 0 -.08.19c.011.02 0 0 0 0a.2.2 0 0 0 .2.08.13.13 0 0 0 .08-.19zm.42-.29h-.06l.12.26a.05.05 0 0 0 .05 0c.015-.009 0 0 0 0a.081.081 0 0 1 -.08 0l-.12-.27h-.06l-.06-.14.06.14h.06zm.2.09-.12-.27.09.2a.11.11 0 0 1 .09-.1.14.14 0 0 1 .11 0c.032.011.06.032.08.06l.09.19-.09-.19a.161.161 0 0 0 -.16-.07.11.11 0 0 0 -.07.16l.09.19zm.39-.07a.144.144 0 0 1 -.021-.073c0-.066.047-.123.111-.137a.166.166 0 0 1 .12 0c.042.018.08.046.11.08l-.31.09a.2.2 0 0 0 .2.08.16.16 0 0 0 .1-.1c.016-.047 0 0 0 0a.141.141 0 0 1 -.11.11.206.206 0 0 1 -.13 0 .189.189 0 0 1 -.1-.08zm0 0 .29-.08a.192.192 0 0 0 -.2-.08.121.121 0 0 0 -.08.14zm.61-.14a.151.151 0 0 1 -.014-.062c0-.073.053-.135.124-.148a.193.193 0 0 1 .13 0c.042.015 0 0 0 0a.205.205 0 0 0 -.11 0 .15.15 0 0 0 -.111.145.15.15 0 0 0 .011.055.19.19 0 0 0 .21.08.151.151 0 0 0 .09-.06.183.183 0 0 1 -.1.07.206.206 0 0 1 -.13 0 .232.232 0 0 1 -.11-.08zm.43-.17-.13-.27.09.2a.12.12 0 0 1 .09-.1h.11a.214.214 0 0 1 .09.07l.09.19-.09-.19a.15.15 0 0 0 -.16-.07.11.11 0 0 0 -.07.16l.08.19zm.38-.07a.15.15 0 0 1 .09-.21.206.206 0 0 1 .13 0 .269.269 0 0 1 .1.08l-.31.09a.192.192 0 0 0 .2.08.141.141 0 0 0 .09-.11.13.13 0 0 1 -.1.11.206.206 0 0 1 -.13 0 .163.163 0 0 1 -.1-.08zm0 0 .3-.08a.2.2 0 0 0 -.21-.08.13.13 0 0 0 -.08.14zm.42-.11a.151.151 0 0 1 -.014-.062c0-.073.053-.135.124-.148a.193.193 0 0 1 .13 0c.042.015 0 0 0 0a.205.205 0 0 0 -.11 0 .15.15 0 0 0 -.111.145.15.15 0 0 0 .011.055.19.19 0 0 0 .21.08.151.151 0 0 0 .09-.06.183.183 0 0 1 -.1.07.206.206 0 0 1 -.13 0 .312.312 0 0 1 -.11-.08zm.61-.34-.08.18.22.13-.22-.12-.05.1v.08l-.21-.46.16.35.13-.28zm.48.05a.15.15 0 0 1 -.09.21.206.206 0 0 1 -.13 0 .387.387 0 0 1 -.1-.08c-.029-.032 0 0 0 0a.14.14 0 0 1 .08-.21.193.193 0 0 1 .13 0 .269.269 0 0 1 .1.08zm0 0a.19.19 0 0 0 -.19-.09.13.13 0 0 0 -.102.127c0 .026.007.051.022.073a.21.21 0 0 0 .2.09.14.14 0 0 0 .08-.2zm.3-.26.09.19a.12.12 0 0 1 -.08.17h-.11a.283.283 0 0 1 -.08-.07l-.09-.19.09.19a.16.16 0 0 0 .16.06.11.11 0 0 0 .07-.15l-.09-.19zm.25-.1h-.06l.12.27h.06a.07.07 0 0 1 -.08 0l-.12-.26h-.07.06l-.06-.13.07.14h.05zm.58.24-.07-.16-.14-.31.1.23a.14.14 0 0 1 .11-.13.206.206 0 0 1 .13 0 .163.163 0 0 1 .1.08.15.15 0 0 1 -.1.21.166.166 0 0 1 -.12 0h-.07v.08zm-.05-.16a.192.192 0 0 0 .2.08.13.13 0 0 0 .09-.19.2.2 0 0 0 -.2-.08.14.14 0 0 0 -.09.19zm.6-.35.09.19a.131.131 0 0 1 -.08.17.14.14 0 0 1 -.11 0 .181.181 0 0 1 -.08-.07c-.019-.031 0 0 0 0l-.08-.19.08.19a.14.14 0 0 0 .16.06.11.11 0 0 0 .07-.15l-.09-.19zm.27-.07h-.06l.12.26a.05.05 0 0 0 .05 0c.015-.009 0 0 0 0a.07.07 0 0 1 -.08 0l-.12-.27h-.06.06l-.06-.14.06.13h.07zm.24-.06h-.06l.12.27h.05a.07.07 0 0 1 -.08 0l-.12-.26h-.06.06l-.06-.13.06.14h.06zm.49.04a.15.15 0 0 1 -.09.21.285.285 0 0 1 -.13 0 .278.278 0 0 1 -.1-.09c0-.1 0-.19.08-.21a.193.193 0 0 1 .13 0 .163.163 0 0 1 .1.08zm0 0a.18.18 0 0 0 -.19-.08.13.13 0 0 0 -.07.19.192.192 0 0 0 .2.08.13.13 0 0 0 .08-.19zm.4-.14a.152.152 0 0 0 -.16-.06.11.11 0 0 0 -.08.15l.09.19-.08-.19-.06-.12v.06a.14.14 0 0 1 .1-.1.17.17 0 0 1 .1 0c.038.011.07.036.09.07l.09.19zm.6-.29.08.19.06.12a.14.14 0 0 1 -.1.2h-.08a.078.078 0 0 0 .07 0 .13.13 0 0 0 .09-.18v-.05a.12.12 0 0 1 -.09.1.14.14 0 0 1 -.11 0 .178.178 0 0 1 -.09-.06l-.08-.19.09.19a.17.17 0 0 0 .16.07.11.11 0 0 0 .07-.16v-.19zm.49.04a.15.15 0 0 1 -.09.21.206.206 0 0 1 -.13 0 .387.387 0 0 1 -.1-.08.14.14 0 0 1 .08-.21.206.206 0 0 1 .13 0 .163.163 0 0 1 .1.08zm0 0a.171.171 0 0 0 -.19-.09.13.13 0 0 0 -.07.19c.012.02 0 0 0 0a.192.192 0 0 0 .2.08.13.13 0 0 0 .08-.19zm.3-.25.09.19a.12.12 0 0 1 -.08.17.205.205 0 0 1 -.11 0 .283.283 0 0 1 -.08-.07l-.09-.19.09.19a.15.15 0 0 0 .16.07.11.11 0 0 0 .07-.15l-.09-.19zm.52.17a.387.387 0 0 1 -.1-.08.14.14 0 0 1 .08-.21.206.206 0 0 1 .13 0h.06v-.08l.07.15.08.16v-.08a.14.14 0 0 1 -.1.13.2.2 0 0 1 -.22.01zm-.08-.09a.18.18 0 0 0 .2.08.13.13 0 0 0 .08-.18.18.18 0 0 0 -.2-.08c-.08 0-.11.1-.07.19zm.71.12a.12.12 0 0 0 .06-.2v-.07a.14.14 0 0 1 -.1.13.285.285 0 0 1 -.13 0 .278.278 0 0 1 -.1-.09.14.14 0 0 1 .08-.21.206.206 0 0 1 .13 0h.06v-.09l.08.16.06.15c.038.024.06.065.06.11a.13.13 0 0 1 -.2.11zm0-.34a.2.2 0 0 0 -.2-.08.13.13 0 0 0 -.07.19.2.2 0 0 0 .2.08.14.14 0 0 0 .13-.19zm.11-.2.05.11v-.05a.169.169 0 0 1 .1-.12c-.09 0-.1.12-.1.17l.07.15-.14-.32zm.31.09a.139.139 0 0 1 -.02-.071c0-.07.052-.129.12-.139a.166.166 0 0 1 .12 0 .211.211 0 0 1 .11.08l-.31.08a.18.18 0 0 0 .2.08.11.11 0 0 0 .09-.1.15.15 0 0 1 -.11.11.206.206 0 0 1 -.13 0 .269.269 0 0 1 -.1-.08zm0 0 .29-.08a.191.191 0 0 0 -.2-.09.13.13 0 0 0 -.07.15zm.44-.12a.15.15 0 0 1 .09-.21.285.285 0 0 1 .13 0c.04.021.074.052.1.09l-.31.09a.2.2 0 0 0 .2.08.14.14 0 0 0 .1-.1.138.138 0 0 1 -.1.11.148.148 0 0 1 -.13 0 .211.211 0 0 1 -.11-.08zm0 0 .3-.08a.18.18 0 0 0 -.2-.08.13.13 0 0 0 -.09.14zm-13.36 4.3h-.06l.12.26h.06a.06.06 0 0 1 -.07 0l-.12-.26h-.08.06l-.06-.14.07.13h.07zm.56.07a.15.15 0 0 1 -.09.21.166.166 0 0 1 -.12 0 .163.163 0 0 1 -.1-.08.15.15 0 0 1 .09-.21.244.244 0 0 1 .12 0c.042.019.077.05.1.09zm0 0a.2.2 0 0 0 -.2-.08.13.13 0 0 0 -.08.19.2.2 0 0 0 .2.08.13.13 0 0 0 .08-.19c-.011-.02-.08 0-.08 0zm.31-.3h-.06l.12.26a.05.05 0 0 0 .05 0c.015-.009 0 0 0 0a.06.06 0 0 1 -.08 0l-.12-.27h-.06.05l-.06-.14.06.13h.07zm.2.09-.12-.27.09.2a.11.11 0 0 1 .09-.1.14.14 0 0 1 .11 0c.032.011.06.032.08.06l.09.19-.09-.19a.161.161 0 0 0 -.16-.07.11.11 0 0 0 -.07.16l.09.19zm.39-.07a.144.144 0 0 1 -.021-.073c0-.066.047-.123.111-.137a.22.22 0 0 1 .23.1l-.31.09a.2.2 0 0 0 .2.08.16.16 0 0 0 .1-.1.13.13 0 0 1 -.11.11.148.148 0 0 1 -.13 0 .189.189 0 0 1 -.1-.08zm0 0 .3-.08a.18.18 0 0 0 -.2-.08.121.121 0 0 0 -.09.14zm.83-.04-.21-.45h-.16l.35-.1h-.17l.21.45zm.18-.23a.15.15 0 0 1 .09-.21.285.285 0 0 1 .13 0c.042.019.077.05.1.09l-.31.09a.211.211 0 0 0 .21.08.15.15 0 0 0 .09-.1.12.12 0 0 1 -.1.11.148.148 0 0 1 -.13 0 .163.163 0 0 1 -.1-.08c-.021-.039.02.03.02.02zm0 0 .3-.08a.18.18 0 0 0 -.2-.08.13.13 0 0 0 -.09.14zm.36-.27.05.11a.12.12 0 0 1 .1-.12c-.09 0-.1.12-.1.17l.08.16-.15-.32zm.88-.09a.171.171 0 0 0 -.15-.09.11.11 0 0 0 -.07.15l.09.19-.09-.19a.15.15 0 0 0 -.16-.07.11.11 0 0 0 -.07.15l.09.19-.09-.19-.06-.12v.05a.118.118 0 0 1 .09-.09h.11l.06.05v-.01a.11.11 0 0 1 .1-.11.205.205 0 0 1 .11 0 .283.283 0 0 1 .08.07l.08.19zm.18.1a.223.223 0 0 0 .14 0c.045-.015 0 0 .06 0a.1.1 0 0 0 -.05-.06h-.19s-.05 0-.06-.05 0-.1.08-.11a.244.244 0 0 1 .12 0 .205.205 0 0 0 -.11 0h-.06v.06h.19a.11.11 0 0 1 .07.06c0 .05 0 .1-.09.12a.379.379 0 0 1 -.15 0zm.84-.34a.15.15 0 0 1 -.09.21.206.206 0 0 1 -.13 0 .387.387 0 0 1 -.1-.08.14.14 0 0 1 .08-.21.206.206 0 0 1 .13 0 .269.269 0 0 1 .1.08zm0 0a.202.202 0 0 0 -.2-.09c-.08 0-.11.1-.07.19a.21.21 0 0 0 .2.09.14.14 0 0 0 .08-.2zm.08-.36v.07h.07-.06l.14.31-.14-.31h-.07.06v-.05a.11.11 0 0 1 0-.08.059.059 0 0 1 .06 0c.019.011-.06.06-.06.06zm.51.18a.21.21 0 0 0 .24.09.15.15 0 0 0 .1-.22l-.12-.28.13.28a.17.17 0 0 1 -.11.24.256.256 0 0 1 -.15 0 .231.231 0 0 1 -.12-.1c-.027-.046 0 0 0 0l-.13-.28zm.61-.02c.043.01.087.01.13 0h.07a.07.07 0 0 0 0-.06h-.1a.272.272 0 0 1 -.09 0 .102.102 0 0 1 -.06 0c0-.05 0-.1.08-.12a.244.244 0 0 1 .12 0 .205.205 0 0 0 -.11 0 .088.088 0 0 0 -.06 0c-.019.007 0 0 0 0h.19a.184.184 0 0 1 .07.05c.019.022 0 .11-.09.13a.256.256 0 0 1 -.15 0zm.28-.2a.15.15 0 0 1 .09-.21.285.285 0 0 1 .13 0c.042.019.077.05.1.09l-.31.08a.192.192 0 0 0 .2.08.11.11 0 0 0 .09-.1c.004-.05 0 0 0 0a.15.15 0 0 1 -.11.12.285.285 0 0 1 -.13 0 .218.218 0 0 1 -.1-.09zm0 0 .3-.08a.2.2 0 0 0 -.2-.08.141.141 0 0 0 -.09.14zm.75-.05a.409.409 0 0 1 -.1-.09.144.144 0 0 1 -.016-.064c0-.064.044-.12.106-.136a.166.166 0 0 1 .12 0h.06v-.09l.14.32v-.08a.14.14 0 0 1 -.1.13.293.293 0 0 1 -.21.01zm-.08-.09a.2.2 0 0 0 .2.08.13.13 0 0 0 .08-.19.18.18 0 0 0 -.19-.08.13.13 0 0 0 -.08.19zm.68-.25a.161.161 0 0 0 -.16-.07.11.11 0 0 0 -.07.16l.09.19-.09-.19-.06-.13v.06a.1.1 0 0 1 .09-.1.117.117 0 0 1 .1 0c.036.008.069.03.09.06l.09.19zm.26.11a.269.269 0 0 1 -.1-.08.15.15 0 0 1 .09-.21.206.206 0 0 1 .13 0h.07l-.11-.23.21.46v-.08a.16.16 0 0 1 -.11.13.2.2 0 0 1 -.18.01zm-.09-.09a.2.2 0 0 0 .21.08.13.13 0 0 0 .08-.19.2.2 0 0 0 -.21-.09.14.14 0 0 0 -.08.2c.011.02 0-.01 0 0zm.83-.08-.2-.46h.15a.117.117 0 0 1 .1 0c.032.011.06.032.08.06a.12.12 0 0 1 -.08.17h-.14l.09.2zm-.08-.23h.14a.11.11 0 0 0 .07-.15.17.17 0 0 0 -.16-.07h-.14zm.32-.18.05.11a.15.15 0 0 1 .1-.12c.053-.018 0 0 0 0s-.09.13-.09.17l.07.16-.14-.32zm.44.23-.15-.31.15.31s0 .01 0 0zm.32-.42v.35l-.29-.28.26.26v-.33zm.26.23a.189.189 0 0 1 -.1-.08c-.023-.037 0 0 0 0a.14.14 0 0 1 .08-.21.206.206 0 0 1 .13 0h.06v-.09l.07.16.08.15v-.08a.12.12 0 0 1 -.1.12.15.15 0 0 1 -.22.03zm-.08-.08a.2.2 0 0 0 .2.08.142.142 0 0 0 .093-.132c0-.02-.005-.04-.013-.058a.18.18 0 0 0 -.19-.08.13.13 0 0 0 -.07.19c.012.02-.02-.01-.02 0zm.4-.14a.139.139 0 0 1 -.02-.071c0-.07.052-.129.12-.139a.193.193 0 0 1 .13 0 .166.166 0 0 0 -.12 0 .141.141 0 0 0 -.106.136c0 .022.006.044.016.064.05.069.137.1.22.08a.164.164 0 0 0 .08-.06.154.154 0 0 1 -.09.07.223.223 0 0 1 -.14 0l-.11-.08zm.62-.34.09.19v.11c.01.02.016.042.016.064 0 .064-.044.12-.106.136a.13.13 0 0 0 .08-.19.15.15 0 0 1 -.09.1.205.205 0 0 1 -.11 0 .181.181 0 0 1 -.08-.07c-.019-.031 0 0 0 0l-.09-.19.09.19a.14.14 0 0 0 .16.06.11.11 0 0 0 .07-.15v-.19zm.55.2-.21-.46h.15a.17.17 0 0 1 .1 0c.038.011.07.036.09.07a.12.12 0 0 1 -.08.17h-.14l.1.21zm-.08-.22h.13a.1.1 0 0 0 .07-.15.152.152 0 0 0 -.16-.06h-.14zm.7-.12a.15.15 0 0 1 -.09.21.166.166 0 0 1 -.12 0 .269.269 0 0 1 -.1-.08.15.15 0 0 1 .09-.21.166.166 0 0 1 .12 0c.043.017.08.045.11.08s-.01-.01-.01 0zm0 0a.21.21 0 0 0 -.2-.09.13.13 0 0 0 -.08.19c.011.02 0 0 0 0a.17.17 0 0 0 .19.08.13.13 0 0 0 .08-.19zm.01-.34.21.46zm.36.41-.14-.32.14.31zm.08-.19a.139.139 0 0 1 -.02-.071c0-.07.052-.129.12-.139h.13a.244.244 0 0 0 -.12 0 .141.141 0 0 0 -.106.136c0 .022.006.044.016.064.05.069.137.1.22.08a.1.1 0 0 0 .08-.06.13.13 0 0 1 -.09.07.223.223 0 0 1 -.14 0 .202.202 0 0 1 -.1-.08zm.62-.34.09.19.05.11a.15.15 0 0 1 -.09.21.12.12 0 0 0 .08-.18v-.05c0 .05 0 .08-.09.1a.227.227 0 0 1 -.11 0 .181.181 0 0 1 -.08-.07c-.019-.031 0 0 0 0l-.09-.19.09.19a.14.14 0 0 0 .16.06.1.1 0 0 0 .07-.15l-.05-.1v-.09z" fill="#a6a6a6"/><path d="m311.74 122.78a.151.151 0 0 0 -.09-.06h-.2l.12.19-.3-.44h.15a.231.231 0 0 1 .23.09c.04.06.04.11 0 .15a.2.2 0 0 1 .14.09h-.06zm-.32-.3h-.13l.14.2h.12c.06 0 .08-.07 0-.13a.212.212 0 0 0 -.13-.07zm.45.2a.13.13 0 0 1 .06-.21.29.29 0 0 1 .28.11c.065.086 0 0 0 0l-.29.08a.22.22 0 0 0 .22.09.09.09 0 0 0 .08-.09c0-.046 0 0 0 0a.13.13 0 0 1 -.1.11.28.28 0 0 1 -.25-.09zm0 0 .27-.08a.27.27 0 0 0 -.21-.07c-.04.025-.057.076-.04.12zm.97-.29a.171.171 0 0 0 -.18-.07c-.06 0-.08.07 0 .13l.12.18-.12-.18a.171.171 0 0 0 -.18-.07c-.06 0-.08.07 0 .13l.12.18-.12-.17-.08-.11s0-.06.08-.08a.218.218 0 0 1 .17 0 .1.1 0 0 1 .09-.1.211.211 0 0 1 .23.09l.12.18zm.25-.23a.29.29 0 0 1 .28.12c.06.09 0 .19-.06.21a.27.27 0 0 1 -.28-.12c-.03-.09-.03-.18.06-.21zm.2.3c.07 0 .09-.1 0-.17a.22.22 0 0 0 -.22-.09.1.1 0 0 0 -.05.16.221.221 0 0 0 .27.1zm.42-.08-.34-.26.29.23-.05-.29.06.33zm.15-.23a.127.127 0 0 1 -.03-.083.13.13 0 0 1 .1-.127.29.29 0 0 1 .28.11c.065.086 0 0 0 0l-.3.08a.231.231 0 0 0 .23.09.09.09 0 0 0 .07-.09.14.14 0 0 1 -.1.12.3.3 0 0 1 -.25-.1zm0 0 .28-.08a.215.215 0 0 0 -.14-.07l-.011-.001c-.06 0-.11.05-.11.11l.001.011z" fill="#5fd48e"/><path d="m320 114.51h.05a.33.33 0 0 1 .14 0c.046.01 0 .05 0 .05h-.12l.08.13c.13 0 .21 0 .25.1a.114.114 0 0 1 .021.064.111.111 0 0 1 -.081.106c-.047.013 0 0 0 0h-.05a.407.407 0 0 1 -.19 0c-.062-.015 0 0 0 0a.33.33 0 0 0 .14 0l-.09-.13a.251.251 0 0 1 -.25-.09c-.05-.07 0-.14.07-.17s-.03-.06.03-.06zm.12.23-.08-.12s-.05 0 0 .08-.04.04.04.04zm.13.08.08.12v-.08a.137.137 0 0 0 -.12-.04z"/><path d="m320.66 114.59a.269.269 0 0 1 .13.1.163.163 0 0 1 0 .13.177.177 0 0 1 -.1.09.31.31 0 0 1 -.16 0c-.052-.014-.05 0 0 0a.14.14 0 0 0 .15 0 .085.085 0 0 0 .05 0c.016-.005 0 0 0-.07a.155.155 0 0 0 -.08 0 .081.081 0 0 0 -.08 0c-.025.014-.05 0 0 0v-.09h-.12a.073.073 0 0 1 -.07 0c-.022-.012 0-.05 0-.05l.22-.06h.06v.11zm.67.01a.07.07 0 0 1 -.06 0l-.23.06.07-.38h.08l.19.27a.078.078 0 0 1 -.05.05zm-.27-.17v.2h.15zm-5.61 16.76.29.44zm.44.05h-.05l.16.24h.05a.1.1 0 0 1 -.1 0l-.16-.24h-.08l-.08-.13.08.13zm.21.12a.13.13 0 0 1 .06-.21.28.28 0 0 1 .28.11c.064.088 0 0 0 0l-.29.08a.22.22 0 0 0 .22.09c.05 0 .08 0 .08-.09s0 .09-.1.11a.28.28 0 0 1 -.25-.09zm0 0 .27-.08a.26.26 0 0 0 -.2-.07.1.1 0 0 0 -.05.12zm.97-.29a.171.171 0 0 0 -.18-.07c-.06 0-.08.07 0 .13l.12.18-.12-.18a.19.19 0 0 0 -.18-.08.09.09 0 0 0 0 .14l.12.17-.12-.17-.08-.11s0-.06.08-.08a.243.243 0 0 1 .18 0c.058.023 0-.09.08-.11.09-.021.184.02.23.1l.13.18zm.38-.39h-.15l.34-.09h-.16l.28.42zm.47 0a.29.29 0 0 1 .28.12c.06.09 0 .19-.06.21a.27.27 0 0 1 -.28-.12c-.06-.09-.04-.18.06-.21zm.2.3c.07 0 .09-.1 0-.17a.22.22 0 0 0 -.22-.09.1.1 0 0 0 -.05.16.221.221 0 0 0 .27.12zm.23-.39.16.24a.062.062 0 0 0 .05 0c.016-.007 0 0 0 0a.1.1 0 0 1 -.1 0l-.16-.24h-.05.05l-.09-.12.08.12h.05s0-.01.01 0zm.45-.12.2.29v-.05a.141.141 0 0 1 -.09.11.313.313 0 0 1 -.29-.12.127.127 0 0 1 -.03-.083.13.13 0 0 1 .1-.127.21.21 0 0 1 .17 0v-.05s-.07.02-.06.03zm.06.16a.211.211 0 0 0 -.22-.1c-.08 0-.1.09-.05.17a.22.22 0 0 0 .22.09c.08-.02.1-.09.05-.16zm.01-.35.29.44zm9.88-2.7h.25a.05.05 0 0 1 .05 0c.015.009 0 0 0 0h-.1l.09.13a.27.27 0 0 1 .25.1c.05.07 0 .14-.07.17h-.05a.391.391 0 0 1 -.18 0c-.059-.014 0 0 0-.05h.14l-.09-.13c-.12 0-.2 0-.25-.1s0-.14.07-.17-.12.05-.11.05zm.13.23-.08-.11c-.05 0-.05 0 0 .07s.01.04.08.04zm.12.08.08.12c.05 0 .06 0 0-.07s-.01-.05-.08-.05z"/><path d="m329.45 127.66c.054.016.1.052.13.1a.163.163 0 0 1 0 .13.12.12 0 0 1 -.1.09.244.244 0 0 1 -.16 0 .098.098 0 0 0 .075.034.098.098 0 0 0 .075-.034c.019-.022.05 0 .05 0a.081.081 0 0 0 0-.08.165.165 0 0 0 -.07 0 .139.139 0 0 0 -.09 0 .059.059 0 0 1 0-.06v-.09h-.12a.07.07 0 0 1 -.06 0c-.019-.009 0 0 0 0l.22-.06a.105.105 0 0 1 .07 0v.11zm.67.01a.105.105 0 0 1 -.07 0v-.05l-.23.06h-.05l.07-.38h.09l.18.27a.069.069 0 0 1 .01.1zm-.26-.17v.21h.15zm-13.26 5.5a.496.496 0 0 0 .21 0 .151.151 0 0 0 .09-.06.11.11 0 0 0 0-.08.151.151 0 0 0 -.09-.06h-.29a.14.14 0 0 1 -.11-.07.081.081 0 0 1 0-.1.26.26 0 0 1 .1-.07.45.45 0 0 1 .2 0 .366.366 0 0 0 -.18 0 .177.177 0 0 0 -.08.06.06.06 0 0 0 0 .08.155.155 0 0 0 .08 0h.13a.29.29 0 0 1 .16 0c.047.007.09.032.12.07.02.034.02.076 0 .11a.15.15 0 0 1 -.1.07.465.465 0 0 1 -.24 0zm.7-.36a.16.16 0 0 0 -.18-.07.08.08 0 0 0 -.05.13l.13.18-.12-.18-.16-.25.12.18a.1.1 0 0 1 .08-.08.23.23 0 0 1 .24.09l.12.18zm.11-.17.2.3zm.31.1-.09-.14v.05a.11.11 0 0 1 .09-.1.28.28 0 0 1 .29.11c.02.023.03.053.03.083a.13.13 0 0 1 -.1.127.234.234 0 0 1 -.18 0l.13.19zm0 0a.231.231 0 0 0 .23.09.1.1 0 0 0 0-.17.231.231 0 0 0 -.23-.09c-.07 0-.09.09-.05.16zm.49-.13-.09-.14v.05a.121.121 0 0 1 .1-.1.261.261 0 0 1 .28.11c.06.09 0 .19-.06.21a.191.191 0 0 1 -.18 0l.12.19zm0 0a.231.231 0 0 0 .23.09.111.111 0 0 0 .04-.085.111.111 0 0 0 -.04-.085.231.231 0 0 0 -.23-.09.1.1 0 0 0 -.05.16zm.36-.28.2.3zm.54 0a.16.16 0 0 0 -.18-.07c-.06 0-.08.07 0 .13l.12.18-.12-.18-.07-.11a.111.111 0 0 1 .08-.07.23.23 0 0 1 .24.09l.12.18zm.63.03a.13.13 0 0 1 -.07.2.139.139 0 0 1 -.09 0h.07a.1.1 0 0 0 .05-.16.1.1 0 0 1 -.09.1.278.278 0 0 1 -.28-.12.13.13 0 0 1 .06-.21.291.291 0 0 1 .18 0v-.05zm-.13-.13a.231.231 0 0 0 -.23-.09c-.07 0-.09.09 0 .16a.211.211 0 0 0 .22.1.1.1 0 0 0 .01-.17zm10.08-3.06h.05a.33.33 0 0 1 .14 0l-.12.05.09.13c.13 0 .2 0 .25.1s0 .14-.07.17h-.05v-.05a.407.407 0 0 1 -.19 0c-.062-.015 0 0 0 0 .043.01.087.01.13 0l-.08-.13a.251.251 0 0 1 -.25-.09.099.099 0 0 1 -.029-.071c0-.05.039-.093.089-.099s.02-.01.04-.01zm.12.23-.08-.12s-.05 0 0 .08.01.01.08.01zm.12.08.08.12c.05 0 .06 0 0-.08s-.01-.07-.08-.07zm.45-.26a.269.269 0 0 1 .13.1.172.172 0 0 1 0 .13.131.131 0 0 1 -.1.09.232.232 0 0 1 -.16 0c-.052-.019 0 0 0 0a.098.098 0 0 0 .075.034.098.098 0 0 0 .075-.034.072.072 0 0 0 .05 0 .078.078 0 0 0 0-.07.119.119 0 0 0 -.08-.06.122.122 0 0 0 -.08 0c-.026.009 0 0-.06 0h-.06l-.17-.24.22-.06a.07.07 0 0 1 .06 0c.019.009 0 0 0 .05l-.19.05v.06h.05a.23.23 0 0 1 .24-.05zm-12.71 4.89h-.12l.24.36h-.07l-.24-.35h-.12a.07.07 0 0 1 -.06 0c-.019-.009 0 0 0-.05l.31-.08c.12 0 .08.12.06.12zm.33.33a.345.345 0 0 1 -.13-.11.163.163 0 0 1 0-.13.111.111 0 0 1 .1-.08.204.204 0 0 1 .15 0 .28.28 0 0 1 .13.11.163.163 0 0 1 0 .13.11.11 0 0 1 -.09.08.22.22 0 0 1 -.16 0zm-.05-.13c.02.028.048.049.08.06a.11.11 0 0 0 .08 0c.026-.01 0 0 0 0a.081.081 0 0 0 0-.08.11.11 0 0 0 -.07-.06.139.139 0 0 0 -.09 0 .106.106 0 0 0 -.05 0 .123.123 0 0 0 .04.08zm.45-.28.12.19a.094.094 0 0 1 .07 0c.022.009 0 0 0 .05a.15.15 0 0 1 -.13-.06l-.12-.18h-.06l-.07-.09v-.05l.13.1zm.51.02.09.13-.06.05a.11.11 0 0 1 -.07.06.31.31 0 0 1 -.16 0 .269.269 0 0 1 -.13-.1.188.188 0 0 1 0-.14.11.11 0 0 1 .09-.08h.12a.07.07 0 0 1 .06 0zm-.08 0a.193.193 0 0 0 -.07-.06h-.14a.073.073 0 0 0 0 .07l.07.07h.09a.072.072 0 0 0 .05 0 .122.122 0 0 0 0-.06zm.08-.35.33.4-.33-.4s-.03 0 0 0zm11.71-3.18h.19v.05h-.12l.08.13a.26.26 0 0 1 .26.09.12.12 0 0 1 .019.064.12.12 0 0 1 -.089.116c-.052.014 0 0 0 0h-.05a.407.407 0 0 1 -.19 0v-.05a.33.33 0 0 0 .14 0l-.09-.13c-.13 0-.2 0-.25-.1s0-.13.07-.17.01.01.03 0zm.12.24-.07-.12c-.05 0-.06.05 0 .08.019.02.043.034.07.04zm.13.08.08.12s.05 0 0-.08-.02-.04-.08-.04zm.45-.24a.28.28 0 0 1 .13.11.163.163 0 0 1 0 .13.14.14 0 0 1 -.1.08.29.29 0 0 1 -.16 0c-.052-.015-.05 0 0-.06a.059.059 0 0 1 .06 0h.09a.12.12 0 0 0 .05-.05.094.094 0 0 0 0-.07l-.08-.06h-.12s-.05 0 0-.05v-.09h-.19l.22-.05h.06v.11zm.15-.06a.127.127 0 0 1 -.03-.083.13.13 0 0 1 .1-.127.29.29 0 0 1 .28.1.526.526 0 0 1 .07.15.17.17 0 0 1 0 .14.151.151 0 0 1 -.09.06c-.156.008-.06-.05-.06-.05h.06a.122.122 0 0 0 0-.06h-.06a.28.28 0 0 1 -.27-.13zm.08 0c.041.044.1.066.16.06a.08.08 0 0 0 0-.12.2.2 0 0 0 -.16-.06.081.081 0 0 0 0 .1z"/><path d="m328 124.71-6 1.61-.77-1.15 6-1.6zm-6 1.5 5.83-1.56-.66-1-5.83 1.55zm11.72 5.01-16.76 4.47-.06-.08 16.77-4.47z" fill="#ebebeb"/><path d="m335.79 134.29.78 1.16c.52.77.3 1.56-.48 1.76l-13.94 3.72a2.343 2.343 0 0 1 -2.34-1l-.78-1.16z" fill="#5fd48e"/><path d="m326.14 138.26a.201.201 0 0 1 .11-.31.375.375 0 0 1 .21 0c.069.02 0 0-.05 0h-.15a.14.14 0 0 0 -.1.08.163.163 0 0 0 0 .13.258.258 0 0 0 .13.1.327.327 0 0 0 .17 0 .214.214 0 0 0 .09-.07c.023-.031 0 0 .06 0a.18.18 0 0 1 -.13.15.428.428 0 0 1 -.34-.08zm.73.05-.26-.39a.06.06 0 0 1 .07 0l.11.16.21-.08-.11-.16.33.4-.17-.16h-.19l.1.16v.05a.108.108 0 0 1 -.09.02zm.53-.14-.27-.39v-.05l.24-.07a.07.07 0 0 1 .06 0c.019.009 0 0 0 .05h-.2l.08.12h.24c.02 0 0 .05 0 .05l-.17.05.08.12.2-.05a.06.06 0 0 1 .07 0c.021.015 0 0 0 0l-.24.07a.07.07 0 0 1 .011.037.07.07 0 0 1 -.101.063zm.27-.31a.2.2 0 0 1 .11-.32.496.496 0 0 1 .21 0c.069.015 0 0 0 0h-.15a.14.14 0 0 0 -.1.08.163.163 0 0 0 0 .13.28.28 0 0 0 .13.11.29.29 0 0 0 .16 0 .15.15 0 0 0 .1-.07c.022-.036 0 0 .06 0s0 0 0 .06a.232.232 0 0 1 -.13.1.467.467 0 0 1 -.39-.09zm.73.04-.26-.39a.078.078 0 0 1 .07 0l.13.19.09-.28h.06c.06 0 0 0 0 .05l-.06.19.29.15v.05l-.28-.15v.1l.06.09v.05a.06.06 0 0 1 -.04.016.06.06 0 0 1 -.06-.06zm.65-.61a.452.452 0 0 1 .19.15c.029.06.029.13 0 .19a.18.18 0 0 1 -.12.12.315.315 0 0 1 -.23 0 .401.401 0 0 1 -.19-.15.21.21 0 0 1 0-.18.16.16 0 0 1 .13-.12.367.367 0 0 1 .22-.01zm.1.17a.319.319 0 0 0 -.13-.1.256.256 0 0 0 -.15 0 .112.112 0 0 0 -.08.08.131.131 0 0 0 0 .13.231.231 0 0 0 .28.1.112.112 0 0 0 .08-.08.172.172 0 0 0 0-.13zm.57.13a.33.33 0 0 1 -.34-.13l-.16-.24v-.05a.07.07 0 0 1 .06 0l.16.24a.22.22 0 0 0 .21.08.09.09 0 0 0 .05-.15l-.16-.24a.06.06 0 0 1 .07 0l.16.23a.15.15 0 0 1 -.05.26zm.42-.59h-.12l.24.36a.06.06 0 0 1 -.07 0l-.24-.36h-.12c-.12 0-.06-.05-.06-.05l.32-.09a.07.07 0 0 1 .06 0c.019.009.01.14-.01.14z" fill="#fff"/><path d="m318.33 108.33 18.24 27.12c.52.77.3 1.56-.48 1.76l-13.94 3.72a2.343 2.343 0 0 1 -2.34-1l-18.25-27.13c-1.05-1.56-.47-1.81.31-2l2.8-.74a.591.591 0 0 1 .54.3l.06.08a.74.74 0 0 0 1 .32l6.45-1.72c.36-.1.65-.18.33-.67l-.06-.08c-.14-.21-.12-.41 0-.46l2.79-.74c.81-.23 1.58-.19 2.55 1.24z" fill-opacity=".3"/><path d="m328.57 127-12.84 3.42-6.34-9.42 12.85-3.42z" fill="#fff"/><path d="m317.45 127.37-.32-.17.29.15v-.24.26l.14.21zm.3-.2a.278.278 0 0 1 .28.12.13.13 0 0 1 -.06.21.29.29 0 0 1 -.28-.12c-.06-.09-.04-.18.06-.21zm.2.3c.07 0 .09-.1 0-.17a.22.22 0 0 0 -.22-.1.111.111 0 0 0 -.04.085c0 .033.015.064.04.085.058.089.168.13.27.1zm.1-.36.12.18a.192.192 0 0 0 .18.07.08.08 0 0 0 .033-.065.08.08 0 0 0 -.033-.065l-.12-.18.12.18a.099.099 0 0 1 .029.071c0 .05-.039.093-.089.099a.231.231 0 0 1 -.23-.09zm.46-.11v.07a.12.12 0 0 1 .09-.12c.054-.014 0 0 0 0a.13.13 0 0 0 -.07.09c-.008.039 0 .07 0 .08l.1.14zm.64 0-.1-.14a.11.11 0 0 1 .09-.1.28.28 0 0 1 .29.12c.02.023.03.053.03.083a.13.13 0 0 1 -.1.127.307.307 0 0 1 -.18 0l.13.19zm0 0a.22.22 0 0 0 .22.09c.08 0 .1-.09 0-.16a.211.211 0 0 0 -.22-.1.1.1 0 0 0 -.081.098c0 .023.007.044.021.062zm.38-.29.12.18a.15.15 0 0 0 .17.07c.07 0 .09-.07.05-.13l-.12-.18.12.17c.05.08 0 .16-.05.18a.23.23 0 0 1 -.24-.1zm.47-.12v.08a.11.11 0 0 1 .09-.12c.057-.01 0 0 0 0a.08.08 0 0 0 -.07.08.272.272 0 0 0 0 .09l.09.15zm.37.07a.127.127 0 0 1 -.03-.083.13.13 0 0 1 .1-.127.223.223 0 0 1 .14 0 .244.244 0 0 0 -.12 0 .111.111 0 0 0 -.081.106c0 .023.008.045.021.064a.24.24 0 0 0 .24.1.119.119 0 0 0 .08-.06c.017-.031 0 0 0 0a.111.111 0 0 1 -.09.07.269.269 0 0 1 -.26-.07zm.69-.22a.192.192 0 0 0 -.18-.07c-.07 0-.09.07-.05.13l.12.18-.12-.18-.17-.25.11.17a.11.11 0 0 1 .09-.08.231.231 0 0 1 .23.09l.13.18zm.44-.25.2.29s0 .08-.09.1a.29.29 0 0 1 -.28-.12c-.06-.09 0-.19.06-.21a.243.243 0 0 1 .18 0c.058.023 0 0 0 0zm.06.16a.211.211 0 0 0 -.22-.1.111.111 0 0 0 -.04.085c0 .033.015.064.04.085a.231.231 0 0 0 .23.09c.02-.02.04-.09-.01-.16z"/><path d="m321.79 126.4c.043.01.087.01.13 0a.088.088 0 0 0 .06 0h-.06a.139.139 0 0 0 -.09 0h-.1a.101.101 0 0 1 -.08 0c-.025-.011 0 0 0-.07a.1.1 0 0 1 .07-.05.285.285 0 0 1 .13 0c.043.01 0 0 0 0a.205.205 0 0 0 -.11 0c-.036.01 0 0 0 0 .029.01.061.01.09 0h.25a.081.081 0 0 1 0 .08.16.16 0 0 1 -.08.05.29.29 0 0 1 -.16 0zm.3-.19c-.06-.09 0-.19.06-.21a.27.27 0 0 1 .28.1l-.3.08a.22.22 0 0 0 .22.09.09.09 0 0 0 .08-.09c0-.046 0 0 0 0a.11.11 0 0 1 -.09.11.283.283 0 0 1 -.25-.08zm0 0 .27-.07a.2.2 0 0 0 -.2-.07.09.09 0 0 0 -.05.1zm.91-.06-.33-.25.3.22v-.2l.21.16-.06-.29.07.33-.2-.16v.2zm.61-.52.2.29v-.05a.12.12 0 0 1 -.09.1.261.261 0 0 1 -.28-.11c-.06-.09 0-.19.06-.21a.234.234 0 0 1 .18 0c.057.024 0 0 0 0s-.08-.03-.07-.02zm.06.15a.22.22 0 0 0 -.22-.09c-.08 0-.1.09-.05.17a.231.231 0 0 0 .23.09c.07-.02.09-.09.04-.17zm.23.06a.33.33 0 0 0 .14 0h.06-.1a.17.17 0 0 1 -.1 0 .136.136 0 0 1 -.08 0c-.026-.008 0 0 0-.07a.105.105 0 0 1 .07 0 .285.285 0 0 1 .13 0c.043.01 0 0 0 0a.205.205 0 0 0 -.11 0c-.036.01-.05 0-.05 0h.2c.032.011.06.032.08.06a.081.081 0 0 1 0 .08.16.16 0 0 1 -.08.05.392.392 0 0 1 -.16 0zm-4.38 2.16c.043.01.087.01.13 0a.088.088 0 0 0 .06 0 .088.088 0 0 0 -.06 0 .272.272 0 0 0 -.09 0h-.1a.122.122 0 0 1 -.08 0 .081.081 0 0 1 0-.08c.014-.025 0 0 .07 0a.193.193 0 0 1 .13 0 .205.205 0 0 0 -.11 0c-.036.01-.05 0-.05 0h.2c.032.011.06.032.08.06a.06.06 0 0 1 0 .07.11.11 0 0 1 -.08 0 .211.211 0 0 1 -.16 0zm.22-.39.12.17a.19.19 0 0 0 .18.08.09.09 0 0 0 .05-.13l-.12-.18.12.18a.099.099 0 0 1 .029.071c0 .05-.039.093-.089.099a.22.22 0 0 1 -.23-.1zm.53.03a.13.13 0 0 1 .08-.21.223.223 0 0 1 .14 0c.045.015 0 0 0 0h-.13a.101.101 0 0 0 -.089.099c0 .027.01.052.029.071a.239.239 0 0 0 .24.09.138.138 0 0 0 .07 0c.023-.006 0 0 0 0a.151.151 0 0 1 -.09.06.292.292 0 0 1 -.25-.11zm.41-.11a.13.13 0 0 1 .08-.21.223.223 0 0 1 .14 0c.045.015 0 0 0 0h-.13a.101.101 0 0 0 -.089.099c0 .027.01.052.029.071a.239.239 0 0 0 .24.09.138.138 0 0 0 .07 0c.023-.006 0 0 0 0a.151.151 0 0 1 -.09.06.292.292 0 0 1 -.25-.11zm.41-.11a.127.127 0 0 1 -.03-.083.13.13 0 0 1 .1-.127.25.25 0 0 1 .27.11c.057.091 0 0 0 0l-.3.08a.25.25 0 0 0 .23.09.11.11 0 0 0 .07-.1c.001-.044 0 0 0 0a.12.12 0 0 1 -.09.12.3.3 0 0 1 -.25-.09zm0 0 .28-.07a.23.23 0 0 0 -.21-.07.102.102 0 0 0 -.05.1zm.52-.02a.33.33 0 0 0 .14 0h.05-.15a.17.17 0 0 1 -.1 0c-.033-.01-.06 0-.07 0a.06.06 0 0 1 0-.07.13.13 0 0 1 .07-.05.33.33 0 0 1 .14 0c.046.01 0 0 0 0a.244.244 0 0 0 -.12 0 .106.106 0 0 0 -.05 0c.03.005.06.005.09 0h.11c.035.01.067.031.09.06a.11.11 0 0 1 0 .08.13.13 0 0 1 -.07.05.485.485 0 0 1 -.17 0c-.056-.01.03-.07.04-.07zm.39-.1a.33.33 0 0 0 .14 0 .088.088 0 0 0 .06 0h-.06a.272.272 0 0 0 -.09 0h-.1a.122.122 0 0 1 -.08 0 .06.06 0 0 1 0-.08c.02-.023 0 0 .07 0a.193.193 0 0 1 .13 0c.042.015 0 0 0 0a.405.405 0 0 0 -.11 0 .088.088 0 0 0 -.06 0 .085.085 0 0 0 0 .05h.1a.205.205 0 0 1 .11 0c.032.011.06.032.08.06.02.168 0 .07-.07.07a.211.211 0 0 1 -.16 0zm.25-.53v.06h.05-.05l.2.29-.19-.29h-.05.05a.195.195 0 0 1 0-.09.088.088 0 0 1 .06 0zm.19.11.12.18a.19.19 0 0 0 .18.08.09.09 0 0 0 0-.14l-.12-.17.12.17a.11.11 0 0 1 -.06.18.24.24 0 0 1 -.24-.1zm.35-.25.29.43zm-5.97-.95h-.21l.42.63v.08a.14.14 0 0 1 -.12 0l-.42-.63-.2.06a.148.148 0 0 1 -.12 0c-.038-.017 0-.07 0-.08l.55-.15a.108.108 0 0 1 .11 0c.034.02.03.08-.01.09zm.81.52v.08a.11.11 0 0 1 -.1 0l-.46-.69a.06.06 0 0 1 -.02-.045.06.06 0 0 1 .02-.045.111.111 0 0 1 .12.05l.14.2a.304.304 0 0 1 .11-.07.461.461 0 0 1 .46.18l.18.27v.08a.14.14 0 0 1 -.12 0l-.17-.27a.231.231 0 0 0 -.23-.09.11.11 0 0 0 -.05.17zm1.09-.56.15.23v.08a.09.09 0 0 1 -.1 0 .305.305 0 0 1 -.14.1.447.447 0 0 1 -.28 0 .571.571 0 0 1 -.23-.18.303.303 0 0 1 -.05-.23.22.22 0 0 1 .16-.15.375.375 0 0 1 .21 0c.069.02 0-.07 0-.07a.108.108 0 0 1 .11 0zm-.14 0a.28.28 0 0 0 -.13-.11.273.273 0 0 0 -.15 0 .151.151 0 0 0 -.09.08.188.188 0 0 0 0 .14.345.345 0 0 0 .13.11.256.256 0 0 0 .15 0 .11.11 0 0 0 .09-.08.17.17 0 0 0 0-.1zm.88-.26.19.28v.08a.14.14 0 0 1 -.12 0l-.18-.28a.21.21 0 0 0 -.22-.08c-.07 0-.09.08-.05.15l.19.28a.05.05 0 0 1 0 .07.119.119 0 0 1 -.11 0l-.19-.28-.12-.18v-.08a.139.139 0 0 1 .09 0 .23.23 0 0 1 .11-.07.431.431 0 0 1 .41.11zm.44.21-.46-.69a.131.131 0 0 1 .12-.08l.27.41.17-.23h.1c.05 0 .07.06.06.09l-.08.23.35.17a.081.081 0 0 1 .05.09h-.07l-.33-.16v.08l.06.11a.12.12 0 0 1 -.24-.01zm1.29-.88.18.28.12.16c.1.16.05.32-.12.36a.29.29 0 0 1 -.16 0 .111.111 0 0 1 -.09-.07c-.015-.038 0-.06.08 0h.08a.111.111 0 0 0 .098-.109.115.115 0 0 0 -.008-.041.173.173 0 0 1 -.1.06.45.45 0 0 1 -.44-.17l-.18-.28a.048.048 0 0 1 -.02-.04c0-.016.007-.031.02-.04a.1.1 0 0 1 .11 0l.19.27a.22.22 0 0 0 .22.09c.07 0 .09-.09.05-.16l-.19-.27v-.08a.111.111 0 0 1 .16.04zm.59.36a.522.522 0 0 1 -.23-.18.261.261 0 0 1 -.05-.23.21.21 0 0 1 .16-.15.447.447 0 0 1 .28 0c.091.039.17.101.23.18a.252.252 0 0 1 0 .23.19.19 0 0 1 -.15.15.445.445 0 0 1 -.24 0zm-.09-.22a.28.28 0 0 0 .13.11.256.256 0 0 0 .15 0 .111.111 0 0 0 .09-.07.188.188 0 0 0 0-.14.28.28 0 0 0 -.13-.11.256.256 0 0 0 -.15 0 .14.14 0 0 0 -.1.08.274.274 0 0 0 .01.13zm1.13.04a.45.45 0 0 1 -.44-.17l-.19-.28a.048.048 0 0 1 -.02-.04c0-.016.007-.031.02-.04a.108.108 0 0 1 .11 0l.19.28a.2.2 0 0 0 .21.09.1.1 0 0 0 .081-.098.099.099 0 0 0 -.021-.062l-.19-.28a.048.048 0 0 1 -.02-.04c0-.016.007-.031.02-.04a.122.122 0 0 1 .12 0l.18.28c.1.013.177.099.177.2a.203.203 0 0 1 -.227.2zm.34-.42-.32-.48a.048.048 0 0 1 -.02-.04c0-.016.007-.031.02-.04a.1.1 0 0 1 .11 0l.32.47v.08a.14.14 0 0 1 -.11.01zm.26.26a.108.108 0 0 1 -.11 0 .048.048 0 0 1 -.02-.04c0-.016.007-.031.02-.04a.1.1 0 0 1 .11 0c.033.022.04.07 0 .08z"/><path d="m319.81 121.74c.234.261.364.599.364.949 0 .672-.476 1.256-1.134 1.391a3.174 3.174 0 0 1 -3.21-1.28 1.422 1.422 0 0 1 -.364-.949c0-.672.476-1.256 1.134-1.391a3.194 3.194 0 0 1 3.21 1.28z" fill="#5fd48e"/><path d="m316.91 122.9c.18.06.35.14.53.21l.52.23h-.18c.021-.422.068-.843.14-1.26.033-.209.076-.416.13-.62.05-.204.113-.405.19-.6v1.3a8.631 8.631 0 0 1 -.18 1.26v.13l-.15-.09-.48-.29c-.21-.06-.37-.17-.52-.27z" fill="#fff"/><path d="m340.87 141.91s1.55-9.34.22-13-7.85-7.22-11.15-8.62c-4.07-1.72-4.56 2-3.57 4.13 1.67 3.7 6.21 7.31 6.48 7.42 0 0-7.6 5.34-5.54 13.23z" fill="#f7a9a0"/><path d="m342.52 141.54-24.4 18.7s12.87 23.67 22.4 27.13 12.54 2.43 15.21 1.91 22.7-16.38 36.1-40.81c12.67-23.08-2.08-16.15-13-8.13-6.24 4.57-26.19 16.44-27 16.17s-9.31-14.97-9.31-14.97z" fill="#5fd48e"/><path d="m360.14 186.49c7.26-5.61 21.42-19.3 31.7-38 6.74-12.28 5.7-16.06 1.61-15.71-3.55 5.59-22.84 36.75-33.31 53.71z" fill="#263238" fill-opacity=".1"/><path d="m344.48 148.81a62.42 62.42 0 0 1 -4.87 4.16c-1.7 1.41-3.45 2.76-5.19 4.12s-8.89 6.56-10.67 7.85a.08.08 0 0 1 -.067.037.08.08 0 0 1 -.023-.157c1.7-1.41 8.45-7 10.17-8.32s3.42-2.66 5.17-3.94a66.326 66.326 0 0 1 5.42-3.82c1.869-1.182.1.03.06.07z" fill="#263238"/><path d="m377.79 209.75c1.4 1.4 58.47.85 58.47.85.27-.36-10.87-67.11-30.91-77.67-3.41-1.8-12.62-1.56-15 .77-10.12 10.02-13.44 75.18-12.56 76.05z" fill="#5fd48e"/><path d="m403.86 132.29s-3.52 20.91-3.65 21.17-15.18-1.15-15.35-1.27 5-18.14 5-18.14l-1.49 1.25s-6.1 17.81-7.71 29.86-3 46.07-3 46.07l58.56-.59a296.477 296.477 0 0 0 -7.14-35.33c-3.094-11.621-16.18-7.1-19.43-9.2s-4-33.09-4-33.09z" fill="#455a64"/><path d="m382.87 167.39a21.708 21.708 0 0 0 7.29 4.13c1.49.29 8.67-.8 9.86-1.76.48-.38 1-10.8.86-11.48s-16-2.31-16.51-1.83c-1.1 1.07-1.95 10.46-1.5 10.94zm1.8-10.3c.56-.4 14.68.74 15.73 1.65-.09 2.18-.66 10.26-.92 10.51s-7.85 1.94-9.17 1.62c-1.95-.45-6.18-3.12-6.89-3.76-.48-.46.86-9.74 1.25-10.02z" fill="#263238"/><path d="m391.75 143.62c3.44.75 9.23-4.6 11.47-8.89.15-.29-.35-3.35-.79-7.1-.25-2.27-.48-4.81-.53-7.14l-14.56 3.82a37.12 37.12 0 0 1 1.58 8.93c.008.335-.019.67-.08 1s0 .1 0 .16c-.28 1.78-.42 8.5 2.91 9.22z" fill="#f7a9a0"/><path d="m387.34 124.31a37.12 37.12 0 0 1 1.58 8.93c.008.335-.019.67-.08 1a.627.627 0 0 0 0 .15c.5.072 1.006.092 1.51.06 8.5-.35 10.71-10.94 11.15-13.81z" fill="#263238"/><path d="m403.32 103.27c1.54 5.2-1.32 20.16-5 23.47-5.39 4.8-14.15 5.19-18.21-1.27-3.94-6.27.14-25.7 4.28-28.7 6.07-4.42 16.61-1.18 18.93 6.5z" fill="#f7a9a0"/><path d="m388.26 112.49s.07.07.06.11c-.25 1-.36 2.16.47 2.68v.06c-1.08-.34-.92-1.95-.53-2.85z" fill="#263238"/><path d="m389.37 111.64c1.63.22 1.07 3.46-.44 3.26s-.93-3.44.44-3.26zm-7.01-.18s-.08 0-.09.08c-.14 1-.47 2.14-1.44 2.32 1.17.14 1.56-1.42 1.53-2.4z" fill="#263238"/><path d="m381.65 110.26c-1.6-.4-2.28 2.82-.8 3.19s2.15-2.85.8-3.19zm9.26-.91a12.383 12.383 0 0 1 -1.18-.66 2.23 2.23 0 0 1 -1.08-.9.701.701 0 0 1 .26-.81 1.71 1.71 0 0 1 1.74.12 2.538 2.538 0 0 1 1.25 1.33.743.743 0 0 1 -.99.92zm-9.91-1.82c.46 0 .89-.07 1.34-.11.482.024.96-.109 1.36-.38a.692.692 0 0 0 .1-.84 1.712 1.712 0 0 0 -1.64-.61 2.49 2.49 0 0 0 -1.69.69.74.74 0 0 0 .53 1.25zm6.79 14.02c-.24.24-.47.57-.84.61a2.654 2.654 0 0 1 -1.1-.23c-.346-.154-.07 0 0 .06a1.38 1.38 0 0 0 1.3.52c.421-.122.729-.485.78-.92-.02-.06-.1-.08-.14-.04z" fill="#263238"/><path d="m387 118.44a3.484 3.484 0 0 1 -2.55 1.13 4.403 4.403 0 0 1 -1.24-.16 3.81 3.81 0 0 1 -.44-.14c-.12 0-.16-.14-.17-.26s.43-2.14.43-2.14c-.31.09-1.86.49-1.76.09a51.577 51.577 0 0 1 3.11-10.11.093.093 0 0 1 .18.05c-.62 3.21-1.81 6.29-2.48 9.51a6.257 6.257 0 0 1 1.7-.22c.05 0-.6 2.61-.6 2.63a4.791 4.791 0 0 0 3.73-.49c.09-.04.19.04.09.11z" fill="#263238"/><path d="m383.68 119.11c.33.634.815 1.174 1.41 1.57.334.201.721.295 1.11.27.85-.07 1-.81 1-1.47a4.734 4.734 0 0 0 -.19-1 5.34 5.34 0 0 1 -3.33.63z" fill="#263238"/><path d="m385.09 120.68c.334.201.721.295 1.11.27.85-.07 1-.81 1-1.47a1.946 1.946 0 0 0 -2.11 1.2z" fill="#ff9cbd"/><path d="m404.32 118.21c-4.21-.18-5.83-5.39-4.41-9.29 0 0-11.25.23-10.79-8.73a10.174 10.174 0 0 1 -8.16 3.3l-1.1 3c-1.1-.46-1.95-3.83 1.12-6a10.664 10.664 0 0 1 4.25-6.72 6.11 6.11 0 0 1 6.63-.18 9.226 9.226 0 0 1 6.87-.9 7.865 7.865 0 0 1 5.27 4.88c.867 2.379 5.38 1.66 5.88 5.67a8.146 8.146 0 0 1 -1.81 6.4c-1.486 1.777 1.21 1.69.13 4.94-.67 2.09-2.62 3.68-3.88 3.63z" fill="#263238"/><path d="m389.46 99.43a9.976 9.976 0 0 0 -.27 2.17 8.575 8.575 0 0 0 .17 2.15 5.611 5.611 0 0 0 2.21 3.48 8.996 8.996 0 0 0 4 1.48c.72.06 1.44.17 2.17.19s1.47 0 2.2 0c-.72.1-1.46.16-2.2.23s-1.47 0-2.22 0a9.006 9.006 0 0 1 -4.23-1.46 5.89 5.89 0 0 1 -2.29-3.83 8.843 8.843 0 0 1 .46-4.41z" fill="#263238"/><path d="m383.16 103.94a11.818 11.818 0 0 0 3.57-1.44 7.313 7.313 0 0 0 1.45-1.21 8.251 8.251 0 0 0 1.12-1.58 4.698 4.698 0 0 1 -.81 1.83 5.197 5.197 0 0 1 -1.48 1.4 7.017 7.017 0 0 1 -1.86.8 6.357 6.357 0 0 1 -1.99.2z" fill="#263238"/><path d="m399.41 116.35s3.52-4.74 5.69-3.47-.58 8.22-3.19 9.1a2.635 2.635 0 0 1 -3.48-1.51z" fill="#f7a9a0"/><path d="m404.26 114.85s.05.05 0 .07c-1.83.68-2.83 2.33-3.54 4a1.451 1.451 0 0 1 2.18-.33c.263.228 0 .1-.06.09a1.634 1.634 0 0 0 -1.79.51 8.67 8.67 0 0 0 -.89 1.42c-.09.16-.38.06-.31-.12.04-2.3 1.93-5.49 4.41-5.64z" fill="#263238"/><path d="m416.18 152.92c1 8.69 1.37 45.39-2.07 51.62-6.24 11.29-46.36 5.64-55.41 5.91-3.77.11-4.9-27.71-1.25-29.43 2.47-1.15 33.15 3.73 35.27 1.58s7.71-19.25 10.69-33.45c2.84-13.52 10.7-14.67 12.77 3.77zm-65.91 24.72c-8.65-1.83-11.16-1-17.64-6.4-4.26-3.56-8.36-2.37-6.16 3 3.59 8.73 14.26 13.44 18.43 14z" fill="#f7a9a0"/><path d="m372.9 187.69s-9.44-6.15-18.47-9c-6.24-2-20.31-4.78-34.88 8.27-3.45 3.1-6.18 10 1.3 7 5.31-2.13 8-5.09 11.35-5.77 0 0-2.43 9.14.8 12.48a87.39 87.39 0 0 0 9.08 8.13 18.468 18.468 0 0 0 1.68-1.57c.527-.558 4.78 4.82 14.94 3.28z" fill="#f7a9a0"/><path d="m348.17 177.74c-3.15 1.37-9.77 4.39-14.34 8.74-5.06 4.83-13.52 15.51-9.91 19.22 2.64 2.71 6.23-1.08 6.23-1.08s-2.57 5.15.36 7.08c2.67 1.76 5.27-1.34 5.27-1.34s-1 3.39 1.87 4.59c3.48 1.44 5.05-5.9 9.84-7.49 1.07-.35.68-29.72.68-29.72z" fill="#f7a9a0"/><path d="m339.83 191a27.935 27.935 0 0 0 -9.72 13.5c0 .14 0 .24.11.12a68.67 68.67 0 0 1 9.66-13.62c3.762-4.13-.01 0-.05 0zm4.74 5.24c-2.22 1.77-7.33 7.82-8.9 14 0 .14.05.24.11.12a73.91 73.91 0 0 1 8.83-14.13c3.466-4.362-.02-.01-.04.01z" fill="#263238"/><path d="m361.61 179.2 2.28 33.8s41.76 6.44 51.82-8.09c4.15-6 3.8-39.35 1.17-53.18s-9.49-21.36-14.64-.76-8.68 30.18-10 30.78-30.63-2.55-30.63-2.55z" fill="#5fd48e"/><path d="m388.75 214.39c13.48-2 24.34-5 26-8.53a28.526 28.526 0 0 0 2.34-6.47c.28-2 .527-3.977.74-5.93a162.28 162.28 0 0 0 .78-23.12c-.167-4.36-.5-8.71-1-13.05 0-.06.1-.07.11 0 .63 3.49 1.11 7 1.45 10.53 0-.52.06-1 .07-1.54.05-1.41.06-2.82 0-4.23 0-.07.11-.06.12 0a29.54 29.54 0 0 1 .13 4.31c0 .8-.13 1.58-.23 2.36.36 4.067.53 8.15.51 12.25 0 4-.21 8-.62 12-.2 1.947-.443 3.893-.73 5.84a40.048 40.048 0 0 1 -2.47 7.57c-1.55 3.31-9.28 6.55-27.09 8.11-.1.02-.2-.09-.11-.1zm-18.75-31.68c.399 2.317.676 4.654.83 7 .24 2.4.41 4.81.59 7.22s.56 12.07.66 14.48a.09.09 0 0 1 -.17 0c-.25-2.41-1.22-11.94-1.39-14.3s-.34-4.73-.44-7.1-.32-4.86-.18-7.25c.01-.08.1-.11.1-.05zm-8.34-2.71-.09-.82h.05c4.45.29 8.88.66 13.32 1s8.87.76 13.29 1.07c1.11.07 2.22.15 3.3.14h.56c.146-.156.27-.331.37-.52.27-.468.51-.952.72-1.45.86-2 1.62-4.11 2.38-6.2 1.48-4.19 2.88-8.42 4.31-12.63-1.08 4.32-2.28 8.61-3.63 12.86-.67 2.13-1.37 4.25-2.25 6.32a14.572 14.572 0 0 1 -.74 1.55 2.822 2.822 0 0 1 -.63.81 1.22 1.22 0 0 1 -.62.19h-.45c-1.15 0-2.26 0-3.38-.1-4.45-.27-8.88-.76-13.31-1.22s-8.84-1.07-13.25-1.75z" fill="#263238"/><path d="m397.67 167.78a12.643 12.643 0 0 1 -.11-2.81c.032-.469.089-.937.17-1.4.074-.465.188-.924.34-1.37a21.8 21.8 0 0 1 0 2.8 16.513 16.513 0 0 1 -.4 2.78z" fill="#263238"/></g><path d="m289.711 186.134a21.69 21.69 0 0 1 -.203-5.188c.09-1.733.4-3.456.924-5.147.513 3.452.27 6.94-.72 10.335zm-10.613 1.53a29.671 29.671 0 0 1 -3.718-4.418 25.502 25.502 0 0 1 -2.704-4.79 28.56 28.56 0 0 1 3.707 4.418 25.177 25.177 0 0 1 2.715 4.79zm-8.18 5.23a46.344 46.344 0 0 1 -6.219-2.482 40.64 40.64 0 0 1 -5.633-3.161 44.055 44.055 0 0 1 6.219 2.482 39.9 39.9 0 0 1 5.633 3.16zm-3.504 7.53a60.613 60.613 0 0 1 -14.072-.522 53.096 53.096 0 0 1 7.064-.157c2.359.074 4.704.301 7.008.678zm2.085 7.81a44.37 44.37 0 0 1 -6.017 2.722 46.597 46.597 0 0 1 -6.523 1.986 42.829 42.829 0 0 1 6.016-2.722 46.222 46.222 0 0 1 6.524-1.986zm7.12 5.99c-1.91 3.175-4.492 6.107-7.65 8.689 1.91-3.175 4.492-6.107 7.65-8.688zm10.253 2.582c.51 3.448.27 6.934-.71 10.326a21.125 21.125 0 0 1 -.214-5.188c.101-1.729.41-3.448.924-5.138zm10.624-1.53c2.806 2.794 4.975 5.904 6.422 9.209-2.788-2.802-4.955-5.91-6.422-9.21zm8.169-5.238c4.323 1.402 8.315 3.299 11.83 5.618a43.653 43.653 0 0 1 -6.22-2.482 40.562 40.562 0 0 1 -5.61-3.136zm3.504-7.521a59.405 59.405 0 0 1 14.072.521 52.956 52.956 0 0 1 -7.064.149 54.1 54.1 0 0 1 -7.008-.67zm-2.085-7.811c3.815-2.048 8.048-3.64 12.54-4.716a43.255 43.255 0 0 1 -6.005 2.73 49.237 49.237 0 0 1 -6.535 1.986zm-7.12-5.999c1.91-3.175 4.492-6.106 7.65-8.688a27.415 27.415 0 0 1 -3.38 4.576 32.12 32.12 0 0 1 -4.27 4.112z" fill="#263238" fill-rule="nonzero"/><path d="m162.442 223.335s-1.768 89.203-.98 96.08c.192 1.563-.732 9.928-2.084 20.685-2.93 23.457-8.022 65.78-8.022 65.78l46.126 3.508s11.819-73.103 11.503-86.747c-.315-13.644-3.076-95.98-3.076-95.98z" fill="#455a64" fill-rule="nonzero"/><path d="m166.611 358.245 2.073-16.06c.688-5.188 1.42-10.368 1.814-15.572.8-10.525-.642-21.05-1.24-31.566-.596-10.517-.855-21.05-.934-31.583-.102-11.815 0-23.63 0-35.446 0-.075-.17-.091-.18 0-.575 21.05-.868 42.123.135 63.165.255 5.24.6 10.48 1.036 15.72.44 5.296.868 10.592.687 15.895-.18 5.304-.822 10.368-1.475 15.54a12291.03 12291.03 0 0 1 -2.04 16.043c-1.52 11.882-3.943 30.167-5.453 42.05.025.083.126.142.242.142s.218-.06.243-.143c1.43-10.59 3.706-27.586 5.092-38.185z" fill="#263238" fill-rule="nonzero"/><path d="m151.852 222.532s8.822 90.006 9.61 96.882c.192 1.564-.732 9.93-2.084 20.686l40.245-113.969-47.771-3.6z" fill="#263238" fill-rule="nonzero"/><path d="m98.887 393.807-36.91-20.18s55.894-51.549 56.84-56.496c1.42-7.356 10.546-37.474 18.028-61.85 0 0-5.803-13.95 11.424-33.039l57.64 4.377s-6.568 18.915-14.905 30.615a97.812 97.812 0 0 0 -13.42 3.31c-4.324 1.402-13.52 54.609-14.646 61.443-2.32 13.52-64.051 71.82-64.051 71.82z" fill="#455a64" fill-rule="nonzero"/><path d="m193.358 256.539a120.82 120.82 0 0 0 -15.773 3.988c-.07.017-.116.066-.116.12 0 .07.078.126.172.126.02 0 .039-.001.057-.006 5.272-1.208 10.647-2.342 15.83-3.765.104-.044.168-.126.168-.215 0-.137-.152-.248-.338-.248zm-6.196-6.67a64.185 64.185 0 0 0 2.095-6.619 45.377 45.377 0 0 0 1.578-12.51c0-.059-.067-.108-.147-.108s-.146.05-.146.108a87.8 87.8 0 0 1 -3.831 17.177c-.946 2.706-3.38 6.702.44 7.447 3.819.745 7.48-5.999 8.235-7.86 2.002-5.309 3.06-10.785 3.144-16.292 0-.125-.293-.174-.316 0-.586 4.41-1.51 8.274-2.591 12.336-.507 1.895-4.09 12.304-8.495 11.187-.744-.182-1.048-.761-1.048-1.605a10.477 10.477 0 0 1 1.06-3.194" fill="#263238" fill-rule="nonzero"/><path d="m187.23 254.967a16.357 16.357 0 0 0 -1.33 2.11 4.206 4.206 0 0 0 -.676 1.77c.013.065.09.113.178.113a.22.22 0 0 0 .126-.038 5.98 5.98 0 0 0 1.296-1.655c.439-.654.901-1.3 1.318-1.961a.3.3 0 0 0 .055-.17c0-.206-.23-.375-.511-.375-.193 0-.37.08-.457.206zm-32.528-29.556c-2.057 2.075-3.834 4.292-5.306 6.62a37.484 37.484 0 0 0 -3.606 7.223c-.507 1.225-.8 2.482-1.126 3.748-.327 1.266-.575 2.524-.654 3.806a30.076 30.076 0 0 0 .135 7.662v.083a3941.376 3941.376 0 0 1 -8.652 31.698c-2.93 10.558-5.867 21.118-8.811 31.682l-.27.993-.136.488a1.436 1.436 0 0 1 -.225.53 16.673 16.673 0 0 1 -1.589 1.754c-1.126 1.1-2.197 2.168-3.312 3.243a2388.41 2388.41 0 0 1 -6.76 6.371c-4.507 4.229-30.927 28.662-40.29 36.961l39.524-37.4c2.253-2.117 4.507-4.244 6.76-6.378 1.127-1.076 2.253-2.152 3.279-3.236a18.96 18.96 0 0 0 1.464-1.605.95.95 0 0 0 .17-.43l.134-.497.27-.984a4572.711 4572.711 0 0 1 8.811-31.657 19135.03 19135.03 0 0 0 8.89-31.608v.083a29.829 29.829 0 0 1 0-7.76c.101-1.292.462-2.566.732-3.84s.732-2.532 1.273-3.757a37.204 37.204 0 0 1 3.83-7.206c1.524-2.322 3.355-4.528 5.465-6.587zm33.721-81.89c4.733-2.523 12.157-3.631 18.027-1.654 5.87 1.978 11.504 7.008 9.712 14.629-1.453 6.189-5.983 11.666-8.168 18.468-2.186 6.801 2.794 25.203-16.63 30.308-17.44 4.584-45.754-7.488-41.788-22.588 3.155-11.973 25.913-19.528 29.44-23.855 3.526-4.327 4.225-12.544 9.407-15.307z" fill="#263238" fill-rule="nonzero"/><path d="m183.477 149.711c-1.127 3.438-3.164 6.679-5.993 9.54a12.397 12.397 0 0 1 -2.637 1.903c-.969.554-1.96 1.06-2.952 1.564-2.005.985-3.988 1.97-5.904 3.012-3.831 2.034-7.246 4.46-10.14 7.207-2.829 2.785-4.916 5.937-6.151 9.291.365-1.735 1-3.434 1.893-5.063a24.087 24.087 0 0 1 3.38-4.659c2.777-2.916 6.205-5.468 10.14-7.546 1.949-1.059 3.977-2.043 5.982-3.012 2.035-.862 3.89-1.935 5.51-3.185a23.015 23.015 0 0 0 3.864-4.31 38.504 38.504 0 0 0 3.008-4.742zm30.523 11.84c-1.25 3.434-2.682 6.835-3.684 10.285a32.582 32.582 0 0 0 -1.127 5.213c-.203 1.72-.068 3.508 0 5.295s0 3.583-.237 5.37a23.922 23.922 0 0 1 -1.261 5.312c-.68 1.754-1.7 3.426-3.031 4.965-1.427 1.48-3.252 2.732-5.363 3.673 1.923-1.075 3.552-2.409 4.8-3.93 1.161-1.526 2.025-3.163 2.568-4.865a33.705 33.705 0 0 0 1.127-10.508c0-1.77-.113-3.558.135-5.387a27.392 27.392 0 0 1 1.363-5.287 73.089 73.089 0 0 1 4.71-10.136z" fill="#263238" fill-rule="nonzero"/><path d="m196.93 187.458c4.957 8.01 24.313 33.758 36.053 35.231 7.73.976 50.982-.678 55.32-3.5 2.952-1.92-3.268-22.894-7.357-22.117-4.09.778-39.997 4.005-43.084 3.45-3.087-.554-27.04-19.096-35.885-23.614-15.165-7.744-7.717 6.272-5.047 10.55z" fill="#d3766a" fill-rule="nonzero"/><path d="m224.23 190.635-18.929 9.102s-8.867-11.17-12.529-18.543c-3.661-7.372-1.126-10.897 11.076-3.83a215.795 215.795 0 0 1 20.381 13.271z" fill="#5fd48e" fill-rule="nonzero"/><path d="m204.287 196.808a216.292 216.292 0 0 1 7.628-4.237c1.273-.67 2.546-1.357 3.842-2.01 1.295-.654 2.726-1.283 4.067-1.961.09-.05.203.057.112.107-1.261.687-2.456 1.44-3.706 2.135s-2.625 1.39-3.932 2.085a243.59 243.59 0 0 1 -7.887 3.963c-.101.033-.192-.041-.124-.082z" fill="#263238" fill-rule="nonzero"/><path d="m192.772 181.161c3.65 7.38 12.529 18.55 12.529 18.55l15.447-7.446-27.04-18.782c-3.087.182-3.144 3.218-.936 7.678z" fill-opacity=".1" fill-rule="nonzero"/><path d="m205.864 226.644 3.46-15.059s10.06-4.27 6.68-12.204c-1.43-3.31-12.742-21.182-19.784-25.344-6.602-3.905-12.393-3.07-16.517-.521-13.17 8.166-23.66 27.412-31.4 48.718z" fill="#5fd48e" fill-rule="nonzero"/><path d="m191.297 206.05c3.158.074 6.303.332 9.407.77 1.544.231 3.053.52 4.574.827.755.157 1.521.29 2.254.422.793.16 1.611.243 2.433.248.068 0 .08.083 0 .083-.747.067-1.5.093-2.253.074a19.996 19.996 0 0 1 -2.253-.223c-1.578-.224-3.121-.505-4.687-.745-3.155-.48-6.31-.96-9.498-1.258-.146-.008-.135-.198.023-.198zm-7.56 2.54a89.473 89.473 0 0 1 7.751-.654 55.672 55.672 0 0 1 3.898 0l1.86.075c.687 0 1.363.149 2.039.174.078 0 .078.09 0 .09-.643 0-1.296.058-1.938.075l-1.938.05-3.898.115c-2.592.05-5.172.125-7.774.249-.124 0-.124-.158 0-.174z" fill="#263238" fill-rule="nonzero"/><path d="m217.31 156.17h71.13v50.5h-71.13z" fill="#c3b58e" transform="matrix(1.12667 -.00087 .00118 .82742 -36.584 65.223)"/><path d="m217.31 156.17h71.13v50.5h-71.13z" fill="#263238" fill-opacity=".1" transform="matrix(1.12667 -.00087 .00118 .82742 -36.584 65.223)"/><path d="m217.32 156.2h24.22v50.5h-24.22z" fill="#263238" fill-opacity=".2" transform="matrix(-1.12667 .00087 -.00118 -.82742 480.828 365.071)"/><g fill-rule="nonzero"><path d="m210.371 233.164a890.86 890.86 0 0 0 5.994-8.952l5.904-8.994 5.836-9.028c1.938-3.02 3.842-6.04 5.746-9.101a1385.066 1385.066 0 0 0 -6.005 8.944l-5.904 8.994-5.825 9.036c-1.93 3.028-3.845 6.062-5.746 9.101z" fill="#202020"/><path d="m210.371 197.13c1.9 3.029 3.823 6.063 5.769 9.102l5.858 9.019 5.938 8.985a783.11 783.11 0 0 0 6.016 8.937c-1.9-3.029-3.823-6.063-5.768-9.102l-5.859-9.019-5.926-8.986a1590.796 1590.796 0 0 1 -6.028-8.936z" fill="#202020"/><path d="m226.19 204.941h-1.06l-.867-.894-.789.894h-1.735l-.282-.323-.36.323h-1.408l-.124-.223-.26.223-.383-.397-.416.397h-.598l-.022-10.698h8.292l.011 10.698z" fill="#fff" fill-opacity=".7"/><path d="m288.64 235.977v-2.879l-52.863-5.287.012 8.208 52.852-.042z" fill="#263238" fill-opacity=".1"/><path d="m173.833 184.736c-2.366 14.28-.293 43.29 5.498 47.113 10.016 6.619 30.713 12.485 42.543 14.33 4.023.63 10.41-22.042 6.017-21.976-5.25.075-28.888-7.256-29.294-8.017-.62-1.026-7.864-17.972-12.821-29.556-5.938-13.892-10.996-7.587-11.943-1.894z" fill="#d3766a"/><path d="m218.877 245.799c10.569 2.35 23.537 5.792 35.637 3.59 1.355-.213 2.573-.755 3.459-1.538 5.453-.894 6.512-3.053 6.512-3.053 4.72-1.978 5.397-4.295 5.397-4.295s6.388-1.1 6.118-4.046c-.293-3.31-9.194-1.108-15.098-2.101-13.52-2.276-31.896-8.274-35.704-9.226l-6.32 20.669z" fill="#d3766a"/><path d="m244.442 239.287c3.947.7 7.957 1.202 11.999 1.498 4.444.126 8.896.006 13.317-.356.046.01.078.043.078.079 0 .035-.032.067-.078.078-8.45 1.33-17.237.927-25.395-1.166-.192-.05-.124-.158.079-.133zm-3.054 5.8c3.932.439 10.861 1.167 23.074-.389 0 0 .068.05 0 .058-7.5 1.728-15.512 1.888-23.13.464-.214-.042-.214-.166.056-.133zm-1.566 3.136c6.76.555 11.075.282 18.117-.389v.05c-7.887 1.382-10.974 1.225-18.184.505-.237-.025-.203-.19.067-.166z" fill="#263238"/><path d="m244.836 230.856c-1.6-.828-1.037-1.432 2.41-1.589 3.449-.157 17.284 1.34 17.6-2.25.315-3.591-19.267-5.511-24.979-4.915-5.712.595-14.646 3.028-14.646 3.028 3.684.935 12.37 3.823 19.615 5.726z" fill="#d3766a"/><path d="m193.358 203.675-22.6.645s.213-12.932 2.253-20.644c2.039-7.711 6.67-9.755 12.179.894a135.586 135.586 0 0 1 8.168 19.105z" fill="#5fd48e"/><path d="m171.929 201.441c3.166-.306 6.332-.563 9.51-.753 1.565-.09 3.12-.207 4.686-.281 1.566-.075 3.245-.066 4.867-.14.113 0 .136.123 0 .132-1.554.115-3.11.306-4.664.43-1.555.124-3.234.207-4.845.306-3.177.198-6.365.33-9.554.414-.068-.025-.09-.1 0-.108zm21.542 2.284c-1.127-2.317-1.746-4.733-2.636-7.1a140.954 140.954 0 0 0 -2.862-7.074c0-.022.026-.041.056-.041s.056.019.056.041c.598 1.142 1.229 2.275 1.77 3.434.27.58.518 1.158.754 1.746 0-.24-.067-.488-.09-.728-.056-.729 0-1.465 0-2.193 0-.041.09-.041.09 0 .161.723.267 1.452.316 2.184v1.589l.405 1.026a31.172 31.172 0 0 1 2.254 7.116.118.118 0 0 1 -.113 0z" fill="#263238"/><path d="m172.977 204.254-2.253.15h-.113v-3.749c0-1.216.079-2.433.191-3.649.113-1.216.192-2.432.372-3.64.18-1.209.35-2.425.631-3.625l-.462 7.282-.18 3.673-.293 3.641-.113-.083z" fill="#263238"/><path d="m170.757 191.239c.044 1.096.24 2.185.586 3.252a4.34 4.34 0 0 1 -.687-1.605 2.986 2.986 0 0 1 .101-1.647z" fill="#263238"/><path d="m183.162 173.772c.214.828 7.808 4.965 13.182 5.023 1.746 0-.192-5.337-.192-5.337l.192-.513 2.76-7.166-11.266-5.907-1.623-.828s-.574 1.994-1.25 4.485c0 .116-.057.231-.09.356-.034.124-.09.273-.124.405-.102.372-.215.753-.305 1.134-.09.38-.157.562-.214.827-.056.265-.146.604-.214.91a35.205 35.205 0 0 0 -.856 6.611z" fill="#d3766a"/><path d="m184.987 163.57c1.72 4.199 5.88 7.631 11.357 9.375l2.76-7.166-11.266-5.907-1.623-.828z" fill="#263238"/><path d="m213.458 153.575c2.85 12.891-7.346 15.597-11.131 16.044-3.437.405-15.21 1.464-19.852-11.146s2.625-17.649 10.421-18.881c7.797-1.233 17.723 1.092 20.562 13.983z" fill="#d3766a"/><path d="m182.655 157.547c4.225-.199 3.695-5.097 3.695-5.097s4.766-.58 4.507-6.28c2.123 2.208 5.538 3.56 9.216 3.649 1.397.074-3.481-2.292-3.481-2.292s5.892 3.367 16.01 1.414c.71-.14-1.634-7.992-9.96-10.268-8.326-2.275-15.413-.33-20.01 3.666-2.766 1.269-4.492 3.472-4.596 5.866-.214 4.137 2.974 9.466 4.619 9.342z" fill="#263238"/><path d="m185.472 158.233s-4.282-3.847-6.682-2.697 1.127 6.884 4.124 7.53c.33.088.68.134 1.031.134 1.307 0 2.472-.626 2.867-1.541z" fill="#d3766a"/><path d="m179.85 157.158c2.129.562 3.38 1.911 4.27 3.367-.311-.33-.825-.53-1.373-.53-.423 0-.831.12-1.14.332-.056 0 0 .09.068.082.724-.217 1.561-.07 2.073.365.431.352.809.738 1.126 1.15.113.132.44 0 .35-.116-.203-2.01-2.524-4.609-5.374-4.65zm30.296-4.882a11.924 11.924 0 0 1 -1.217-.1 2.49 2.49 0 0 1 -1.228-.28c-.19-.156-.218-.386-.068-.563.372-.318.952-.461 1.51-.373.57.02 1.11.196 1.51.497.113.09.177.208.177.33 0 .269-.301.489-.665.489h-.02zm-11.932 1.018c.383-.085.76-.184 1.127-.298a2.264 2.264 0 0 0 1.127-.472c.144-.182.102-.414-.102-.562-.456-.248-1.062-.292-1.577-.116-.553.11-1.029.37-1.33.728a.397.397 0 0 0 -.082.237c0 .273.305.497.676.497a.875.875 0 0 0 .161-.014zm2.93 2.16s-.08.049-.08.09c.181.877.192 1.903-.856 2.292v.05c1.33-.215 1.307-1.622.936-2.433z" fill="#263238"/><path d="m199.927 154.626c-1.95.058-1.645 2.92.158 2.863 1.802-.058 1.475-2.913-.158-2.863z" fill="#263238"/><path d="m199.172 154.824c-.316.174-.62.48-1.025.538-.406.058-.868-.215-1.206-.488h-.067c0 .554.394 1.1 1.205 1.134.811.033 1.217-.48 1.34-1.043.023-.074-.112-.215-.247-.14zm8.54.199s.09 0 .09.074c.057.886.316 1.895 1.431 2.135v.05c-1.352-.066-1.679-1.415-1.52-2.259z" fill="#263238"/><path d="m208.692 154.038c1.938-.207 2.366 2.64.575 2.838-1.792.199-2.186-2.664-.575-2.838z" fill="#263238"/><path d="m209.537 154.162c.327.125.676.373 1.037.365.36-.009.698-.348.924-.67h.067c.102.545-.056 1.133-.755 1.298-.698.166-1.126-.281-1.442-.827-.045-.058.034-.223.17-.166zm-7.57 8.473c.292.199.596.48 1.036.497.45-.024.89-.11 1.295-.257-.34.363-.924.563-1.52.521-.508-.086-.898-.385-.992-.76 0-.037.04-.067.09-.067s.09.03.09.066zm4.641-3.566s.417 1.307.496 1.928c0 .058-.203.1-.485.132-1.458.3-3.027-.019-4.067-.827-.056-.058 0-.124.124-.091 1.15.473 2.479.658 3.785.53 0-.183-.81-2.218-.676-2.235a9.436 9.436 0 0 1 1.972.19c-.755-2.738-2.095-5.37-2.794-8.108 0-.091.169-.14.214-.05a36.777 36.777 0 0 1 3.515 8.63c.08.34-1.701-.016-2.084-.099z" fill="#263238"/><path d="m206.01 160.831c-.374.478-.91.876-1.554 1.159-.36.145-.774.206-1.183.174-.879-.083-1.003-.662-.935-1.167.03-.282.11-.56.236-.827 1.019.487 2.225.719 3.437.661z" fill="#263238"/><path d="m204.456 161.99c-.36.145-.774.206-1.183.174-.879-.083-1.003-.662-.935-1.167.93-.065 1.807.346 2.118.993z" fill="#ff9cbd"/><path d="m292.077 193.051c2.344 3.17 7.887 7.008 8.552 9.656.362 1.317-.49 2.664-2.096 3.31-1.606.645 3.707 1.183 3.73 3.649 0 1.266-2.727 2.4-2.727 2.4 1.667.617 2.73 1.87 2.749 3.243-.124 1.745-2.862 2.614-2.862 2.614s2.163 1.961 1.25 3.715c-1.836 3.55-22.274 4.328-25.823-1.075-1.656-2.483 3.38-2.483 3.38-2.483s-7.188-1.282-7.515-4.377c-.326-3.094 6.175-2.788 6.175-2.788s-6.963-1.3-6.862-4.526c.102-3.36 6.546-2.242 6.546-2.242s-4.71-2.094-3.864-4.551c1.397-4.063 10.365.637 14.804-.323l2.084-5.527 2.48-.695z" fill="#d3766a"/><path d="m296.516 197.618c-1.859-3.144 3.279-7.314 2.096-10.516-1.611-4.32-8.01.223-9.014 6.62l.384 5.08z" fill="#d3766a"/><path d="m299.017 218.138c.068 0 .102.058 0 .075-6.872 1.514-14.211 1.465-21.046-.14-.214-.059-.18-.34.068-.307a98.658 98.658 0 0 0 20.978.372zm.62-6.023c.079 0 .09.09 0 .107-7.618 1.641-15.792 1.224-23.029-1.175-.248-.09-.35-.347 0-.264 4.98 1.497 16.472 2.002 23.03 1.332zm-23.547-8.291c7.098 2.292 14.5 2.69 22.161 2.284.102 0 .102.099 0 .124-3.684.943-8.607.827-12.393.496-3.558-.255-6.963-1.194-9.87-2.722-.124-.058-.056-.232.102-.182z" fill="#263238"/></g></g></g></svg>