<svg clip-rule="evenodd" fill-rule="evenodd" stroke-linejoin="round" stroke-miterlimit="2" viewBox="0 0 4000 2667" xmlns="http://www.w3.org/2000/svg"><g fill-rule="nonzero" transform="matrix(.133333 0 0 -.133333 0 2666.67)"><path d="m1563.57 1726.98c.73-.51 14114.43 1.65 14114.43 1.65 395.3 809.89 622 1694.82 472.2 2590.78-188.3 1128.29-1069.7 2068.7-1990.7 2486.1-537.8 244.74-1036.2 276.63-1477.2 236.06-590.6-54.34-1077-238.57-1417.5-216.36-208.8 13.64-379 140.5-561.9 327.57-241.6 247.12-502.5 595.34-904.25 929.45-291.18 242-655.51 475.27-1137.56 653.66-.29.1-.46.15-.69.25-1108.98 410.27-2900.01 494.68-4028.54 24.97-288.76-120.1-1376.71-657.48-1695.91-1566.52-100.83-286.91-125.01-610.82-23.36-970.33 359.76-1272.16-188-1430.54-873.38-2036.8-914.79-809.1-1209.341-1900.84-475.64-2460.48" fill="#edf4ff" transform="scale(1.75665)"/><path d="m16247.9 1813.78h-352.2c-18.9 15.97 13 52.34 46.4 54.79 14.5 1.08 32.9-1.98 53.8-6.34 4.8 64.36 32.5 353.76 136.8 342.09 117.3-12.98 0-127.41-33.1-195.18-24.6-50.19-50.5-122.15-62.4-156.06 9.6-2.1 19.4-4.13 29.5-5.98 15.6 47.73 73.4 208.34 146.9 198.95 86.4-10.95 51.7-75.31-9.5-113.54-44.9-28.11-100.1-68.01-126.3-87.33 22.2-3.65 45.4-6.04 68.9-5.5 60.3 1.43 89.8-16.39 101.2-25.9" fill="#a8d29f" transform="scale(1.67176)"/><path d="m4335.85 3078.6c-50.29 79-201.62 284-403.18 256.9-219.61-29.6 242.55-174.4 384.04-257.5-31.42-.4-58.44 2.1-78.28 9.2-94.59 33.7-256.59-31-308.39-53.7h900.54c-6.22 21.6-22.45 56.8-64.39 82.4-14.79 9-44.51 10.3-82.88 7.4 53.55 63.1 90.73 264.7-58.33 212.8-108.9-37.9-108.6-161.1-97.91-234-23.17-3.6-46.66-7.3-69.88-10.6-44.83 228.5-203.41 898.2-524.84 916.1-325.85 18.1 276.32-694.6 476.82-922.5-25.69-3.1-50.42-5.4-73.32-6.5" fill="#a8d29f"/><path d="m10319 10108.8 74.6 90s59.2 212.9 296.1 172.6c0 0 96.5-24 57.4-84.3-39-60.4-32.8-31.6-86-117.9-53.3-86.3-141.5-140.4-214.6-127.2l-81.6-19.1z" fill="#ffb27d"/><path d="m10437 10128.2c-49.8 67.8-63.6 70.6-63.6 70.6s-735.19-339.1-801.93-375.5c-175.68-95.8-1178.76-47.5-1178.76-47.5l-138.92-567s1249.38 90.1 1484.59 217.4c279.92 151.5 741.72 591.8 741.72 591.8s-4.1 57-43.1 110.2" fill="#1e3d70"/><path d="m13658.6 14558.5-269-2860.7-310.2-3298.42c-64.5-685.14-677.8-1192.93-1362.9-1128.49-685.1 64.53-1192.8 677.76-1128.4 1362.81l178.7 1901.4 400.7 4257.8c64.4 685 707.3 1507.1 1392.2 1442.7 0 0 1134.1-238.8 1098.9-1677.1" fill="#f7b284" transform="scale(1.01657)"/><path d="m11641.8 14147.5s442.2 614.1 1880.5 761.4c0 0-554-841-1880.5-761.4" fill="#e8a070"/><path d="m11374.7 13004.6s520.2 722.4 2212.3 895.8c0 0-651.7-989.4-2212.3-895.8" fill="#e8a070"/><path d="m11271.8 11910.4s520.2 722.4 2212.3 895.8c0 0-651.7-989.4-2212.3-895.8" fill="#e8a070"/><path d="m11943.7 15205.1s310.1 430.6 1318.6 533.9c0 0-388.4-589.6-1318.6-533.9" fill="#e8a070"/><path d="m13611.5 11891.7-315.3-3353.1c-65.6-696.5-689-1212.7-1385.5-1147.2-696.5 65.6-1212.6 689-1147.1 1385.4l181.7 1932.9c182.6 162.5 393.4 262.7 633.9 253.2 858.7-33.5 1690.2 625.3 2032.3 928.8" fill="#efa97a"/><path d="m14700.2 12631.2c-.7-13.1-1.2-19.9-1.2-19.9s-2.1 6.6-6.3 19.3c-34.1 105.2-200.7 624-352.3 1201.8-209.7 799.4-390.6 1711.3-152.5 1795.6 451.1 159.8 534.3-1117.4 535.6-2059.8.7-464.3-18.5-847.2-23.3-937" fill="#a8d29f"/><path d="m14290.4 12900.6c-153.9-341.3-287.4-628.4-363.9-800.4-33.5-75-55.9-128-64.7-154.1 7.5 42.5 27.6 156.4 56.3 318.7v.2c43 243 105.5 594.1 174 975.3 166.3 926.7 368.7 2030.7 416 2188.5 83.4 278.5 467.7 871.2 726.4 355.5 168-335.2-480.4-1855-944.1-2883.7" fill="#a8d29f" transform="scale(1.05957)"/><path d="m14768.2 12800.9c-164-173.1-301.8-313.4-378.8-391-42.2-42.5-66-66.1-66-66.1s41.9 89.5 113.5 232.4c67.5 135.1 161.4 317.8 271.2 517.7 359.6 655.3 889 1495.1 1217.3 1446.6 374.6-55.3-562.9-1112.3-1157.2-1739.6" fill="#a8d29f" transform="scale(1.02752)"/><path d="m14700.2 12631.2c-2.4-.1-4.9-.3-7.5-.6-34.1 105.2-200.7 624-352.3 1201.8 70.7-105.9 198.6-248 383.1-264.2.7-464.3-18.5-847.2-23.3-937" fill="#82b378"/><path d="m15141.6 13669.1c-163-361.7-304.5-665.9-385.6-848.1-6.2 50.9-8.9 109.8-8.9 174.3v.2c45.6 257.6 111.8 629.6 184.4 1033.5 28.3-141 87.4-297.2 210.1-359.9" fill="#82b378"/><path d="m15174.5 13153.1c-168.5-177.8-310.1-322-389.2-401.7 7.6 45.8 25.4 105.3 48.8 170.9 69.4 138.8 165.9 326.5 278.7 531.9 2.6-86.1 14.8-214.4 61.7-301.1" fill="#82b378"/><path d="m14687.4 12657.4c-2.2-12.6-3.3-19.2-3.3-19.2-1.7.9-.6 7.4 3.3 19.2" fill="#a8d29f"/><path d="m14913.7 11359.2c-282.7-800.7-634.6-1673.8-634.6-1673.8l-795.1 238.3s93.1 593.1 229.7 1253c159.4 769.4 377.9 1630 577.3 1747.7 91.1 53.8 187.2 81.4 282.2 88.4 47.9 3.6 95.7 2 142.3-4.2 11.1-1.5 22-3.2 33.1-5.1 27.5-4.9 54.7-11.3 81.1-19.2 10.4-2.9 20.6-6.2 30.7-9.8 35.3-11.9 69.3-26.3 101.7-42.8 137.6-70 245.6-176.5 291.9-289.1 47.3-114.6-126.7-678.4-340.3-1283.4" fill="#ed7d2b"/><path d="m12894.3 9181.47c-100.4-563.11-68.6-1160.83 94.3-1780.05 27.2-103.27 98.7-186.07 191.3-229.94 41.4-19.59 87-31.39 134.8-33.81 104.1 15.43 282.4 234.18 365.3 492.55 22.8 71.1 38.4 145.14 43.3 218.84 37.8 575.7 159.6 1279.85 381.1 1662.51 226.3 391.31 539 865.03 1010 1227.53 0 0 .1.1.2.2 45.4 35.4 1087.2 1048.6 1087.2 1048.6 98.2 138.9-58.5 256.3-58.5 256.3s-96.6-112.6-405.7-354.9c-309.2-242.1-933.4-99.5-933.6-99.5-176.5 51.2-372.2 15.5-520.9-106.7-229.5-188.5-529.7-477-797.5-868.9-301.4-440.9-500.4-922.91-591.3-1432.73" fill="#ffb93e" transform="scale(1.15337)"/><path d="m14494.4 8290.11c40 608.05 168.6 1351.77 402.5 1755.89 239.1 413.3 569.3 913.7 1066.8 1296.6 0 0 .1.1.2.1 8.5 8.2 336.1 330.7-104.8 517.1-431.5 182.5-1797.7-1832.3-1410.4-3800.82 24.1 75.09 40.6 153.29 45.7 231.13" fill="#ffa412" transform="scale(1.09201)"/><path d="m11611.7 11113.9c-55.9-87.9-124.6-173-205.6-252.8-307.1-302.4-789-526.7-1409.43-520.9 0 0-260.45 248.3-386.73 564.2l.11.2c-87.57 219.1-151.5 541.8-.11 781.3 97.58 154.3 223.08 227.4 350.27 265.9 216.09 65.7 437.09 31.8 533.59 128.1 95.3 94.8 230.8 176.8 379.6 223.9 24.3 7.8 48.9 14.7 73.9 20.3h.1c10.4 2.5 20.6 4.7 31.1 6.8.2.1.4.1.7.1 229.4 44.8 474.4.9 644.8-203.6 39.5-47.4 75.4-104.7 105.9-173.6 109.2-245.4 62.2-556.6-118.2-839.9" fill="#a8d29f"/><path d="m9807.26 11721.4s-204.74-160.7-142-338.5 224.54-95.7 275.16 27.5c50.62 123.1 1.43 370.7-133.16 311" fill="#d1f2c9"/><path d="m11624 12127.4c39.5-47.4 75.4-104.8 105.9-173.6 109.2-245.4 259.1-896.2 78.7-1179.6l-242-221.3c-307-302.5-949.5-218.5-1569.9-212.6 0 0-260.43 248.2-386.75 564.2l.09.1s767.46-303.7 1490.26 330.2c328.3 288 468.4 618 523.7 892.6" fill="#95c38b"/><path d="m10453.5 12451.1c-126.7 75.4-254.9-30.6-403.7-88.7-148.85-58.3-435.22-57.1-435.22-57.1s117.78 169.5 310.83 338c193.09 168.4 528.09-192.2 528.09-192.2" fill="#a8d29f"/><path d="m10453.5 12451.1c-119.1 97.7-339.3 153.7-446.7 109.8-107.46-44-392.22-255.6-392.22-255.6s117.78 169.5 310.83 338c193.09 168.4 528.09-192.2 528.09-192.2" fill="#82b378"/><path d="m10493.8 12079.9c95.3 94.8 230.8 176.8 379.6 223.9-253.1-94.8-392.6-415.5-488.6-378.4-103 40-412.77 26.9-424.59 26.4 216.09 65.7 437.09 31.8 533.59 128.1" fill="#95c38b"/><path d="m10978.5 12330.9c-8-2.3-18.2-4.5-31.1-6.8 10.4 2.5 20.6 4.7 31.1 6.8" fill="#95c38b"/><path d="m10402.7 11931.9c-81.2 179.3-37.3 401.7 13.7 556.7 40.7 123.3 118.7 289.8 157 369 8.1 16.7 32.4 15 38.2-2.6l15.4-46.7c15.5-46.9 9.8-98.1-15.7-140.2-78.4-129.7-235.9-432.7-165-682.2 8-28.1-29.3-86.1-43.6-54" fill="#82b378"/><path d="m14913.7 11359.2c-282.7-800.7-634.6-1673.8-634.6-1673.8l-795.1 238.3s93.1 593.1 229.7 1253l.3.6s161.4-362.5 544-355c218.1 4.3 475 291 655.7 536.9" fill="#db6f26"/><path d="m15369.8 10086.7 827.5-5895.64c102.7-731.22-465-1384.27-1203.4-1384.27h-1247c-629.7 0-1119.9 546.76-1051.4 1172.71l700.4 5484.23z" fill="#fcecdb" transform="scale(1.07725)"/><path d="m11690.4 10697.2s2127.4-725.41 4609.6 0l-731.4-7740.32h-4631.7z" fill="#fcecdb" transform="scale(1.01577)"/><g fill="#f9ddbf"><path d="m11874.7 10865.8 891.6-6351c110.5-787.7-501.1-1491.2-1296.5-1491.2h-1343.3c-678.32 0-1206.39 589-1132.62 1263.3l638.63 6578.9s298.72-216.1 1064.09-216.1c758 0 1178.1 216.1 1178.1 216.1"/><path d="m14495 8214.9c-107.8 0-220.5 9.4-337.9 28.4-950.7 153.4-1243.8 1830.5-1255.8 1901.8l188.7 31.8c1-5.7 72-417.6 248.3-839.7 157-375.7 431.8-837.7 849.3-905 474.8-76.7 860.1 18.4 1114.1 274.9 300.8 303.8 407.7 814.4 300.8 1437.7l188.6 32.4c117.6-685.9-7.9-1255.8-353.5-1604.8-234-236.3-555.9-357.5-942.6-357.5"/><path d="m12842.9 10157.8c0 92.4 74.9 167.4 167.4 167.4 92.4 0 167.4-75 167.4-167.4s-75-167.4-167.4-167.4c-92.5 0-167.4 75-167.4 167.4"/><path d="m15538.6 10157.8c0 92.4 74.9 167.4 167.4 167.4 92.4 0 167.4-75 167.4-167.4s-75-167.4-167.4-167.4c-92.5 0-167.4 75-167.4 167.4"/><path d="m14537.2 7394.1 324.2-181.4 353.7 539.6h-437.6z"/><path d="m15169.2 7238.8-128.7-72.5 412.6-17.6 157.6 316.8-120.2-63.4-204 335.5s-217.7-324.2-219.9-331c0 0 102.6-167.8 109.9-172.9z"/><path d="m15695.6 7077-321-187 285-578.9 222.4 376.8z"/><path d="m15241.5 6654.5 2.1 104.8-224.9-346.4 192.8-296.7-2.8 139.8 401.9 1.1s-196.5 392-201.2 397.4z"/><path d="m14842.9 6256-3.5 384.3-599.7 14.2 196.8-398.5z"/><path d="m14685.8 6908.3 120.1-86-158.3 381.4-353.8 9 108.3-82.1-175-407.6s368.9-6.2 376-5.4c0 0 82.7 190.7 84.2 199.5z"/></g><path d="m7844.24 9884.3s220.43-261.5 501.17-152.1c0 0 60.38 146.1 61.24 253.7.09 13.3.26 26.1.46 38.4 1.5 121.2 5.59 189.2 5.59 189.2s-.08.1-.28.1c-12.77 5.3-429.14 176.3-428.79 162.1 7.15-328-139.39-491.4-139.39-491.4" fill="#ffb27d"/><path d="m8025.43 10297.5c40.16-74.5 177.92-220.1 381.68-273.2 1.5 121.2 5.59 189.2 5.59 189.2s-.08.1-.28.1c-11.53 3.1-398.93 105.8-386.99 83.9" fill="#ed975d"/><path d="m8499.9 10226.1s-468.24-110.1-532.31 182.6c-64.06 292.6-167.64 475.5 128.61 558.2 296.24 82.7 378.98-16.3 424.11-108.7 45.15-92.5 99.74-595.9-20.41-632.1" fill="#ffb27d"/><path d="m7983.61 10329c-6.39-4.1-107.15-35.1-297.95 345-29.96 59.7-50.35 188.8 19.47 302.8 69.81 114.1 317.38 203.8 523.07 242.8s255.06-76.7 303.5-193c50.85-122.2 197.69-222.7 197.69-222.7-177.36-99.1-390.99 42.6-465.01 19.3-74.01-23.3-100.15-139.9-105.69-177.3-5.56-37.4-14.1-68.5-107.16-35.1-93.07 33.4-42.09-131.8-27.18-163.4 0 0 12.64-84.2-40.74-118.4" fill="#a9453d"/><path d="m6777.4 3030.8h-283.52c-59.44 0-125.49 59.5-142.02 168.5s-138.7 168.5-165.16 257.7c-26.45 89.1 109.03 214.7 109.03 214.7l22.65 29.1 23.56 30.3 224.59-52.8s5.55-53.5 9.01-121.6c2.4-49.2 3.72-106 .92-155.9-6.62-118.9 33.3-247 138.94-270.1 105.73-23.2 62-99.9 62-99.9" fill="#2c3a64"/><path d="m8751.19 3030.8h-751.56c-7.18 1.4-12.64 3-15.95 4.7-50.17 25.1-34.47 217.2-28.44 276.6 1.16 10.9 1.99 17.4 1.99 17.4s264.28 211.4 300.64 49.5c1.16-5 2.49-10 3.88-14.9v-.1c45.89-151.4 250.97-220.2 369.43-239.3 90.51-14.8 113.99-67.5 120.01-93.9" fill="#2c3a64"/><path d="m8599.72 7364.8s-40.14-500.7-87.31-1102.7c-64.12-817.6-141.22-1822-148.85-2012.3-13.17-330.4-66.09-858.9-66.09-858.9s-125.47-125.5-376.59-72.6c0 0-223.76 754.4-287.69 1552.7-.98 13.1-1.97 26.2-2.97 39.4-59.46 812.6-151.91 2523.8-151.91 2523.8z" fill="#2b478b"/><path d="m8599.72 7364.8s-40.14-500.7-87.31-1102.7l-879.22-1391.1c-.98 13.1-1.97 26.2-2.97 39.4-59.46 812.6-151.91 2523.8-151.91 2523.8z" fill="#233862"/><path d="m8416.43 7305.4s-723.43-1813.6-1199.1-2665.8c-475.69-852.3-624.33-1090.1-624.33-1090.1s-272.53 109-297.31 183.3c0 0 181.91 1645.3 500.46 2046.4 180.01 226.7 391.44 906.8 401.36 1144.6 9.9 237.9 64.41 708.6 64.41 708.6z" fill="#2b478b"/><path d="m8752.44 8803.8c-2.82-155.1-11.82-329.5-23.97-506.5-.75-10.5-1.49-21-2.24-31.5-7.76-109.7-16.19-219.6-25.87-326.9-3.88-42.9-8.02-85.4-12.32-127.2l-.66-5.6c-.32-15.6-2.23-32.6-3.97-48-39.5-401.6-80.92-718.8-88.61-723.7-9.17-6.1-19.51-9.2-30.84-7.9-105.3 13.3-419.51-10.6-676.74 45.3-217.06 45.8-403.98 132.6-602.02 249.7-26.29 15.5-86.22 56.7-81.34 87.4 4.79 33.8 13.64 82.7 24.87 144.1 39.02 213.6 106.4 581 129.38 1011 4.45 80.1 10.99 159.2 19.42 237 22.06 202.6 57.45 395.1 104.9 566 88.2 317.6 265.65 555 428.25 650.1 21.23 11.9 89.35-37.2 194.32-104.6 96.97-62.2 189.01-66.3 287.71-30.1l96.37-155c105.8-123 218.48-286.7 249.23-519.5 2.31-17.2 4.29-35.5 5.94-54.9 8.51-94.8 10.58-214.8 8.19-349.2" fill="#2a4e96"/><path d="m8752.44 8803.8c-2.82-155.1-11.82-329.5-23.97-506.5-.75-10.5-1.49-21-2.24-31.5-601.53 376.5-694.18 1065.5-694.18 1065.5 295.92-13 531.01-81 712.2-178.3 8.51-94.8 10.58-214.8 8.19-349.2" fill="#1e3d70"/><path d="m10622.4 9531.7c9.3 18.8 7.9 39 16.9 75.2 9.1 36.2 14.4 109.5 28.1 108 13.6-1.6 25.7-25.8 22.7-45.5-2-12.4 2-37.7 7.5-55.8 32.8 20 85.7 63.7 105.5 91.7 79.7 113 125.1 133.2 146.3 25.2 11.7-59.6 5.2-132-33.8-218.5-48.9-108.5-139.8-122.6-227-134.7-24-3.3-85-46-85-46l-97.2 134.8s102.5 37.9 116 65.6" fill="#ffb27d"/><path d="m10637 9436.4c-31 83.9-79.2 78.4-79.2 78.4s-894.38-222.9-974.63-232.5c-80.26-9.5-963.12 344.8-963.12 344.8s-347.49 155.9-510.26 13.5c-141.45-123.7-147.89-280.5-114.79-412.1 39.44-156.9 172.19-272.8 332.65-293.2 360.17-45.9 1078.79-132.2 1229.42-111.3 335.22 46.7 1094.83 485.2 1094.83 485.2s9.5 61.3-14.9 127.2" fill="#2a4e96"/><path d="m15942.5 6470.98 297.8-152.15 59.7 206.64s-38 71.49-55.1 188.57c-7.2 49.27-10.7 106.55-6.1 170.12l-242.7-124.23s5.8-22.51 9.6-55.55c4.2-35.84 6-84.05-4.1-129.93-8.8-39.32-26.4-76.9-59.1-103.47" fill="#ffb27d" transform="scale(1.03516)"/><path d="m15620.8 6095.93s260.6 337.45 387.5 442.24c0 0 173.4 427.77 187.5 455.99 14.2 28.12 104.2-23.55 104.2-23.55s-63.8-415.86-130.9-539.06c-67.2-123.29-275.6-537.04-422.7-552.34-147-15.39-125.6 216.72-125.6 216.72" fill="#ffb27d" transform="scale(1.09171)"/><path d="m16021.6 3051.3s5.9-64.99-42.1-112.39c-30.3-29.81-48.8-67.12-51.3-104.51-2.1-31.67 32.4-52.4 59.3-35.46l282.7 178.95c24.2 15.18 29.8 47.86 12.2 70.26-15.4 19.63-33 42.68-45.8 60.73-27.9 39.53-89.6 46.57-89.6 46.57z" fill="#2c3a64" transform="scale(1.0802)"/><path d="m16010.9 3453.65s30.9-61.3 2.2-126.1c-18.1-40.87-21.8-84.46-9.9-122.02 10.2-31.72 51.9-38.72 71.5-11.87l207.7 284.03c17.6 24.13 10.5 58.28-15.3 73.46-22.6 13.23-48.6 28.9-68.2 41.65-42.5 27.92-105.6 10.99-105.6 10.99z" fill="#2c3a64" transform="scale(1.02772)"/><path d="m15309.2 4020.11c43.5-161.96 485.6-684.96 485.6-684.96s205.5 136.97 205.5 242.9c0 0-224.2 466.96-224.2 523 0 13.26 30.3 66.71 76.3 141.2 79.2 128.42 204.8 319.9 302 477.54 83.4 135.43 145.6 245.88 139.1 270.01-18.7 68.53-652 188.3-652 188.3s-375.9-996.12-332.3-1157.99" fill="#35488b" transform="scale(1.04034)"/><path d="m15995.3 4280.49c79.9 129.58 206.6 322.78 304.7 481.84-11.9 199.31-68.3 373.61-175.1 373.61-266.9 0-226.4-20.28-226.4-20.28s-69.1-589.49 96.8-835.17" fill="#2c3a64" transform="scale(1.03105)"/><path d="m15491.6 4874.39s-55.8-1048.41 32.1-1179.88c87.8-131.57 474.1-688.62 474.1-688.62s302.2 77.38 286.2 170.26c0 0-325.1 627.28-324.7 712.45.4 85.09 154.6 854.23-8 985.79-162.4 131.48-459.7 0-459.7 0" fill="#35488b" transform="scale(1.07782)"/><path d="m16300 6549.93s-406 362.07-430.8 411.82c-24.7 49.85-140 494.61-140 494.61l-96.7-11.77s18.5-533.47 59.3-637.32c40.7-103.95 518.9-545.84 518.9-545.84z" fill="#ffb27d" transform="scale(1.01111)"/><path d="m15174.6 6002.76c-1.6 24.01-145.7 121.33-145.7 121.33-30.3 182.13 85.5 313.18 85.5 313.18l173.6-123.48c33.5-2.06 47.9-14.29 47.9-14.29 28.8 7.75 114.6 1.21 114.6 1.21-1.3-41.37 9.6-80.32 82.3-89.85 96.6-12.61 183.1 53.33 226.8 98.17 0 0 58.5 5.13 132-18.87 0 0 35.5 18.21 73.5 19.33l142.1 127.78s166.5-48.11 192.8-298.98c0 0-187-142.34-200.4-254.7l-5.2-42.6-18.1-150.93-31.9-264.7 94.9-527.15c.9-4.67 1.3-9.25 1.3-13.82 0-35.22-24.1-66.97-59.5-75.47 0 0-8.2-1.31-23.2-3.46-100.7-14.1-509.2-62.86-829.5 24.1-72 19.61-119.4 88.36-113.5 162.8l67.7 850.5s-6.3 135.99-8 159.9" fill="#ffb93e" transform="scale(1.07066)"/><path d="m16085.6 5254.94c6.4-185.72 24.6-343.15 130.9-402.01 15.2 2.17 23.4 3.49 23.4 3.49 35.8 8.59 60.1 40.66 60.1 76.21 0 4.62-.4 9.25-1.2 13.96l-96 532.36 32.3 267.32c-1.6 4.71-2.4 7.16-2.4 7.16s-155.2-260.61-147.1-498.49" fill="#ffa412" transform="scale(1.06018)"/><path d="m16055.8 6596.73c138.4 3.78 244.2 140.07 244.2 140.07l-240-9.7c4.2-35.96 6-84.33-4.2-130.37" fill="#ea9c68" transform="scale(1.03166)"/><path d="m15830.4 6607.83s273.4-72.17 367.8 145.3c101.8 234.65-9.9 405.58-102.8 417.09-185.1 23.04-292.7-47.6-325.3-122.16-32.5-74.67-90.6-401.74 60.3-440.23" fill="#ffb27d" transform="scale(1.04198)"/><path d="m16300 6882.83s-11.7-28.86-85.5-12.66c0 0-61.9 13.54-54.8 46.12 0 0 64.2 14.04 140.3-33.46" fill="#fff" transform="scale(1.01888)"/><path d="m15924.8 6584.18s31.6 92.84 27.8 142.34c0 0 70.4 89.71 29.4 111.95-41.1 22.15-63.1-30.94-72.6-20.44-9.3 10.41-24 186.72-73.8 181.14s-233.9-62.65-314.7 7c-80.8 69.56 115.1 341.64 447.1 236.59 332-105.14 264.2-474.22-43.2-658.58" fill="#2c3a64" transform="scale(1.05667)"/><path d="m16284.8 7165.28s15.2 45.28-1.1 77.67c0 0-.8-44.62-18.3-64.39-17.5-19.87 19.4-13.28 19.4-13.28" fill="#2c3a64" transform="scale(1.04674)"/><path d="m16239.1 7179.87s41.4 4.67 60.9-27.16c0 0-29.2 19.73-58.6-1.15z" fill="#2c3a64" transform="scale(1.04924)"/><path d="m15904 7539.2s-1.9 42.4 11.8 78.1c13.7 35.6 5.6 128.3-11.9 123.1s-9.6-38.5-29.2-34.6-50.9 111.6-76.3 101.8c-25.5-9.8-44-46-36.2-124.3 7.9-78.3 44-156 44-156z" fill="#ffb27d"/><path d="m16109.9 6956.84s9.4 42.45 1.8 80.89c-7.6 38.45 16.8 130.55 33.6 122.17 16.8-8.29 3-40.54 23.4-39.99 20.5.54 71 103.67 95 89.37 23.9-14.31 36.3-54.12 14.6-131.83-21.6-77.71-71.8-149.77-71.8-149.77z" fill="#ffb27d" transform="scale(1.09767)"/><path d="m16052.9 7629.52c-21.5-37.96-10.4-756.78-31.7-817.33-67.8-193.17-17-686.36-53.4-732.83-36.6-46.38-76.3-145.91-56.5-192.38 19.9-46.38 26.1-105.97 71.1-104.38s311.6 1586.91 314.6 1628.13c3 41.21-244.1 218.79-244.1 218.79" fill="#ffb27d" transform="scale(1.25691)"/><path d="m16245.6 6141.62s54.4-66.87 50.3-98.25c-4.2-31.37-50.3-106.67-50.3-106.67s-117 236.29-108.7 255.1c8.4 18.89 79.4 33.48 79.4 33.48z" fill="#ffb27d" transform="scale(1.32926)"/><path d="m15351 2524.58 115.5-43.04s501.2 695.33 562.9 1307.06c11.1 109.25 7.4 215.01-16.4 312.75 0 0 4.9 27.96 13.4 77.49 4 23.1 8.9 50.83 14.5 82.74 16.3 93.33 38.7 221.11 64.3 366.59 59.1 334.84 135.5 762.85 194.8 1077.45l-31.1 10.04-336.5 108.55-69.5 220.88-250.6 65.9s-56-109.47-106-626.72c-9.2-67.83-17.6-142.62-23.9-223.81-19.6-247.62-21-554.8 23.8-906.02 11.5-89.85 26-182.71 44-278.05 13.2-69.92 15.1-165.18 9.6-274.58-25.2-500.09-208.8-1277.23-208.8-1277.23" fill="#2a4e96" transform="scale(1.29436)"/><path d="m15482.4 5260.46 544-1081.62c4 23.1 8.9 50.83 14.5 82.74 16.3 93.33 38.7 221.11 64.3 366.59 59.1 334.84 135.5 762.85 194.8 1077.45l-31.1 10.04-336.5 108.55-69.5 220.88-250.6 65.9s-56-109.47-106-626.72c-9.2-67.83-17.6-142.62-23.9-223.81" fill="#1e3d70" transform="scale(1.29436)"/><path d="m15120.4 5743.82 12.1 103.88c203-53.94 745.2 150.61 745.2 150.61s196.6-172.83 170.9-587.07c-12.7-202.25-35.7-1061.43-59.7-1315.7-8.7-92.13-16.4-157.74-19.4-183.9-.1-.15-.1-.22-.1-.29-.9-7.95 1.9-15.53 5.9-22.52 35.4-60.03 64.7-122.6 88.7-186.57 236-628.69-36.3-1402.93-36.3-1402.93l-70.7 28.53s-154.9 861.63-280.8 1242.21c-21.4 64.57-41.8 115.32-60.6 145.63-54.8 88.35-105.5 232.73-151.7 404.37-87.1 324.63-157.3 746.82-203.9 1072.79-6.4-.29-139.6 550.96-139.6 550.96" fill="#2a4e96" transform="scale(1.34583)"/><path d="m16300 7392.53c-.2-.68-.6-1.44-.9-2.12-62.9-146.15-182.3-336.48-382.7-356.7-61-6.22-129.5 3.33-206.2 34.7-88 35.99-155.4 81.07-206.9 130.77 85.5 157.29 184.8 273.36 189.4 278.66l.2.23s13.2.91 35 2.12c8.7 7.65 15.4 32.81 20.7 65.54 3.5 21.74 6.3 46.79 8.5 72.42 2.4 27.65 4.2 56.03 5.4 81.39 2.6 49.98 3.3 88.62 3.3 88.62l282.1 29.89 16.8 1.75c-8-84.91-4.7-157.96 4.3-215.87 6.3-41 15.6-74.41 25.9-99.11 7.5-18.19 15.6-31.6 23.5-40.01 21.4-4.62 47.1-10.76 71.4-17.73 24.7-7.12 67.3-20 109.3-53.79.3-.3.7-.53.9-.76" fill="#ffb27d" transform="scale(1.31986)"/><path d="m16300 7771.51s-139.5-117.95-309.2-109.71c3.6 22.07 6.4 47.51 8.6 73.53 2.5 28.07 4.3 56.89 5.6 82.64 73.6 2.03 171.8-10.33 295-46.46" fill="#ed985f" transform="scale(1.29987)"/><path d="m15948 8055.72c9.2 11.77 114.4 135.26 317.9-3.74 0 0-106.1 60.05-154.6 29.52 0 0 105.5 4.22 147.1-52.6s3.8-175.03-18.9-206.46c-22.5-31.45-126.5-109.94-167.1-93.25-15.4 6.32-29.8 18.19-41.6 30.51-1.4-20.99-4-43.32-8.4-67.19-40.2-220.83-238.6-319.78-292.8-252.96-34.7 42.86-100.8-21.61-100.8-21.61l-169.5 645.26s386.8 204.93 488.7-7.48" fill="#2c3a64" transform="scale(1.35637)"/><path d="m16275.7 7992.99c-17.7-63.11-57.2-136.9-94-226.35-60.5-146.95-241.1-122.92-347.1-93.91 0 .01 0 .01-.1.01-47.5 13.02-80 27-80 27-86.1 43.44 22.6 417.04 69.2 480.95 46.5 63.96 122.2 127.71 335.4 25.51 123.6-59.26 140.9-126.05 116.6-213.21" fill="#ffb27d" transform="scale(1.31585)"/><path d="m15723.6 2256.9h562.9s13.5 85.81-15.9 150.9c-28.2 62.46-72.3 90.82-61.7 166.45-35.9-36.88-94.1-78.1-175.5-67.18-10-16.16-64.4-102.64-97.7-126.58-36.8-26.41-200.7-16.98-212.1-123.59" fill="#233862" transform="scale(1.3367)"/><path d="m15669.6 2436.44h607.7s22.7 96.99-17.2 162.89c-35.3 58.39-21.8 91.67 4.4 139.89-27.6-11.23-63.2-21.49-102.4-19.23-30.2 1.7-62.2 15.43-90.3 31.74-26.2-29.8-138.2-156.76-173.2-181.88-39.7-28.5-216.8-18.33-229-133.41" fill="#233862" transform="scale(1.2382)"/><path d="m15811 8257.66c78.8 42.18 112.8 11.87 127.2-16.45 228 25.92 361.8-125.84 361.8-125.84-39.6-161.46-41.7-342.28-41.7-342.28s-77.8-12.86-205.7 82.61c-39 29.17-65.4 76.23-83 127.49 18-120.76 68.1-223 68.1-223-138.4 149.08-109.5 414.83-106 442.75-28.4-10.12-86-33.85-114.8-68.44-39.1-47.03-92.4-155.03-123.2-137.96 0 0-.8 197.88 117.3 261.12" fill="#2c3a64" transform="scale(1.32179)"/><path d="m16249.1 6893.97c-6.8 9.91-10.7 12.17-14.6 14.05-3.8 1.95-7.5 3.61-13.7 12.4-18.9 27.2-35.2 52.22-45.6 75.36-11.5 25.33-16.1 48.77-9.8 71.31 4.8 16.91 11.3 33.82 18.9 50.2 3.6 7.81 7.4 15.48 11.4 23.14 42.3 80.18 104.3 144.57 104.3 144.57-76.9 67.18-243.5 100.77-243.5 100.77s-2.6-8.94-7.8-23.37c-35-95.05-204.4-225.28-232.8-247.07-35.5-27.05-382.5-15.55-388.4 40.05-6 54.56 130.9 253.38 136 260.9.2.22.2.3.2.3-162.1-6.61-229.4-35.92-229.4-35.92 0-.08.1-.08.1-.08h-.1s-127-37.41-236.1-247.74c0 0 62-46.36 134.9-69.43-10.9-35.62-17.8-73.41-16.6-113.31.1-7.52 0-15.11 1.4-22.7 138.4-730.3-83.3-1018.62-83.3-1018.62-69.3-127.74 1027.1-326.12 1072.5-203.78 19.7 28.47 29.3 65.52 31.5 107.37 5.5 98.44-29.1 223.48-65.1 324.02-12.2 34.34-24.7 65.82-35.7 92.42-7.2 17.36-12.8 35.24-16.9 53.43-10.2 45.61-10.2 93.17.5 139.08 42.1 181.25 94.8 372.56 127.7 472.65" fill="#b5453c" transform="scale(1.33082)"/><path d="m16040.6 6210.14-406.5-208.37 28.2-80.66s601.9 75.43 637.7 223.25z" fill="#ffb27d" transform="scale(1.37876)"/><path d="m16188.3 6248.31c11.1-26.68 23.6-58.27 35.9-92.71-.5-1.29-.6-1.89-.6-1.89-372.4 284.93 2.2 863.98 2.2 863.98 10.5-23.22 26.9-48.32 45.8-75.61 6.2-8.82 9.9-10.48 13.8-12.44 3.8-1.88 7.7-4.14 14.6-14.09-33-100.4-85.9-292.31-128.1-474.12-10.7-46.06-10.7-93.77-.5-139.53 4.1-18.24 9.7-36.18 16.9-53.59" fill="#9e3530" transform="scale(1.32666)"/><path d="m15733.1 7031.68s516.6-463.03 566.9-887.32c0 0-73.7-26.84-168.2 0-94.4 26.76-605.2 596.84-589.7 664.65 15.4 67.75 191 222.67 191 222.67" fill="#ffb27d" transform="scale(1.37876)"/><path d="m15988.7 7248.6s215.4-71.51 311.3-213.77c0 0-81-183.95-390-232.69 0 0-204.8 279.79 78.7 446.46" fill="#b5453c" transform="scale(1.34818)"/><path d="m16119 4718.71s-277.5-180.33-366.6-271.84c0 0-341.9-107.09-364.6-116.26-22.8-9.1 11.6-82.05 11.6-82.05s325.7 22.96 425.3 67.19c99.6 44.16 432.9 179.19 454.1 292.04 21.2 112.84-159.8 110.92-159.8 110.92" fill="#ea9c68" transform="scale(1.40634)"/><path d="m16100 2563.23 60.9-324.18h110.6l28.5 395.6z" fill="#ffb27d" transform="scale(1.43655)"/><path d="m16081.5 2672.07-71.2-368.29 99.8-4.09 189.9 358.97z" fill="#ffb27d" transform="scale(1.39371)"/><path d="m16137.5 2248.44s-26.2-47.56-75.7-58.33c-31.2-6.75-57.9-23.02-74.5-45.75-14-19.25-.5-46.3 23.3-46.3h251.3c21.4 0 38.1 18.49 36 39.77-1.9 18.63-3.9 40.32-4.7 56.93-1.9 36.3-41 69.11-41 69.11s-34.6-19.61-47.9-21.83c-29-4.94-66.8 6.4-66.8 6.4" fill="#b2443b" transform="scale(1.43842)"/><path d="m16130.3 2337.58s-27-49.59-78.4-61.08c-32.4-7.23-60.1-24.28-77.2-48.06-14.5-20.09-.2-48.06 24.6-47.99l261.2 1.51c22.2.15 39.5 19.45 37.2 41.56-2.1 19.3-4.3 41.85-5.2 59.12-2.2 37.73-43.1 71.63-43.1 71.63s-35.8-20.6-49.6-22.98c-30.2-5.28-69.5 6.29-69.5 6.29" fill="#b2443b" transform="scale(1.38357)"/><path d="m15748.8 2611.42s106-33.15 223-43.73c110.3-10.01 230.2-.07 280.7 76.24 14.6 22.15 22.9 60.51 26.3 110.09 21.2 303.55-139.2 1028.4-139.2 1028.4h-187.2c0-14.95-203.6-1171-203.6-1171" fill="#f99746" transform="scale(1.41793)"/><path d="m15992.6 2571.03c110.4-10.03 230.4-.07 281 76.34 14.7 22.17 22.9 60.59 26.4 110.23-.1.57-.3 1.06-.4 1.63-29.9 111.43-111.5 801.64-111.5 801.64s-280.1-738.23-195.5-989.84" fill="#ed7d2b" transform="scale(1.41609)"/><path d="m16180.6 3656.98s82.2-551.9 119.4-1140.91c0 0-258.2-106.12-497.9-21.24l-43.8 1123.19z" fill="#f99746" transform="scale(1.45024)"/><path d="m15907.4 5208s16.5 72.62 85.2 76.17c0 0-21.9-13.05-25.4-26.92 0 0 39.8 33.48 101.6 11.14 61.8-22.41 153.5-85.32 107.4-231.64-46.2-146.32 48-182.52 85.9-276.93 37.9-94.4-91.1-112.5-64.3-186.21 26.7-73.71-52.9-247.76-255.2-171.66-202.3 76.09-248.3 367.98-162.4 439.23 86 71.31 127.2 366.82 127.2 366.82" fill="#b2443b" transform="scale(1.46392)"/><path d="m16119.3 5301.88s92.5 12.37 149.8-47.53c30.9-32.31-1.1-78.8-1.1-78.8z" fill="#f99f46" transform="scale(1.43907)"/><path d="m15837.9 5158.32c1.8 2.92 75.2 119.02 212.5 142.16 111.3 18.83 215.3-59.75 232.4-171.28 17.2-112-.3-257.15-183.1-309.48z" fill="#b2443b" transform="scale(1.43919)"/><path d="m16038.2 4707.99 209-124.14 52.8 147.1s-24.2 53.64-31.2 139.37c-3 36.09-2.9 77.87 3.3 123.64l-181.8-78.92s3.2-16.5 4.5-40.72c1.4-26.12.5-61.22-9-94.01-8.2-28.09-22.7-54.56-47.6-72.32" fill="#ffb27d" transform="scale(1.42424)"/><path d="m16116.7 4789.49c100.4-3.66 183.3 90.18 183.3 90.18l-174.3 4.01c1.4-26.17.5-61.34-9-94.19" fill="#ea9c68" transform="scale(1.42151)"/><path d="m15941.8 4809.34s195.1-65.03 273.5 88.41c84.7 165.59 11.6 294.75-55.3 307.45-133.3 25.19-214.5-21.07-241.6-73.68-27.1-52.69-84.4-287.29 23.4-322.18" fill="#ffb27d" transform="scale(1.43309)"/><path d="m16300 4976.79s-9.8-20.3-62.2-5.18c0 0-44.1 12.63-37.6 35.84 0 0 47.1 7.1 99.8-30.66" fill="#fff" transform="scale(1.409)"/><path d="m15572.7 4504.75 164.4 133.71v-.14c19.5 16.7 44.3 28.7 75.7 32.72 11.6 1.45 36 5.96 49.6 7.62-2.3-30.64-2.3-55.38 51.2-64.81 71.3-12.55 142.1 30.57 176 62.32 55.8-10.54 82.7-17.4 127.1-35.01 25.6-10.12 45.9-28.56 58.7-51.36 11.5-20.73 16.8-44.99 13.9-69.74l-54.8-471.97s65.5-401.83 54.3-402.87c-75.1-7.21-403.3-73.06-637.9 1.94-38 12.13 53 224.86 34.8 660.1-130.2 77.99-113 197.49-113 197.49" fill="#35488b" transform="scale(1.44266)"/><path d="m16040.5 5174.69s-2.5-152.8 85.5-203.14c0 0-34.8 71.99-23 115.98 0 0 22.8-136.3 92.3-160.11 69.5-23.74 104.7 253.19-39.2 308.88-143.9 55.62-285.8-10.51-302.8-107.84-16.9-97.31-4.1-117.64-4.1-117.64s67.4 185.24 191.3 163.87" fill="#b2443b" transform="scale(1.43647)"/><path d="m16288.8 3645.22c11.2 1.04-54.3 402.87-54.3 402.87l54.8 471.97c2.9 24.75-2.4 49.01-13.9 69.74-3.8-.63-7.6-2.36-11.2-5.41-114.8-96.9-220.4-489.72-220.4-489.72s-55.4-317.75 245-449.45" fill="#2c3a64" transform="scale(1.44266)"/><path d="m16202.8 4438.75s97.2-366.78 79.4-434.21c-17.8-67.44-207-223.58-238.5-233.85l-22.7 60.07s143.9 198.51 131.7 219.99c-26.4 46.15-131.7 316.71-131.7 316.71z" fill="#ffb27d" transform="scale(1.45183)"/><path d="m16079 4304.59s111.9-19.59 221 93.24c0 0-92.7 271.2-208.3 216.27-115.5-54.93-87.7-244.15-12.7-309.51" fill="#35488b" transform="scale(1.44908)"/><path d="m16276.9 3891.95s-96.8-18.96-101-50.24c-3.2-25.05 40.8-65.99 64.5-57.38 23.6 8.67 59.6 46.6 59.6 46.6z" fill="#ffb27d" transform="scale(1.429)"/><path d="m16287.7 4583.89s-153.1 79.18-166.7 50.88c-13.6-28.23 18.8-111.92 51.3-122.38 32.4-10.46 127.7-15.36 127.7-15.36z" fill="#ea9c68" transform="scale(1.32863)"/><path d="m16282.4 1675.04h-15510.885c-9.687 0-17.612 7.97-17.612 17.65v6c0 9.67 7.925 17.59 17.612 17.59h15510.885c9.7 0 17.6-7.92 17.6-17.59v-6c0-9.68-7.9-17.65-17.6-17.65" fill="#2e3552" transform="scale(1.76748)"/></g></svg>