<svg xmlns="http://www.w3.org/2000/svg" data-name="Layer 1" width="704.726" height="560.956"><path fill="#f2f2f2" d="M159.703 191.736H164.703V246.736H159.703z"/><path fill="#e6e6e6" d="M270.438 559.992L73.438 559.992 73.658 537.104 73.678 535.114 75.438 355.992 269.438 355.992 269.688 407.738 269.698 409.728 270.438 559.992z"/><path d="M508.369 170.467l31.876-54.039a10.127 10.127 0 0 0-3.48-13.775 10.127 10.127 0 0 0-14.18 3.865l-31.39 57.148-20.538 33.922a8.837 8.837 0 1 0 7.558 8.456z" fill="#a0616a"/><path d="M538.715 130.369a2.986 2.986 0 0 0 2.299-2.797 3.874 3.874 0 0 1 .844-2.207 3.562 3.562 0 0 1 .32-.341 5.843 5.843 0 0 0 1.914-5.052c-.41-3.068.698-6.626 2.056-9.564 1.487-3.215 3.17-6.398 3.845-9.875.972-5.016-.505-10.96-6.687-12.448a11.761 11.761 0 0 0-7.823.95c-5.094 2.457-8.206 7.344-11.139 12.048 0 0-7.006 7.29-11.891 10.833 1.276.494 1.12 2.528.061 3.395-1.058.867-2.528.95-3.879 1.167-1.703.272-3.638 1.051-3.534 3.17a3.682 3.682 0 0 0 1.386 2.604 69.582 69.582 0 0 0 25.2 13.267c2.05.585 4.347 1.052 6.23.057s2.618-4.098.798-5.207z" fill="#ff9e16"/><path fill="#a0616a" d="M587.328 224.152L522.328 223.152 520.328 208.152 526.328 174.152 577.328 174.152 587.328 224.152z"/><path fill="#a0616a" d="M500.069 538.978L489.031 538.978 483.778 496.405 500.069 496.405 500.069 538.978z"/><path d="M505.894 558.103h-7.915l-1.413-7.474-3.619 7.474h-20.993a4.72 4.72 0 0 1-2.682-8.603l16.765-11.579v-7.555l17.634 1.053z" fill="#2f2e41"/><path fill="#a0616a" d="M649.348 503.147L640.294 509.46 611.634 477.542 624.997 468.225 649.348 503.147z"/><path d="M665.065 515.502l-6.493 4.527-5.433-5.322 1.306 8.2-17.221 12.008a4.72 4.72 0 0 1-7.12-5.523l7.13-19.086-4.322-6.198 15.067-9.222z" fill="#2f2e41"/><path d="M703.542 560.649l-702.358.307a1.19 1.19 0 0 1 0-2.381l702.358-.308a1.19 1.19 0 0 1 0 2.382z" fill="#cacaca"/><path fill="#e6e6e6" d="M62.934 335.384H278.432V359.15200000000004H62.934z"/><path d="M204.826 306.75l-.73-2.561h.164a1.707 1.707 0 0 0 0-3.414 50.78 50.78 0 0 0-23.469 0 1.706 1.706 0 0 0-.02 3.412l-.694 2.562c-5.385 7.487-2.75 19.922 0 32.43h24.749c3.111-13.633 5.467-26.58 0-32.43z" fill="#e6e6e6"/><circle cx="192.526" cy="319.977" r="6.827" fill="#fff"/><path d="M223.497 270.218l-.73-2.56h.165a1.707 1.707 0 0 0 0-3.414 50.78 50.78 0 0 0-23.47 0 1.706 1.706 0 0 0-.02 3.412l-.694 2.562c-5.384 7.487-2.75 19.922 0 32.43h24.75c3.11-13.633 5.466-26.58 0-32.43z" fill="#e6e6e6"/><circle cx="211.197" cy="283.446" r="6.827" fill="#fff"/><path d="M187.497 270.218l-.73-2.56h.165a1.707 1.707 0 0 0 0-3.414 50.78 50.78 0 0 0-23.47 0 1.706 1.706 0 0 0-.02 3.412l-.694 2.562c-5.384 7.487-2.75 19.922 0 32.43h24.75c3.11-13.633 5.466-26.58 0-32.43z" fill="#e6e6e6"/><circle cx="175.197" cy="283.446" r="6.827" fill="#fff"/><path d="M171.497 235.218l-.73-2.56h.165a1.707 1.707 0 0 0 0-3.414 50.78 50.78 0 0 0-23.47 0 1.706 1.706 0 0 0-.02 3.412l-.694 2.562c-5.384 7.487-2.75 19.922 0 32.43h24.75c3.11-13.633 5.466-26.58 0-32.43z" fill="#e6e6e6"/><circle cx="159.197" cy="248.446" r="6.827" fill="#fff"/><path d="M207.497 235.218l-.73-2.56h.165a1.707 1.707 0 0 0 0-3.414 50.78 50.78 0 0 0-23.47 0 1.706 1.706 0 0 0-.02 3.412l-.694 2.562c-5.384 7.487-2.75 19.922 0 32.43h24.75c3.11-13.633 5.466-26.58 0-32.43z" fill="#e6e6e6"/><circle cx="195.197" cy="248.446" r="6.827" fill="#fff"/><path d="M150.497 270.218l-.73-2.56h.165a1.707 1.707 0 0 0 0-3.414 50.78 50.78 0 0 0-23.47 0 1.706 1.706 0 0 0-.02 3.412l-.694 2.562c-5.384 7.487-2.75 19.922 0 32.43h24.75c3.11-13.633 5.466-26.58 0-32.43z" fill="#e6e6e6"/><circle cx="138.197" cy="283.446" r="6.827" fill="#fff"/><path d="M479.497 171.218l-.73-2.56h.165a1.707 1.707 0 0 0 0-3.414 50.78 50.78 0 0 0-23.47 0 1.706 1.706 0 0 0-.02 3.412l-.694 2.562c-5.384 7.487-2.75 19.922 0 32.43h24.75c3.11-13.633 5.466-26.58 0-32.43z" fill="#ccc"/><circle cx="467.197" cy="184.446" r="6.827" fill="#fff"/><path d="M130.952 306.75l-.73-2.561h.164a1.707 1.707 0 0 0 0-3.414 50.78 50.78 0 0 0-23.469 0 1.706 1.706 0 0 0-.02 3.412l-.694 2.562c-5.385 7.487-2.75 19.922 0 32.43h24.75c3.11-13.633 5.466-26.58-.001-32.43z" fill="#e6e6e6"/><circle cx="118.652" cy="319.977" r="6.827" fill="#fff"/><path d="M167.952 306.75l-.73-2.561h.164a1.707 1.707 0 0 0 0-3.414 50.78 50.78 0 0 0-23.469 0 1.706 1.706 0 0 0-.02 3.412l-.694 2.562c-5.385 7.487-2.75 19.922 0 32.43h24.75c3.11-13.633 5.466-26.58-.001-32.43z" fill="#e6e6e6"/><circle cx="155.652" cy="319.977" r="6.827" fill="#fff"/><path d="M243.792 306.75l-.73-2.561h.165a1.707 1.707 0 0 0 0-3.414 50.78 50.78 0 0 0-23.47 0 1.706 1.706 0 0 0-.02 3.412l-.694 2.562c-5.384 7.487-2.75 19.922 0 32.43h24.75c3.11-13.633 5.467-26.58 0-32.43z" fill="#e6e6e6"/><circle cx="231.492" cy="319.977" r="6.827" fill="#fff"/><path d="M586.084 210.79l-67.88-4.574s-15.727 36.332-15.475 41.134 6.742 3.356-.003 10.579-6.745-2.777-6.745 7.223-27.27 232-15.27 234c21 3 20-1 20-1l32.952-103.243s59.497 86.981 78.047 82.243 15-11 15-11l-39.744-80.675s-5.925-.01-5.09-6.668-4.223-5.53-4.223-5.53-7.594-2.368-4.768-6.248-4.675-6.123-4.675-6.123l21.89-83.787s15.588-36.193-4.016-66.331z" fill="#2f2e41"/><path d="M580.097 72.199l-23.363 1.183-7.8 13.14s-22.224 1.63-22.224 19.63-15.17 10.167-8.085 33.083 8.7 27.334 2.392 30.626-15.208 2.582-7.257 7.937 10.95 7.354 8.95 9.354 37.071-13.735 59.536-3.868c0 0 6.284-4.757 4.874-8.944s-2.178-2.569.206-6.378 27.686-70.07 27.686-70.07-5.136-9.55-16.22-9.145S580.098 72.2 580.098 72.2z" fill="#ff9e16"/><path d="M662.07 294.733l-41.31 22.418-31.718-58.448a23.5 23.5 0 0 1 41.309-22.418zm-40.506 19.706l37.794-20.51-30.765-56.69a21.5 21.5 0 1 0-37.794 20.51z" fill="#3f3d56"/><path d="M697.358 336.453l-60.85 33.023a7.841 7.841 0 0 1-9.2-1.239l-41.091-39.443a7.867 7.867 0 0 1 1.695-12.59l91.265-49.528a7.867 7.867 0 0 1 11.48 5.44l10.677 55.949a7.841 7.841 0 0 1-3.976 8.388z" fill="#ff9e16"/><path transform="rotate(-28.488 423.492 871.336)" fill="#3f3d56" d="M877.706 462.344H884.706V474.344H877.706z"/><path d="M617.868 177.441l-1.786-62.714a10.127 10.127 0 0 0-10.28-9.807 10.127 10.127 0 0 0-9.945 10.82l3.853 65.088.674 39.649a8.837 8.837 0 1 0 10.9 3.134z" fill="#a0616a"/><path d="M622.209 127.342a2.986 2.986 0 0 0 .456-3.59 3.874 3.874 0 0 1-.46-2.319 3.562 3.562 0 0 1 .09-.459 5.843 5.843 0 0 0-1.07-5.295c-1.98-2.379-2.937-5.98-3.35-9.19-.454-3.514-.723-7.104-2.004-10.407-1.847-4.764-6.262-9.01-12.288-6.977a11.761 11.761 0 0 0-6.115 4.97c-3.005 4.791-3.038 10.585-3.016 16.128l-1.08-2.19a44.967 44.967 0 0 1-3.218 17.69c1.343-.26 2.293 1.545 1.859 2.842-.434 1.298-1.634 2.15-2.662 3.053-1.297 1.137-2.52 2.827-1.304 4.566a3.682 3.682 0 0 0 2.56 1.466 69.581 69.581 0 0 0 28.395-2.186c2.046-.596 4.24-1.424 5.304-3.27s.034-4.861-2.097-4.832z" fill="#ff9e16"/><path d="M602.517 40.594c-1.34 4.96.2 12.77.78 17.4.62 4.95-7.96 9.38-12.87 9.66a6.99 6.99 0 0 0-1.3-4.6 11.967 11.967 0 0 1-.96 4.61h-40.97c-5.16-9.71-9.55-22.98-4.81-36.7a14.04 14.04 0 0 1 9.7-12.15l22.34-7.15c8.81 0 19.62 1.25 24.49 7.81a24.575 24.575 0 0 1 3.6 21.12z" fill="#2f2e41"/><circle cx="565.197" cy="43.664" r="23" fill="#a0616a"/><path d="M594.197 37.664v5h-19.9a7.156 7.156 0 0 0-1.17-5.61 12.192 12.192 0 0 1-1.42 5.61c-11.507 3.403-21.166 3.338-29.08 0a4.43 4.43 0 0 1-4.43-4.43c0-15.33 12.083-28.248 27.41-28.564a27.997 27.997 0 0 1 28.59 27.994z" fill="#2f2e41"/><path d="M590.275 3.783c-2.371-1.11-5.041-1.58-6.912-3.783l.706 3.732a17.626 17.626 0 0 0-12.55-1.568 6.73 6.73 0 0 0-3.314 1.72 4.957 4.957 0 0 0-1.313 4.08 4.641 4.641 0 0 0 2.077 3.12 8.962 8.962 0 0 0 3.166 1.077l13.886 2.823a10.591 10.591 0 0 0 5.32.17 5.22 5.22 0 0 0 3.514-4.516c.263-3.187-2.209-5.746-4.58-6.855z" fill="#2f2e41"/><path d="M215.14 178.665l-109.628 35.377a3.876 3.876 0 0 1-4.874-2.496l-13.866-42.97a3.876 3.876 0 0 1 2.495-4.874l109.628-35.376a3.876 3.876 0 0 1 4.874 2.495l13.866 42.971a3.876 3.876 0 0 1-2.495 4.873z" fill="#f2f2f2"/><path d="M188.814 184.566l-66.659 21.51a19.71 19.71 0 0 1-24.782-12.69l-2.635-8.166a19.71 19.71 0 0 1 12.69-24.782l74.825-24.145a19.71 19.71 0 0 1 24.782 12.69 28.3 28.3 0 0 1-18.221 35.583z" fill="#fff"/><path d="M160.86 156.778L116.8 170.996a.998.998 0 1 1-.614-1.9l44.063-14.219a.998.998 0 0 1 .613 1.9zm25.577 2.94l-66.367 21.416a.998.998 0 1 1-.613-1.9l66.367-21.416a.998.998 0 0 1 .613 1.9zm3.272 10.138l-66.367 21.416a.998.998 0 1 1-.614-1.9l66.368-21.416a.998.998 0 0 1 .613 1.9z" fill="#e6e6e6"/><path d="M189.709 169.856l-66.367 21.416a.998.998 0 1 1-.614-1.9l66.368-21.416a.998.998 0 0 1 .613 1.9z" fill="#e6e6e6"/><circle cx="195.152" cy="134.87" r="11.551" fill="#ff9e16"/><path d="M194.746 139.503a.998.998 0 0 1-.799-.4l-2.449-3.265a.999.999 0 1 1 1.598-1.198l1.602 2.136 4.116-6.173a.999.999 0 0 1 1.661 1.108l-4.898 7.348a.999.999 0 0 1-.803.444z" fill="#fff"/></svg>